G04 #@! TF.FileFunction,Copper,L4,Bot,Signal*
%FSLAX46Y46*%
G04 Gerber Fmt 4.6, Leading zero omitted, Abs format (unit mm)*
G04 Created by KiCad (PCBNEW 4.0.4-stable) date Wednesday, 26 April 2017 'PMt' 10:40:54 PM*
%MOMM*%
%LPD*%
G01*
G04 APERTURE LIST*
%ADD10C,0.100000*%
%ADD11C,5.000000*%
%ADD12R,1.143000X0.508000*%
%ADD13R,1.600000X1.600000*%
%ADD14O,1.600000X1.600000*%
%ADD15R,1.850000X1.850000*%
%ADD16C,1.850000*%
%ADD17R,0.800000X0.750000*%
%ADD18O,2.999740X1.501140*%
%ADD19R,0.900000X0.500000*%
%ADD20C,2.900000*%
%ADD21C,0.400000*%
%ADD22C,0.400000*%
%ADD23C,0.250000*%
G04 APERTURE END LIST*
D10*
D11*
X98750000Y-116750000D03*
X43250000Y-116750000D03*
X43250000Y-62250000D03*
D12*
X78925000Y-95905000D03*
X78925000Y-94635000D03*
X78925000Y-93365000D03*
X78925000Y-92095000D03*
X72575000Y-92095000D03*
X72575000Y-93365000D03*
X72575000Y-94635000D03*
X72575000Y-95905000D03*
X78925000Y-88405000D03*
X78925000Y-87135000D03*
X78925000Y-85865000D03*
X78925000Y-84595000D03*
X72575000Y-84595000D03*
X72575000Y-85865000D03*
X72575000Y-87135000D03*
X72575000Y-88405000D03*
X79175000Y-80905000D03*
X79175000Y-79635000D03*
X79175000Y-78365000D03*
X79175000Y-77095000D03*
X72825000Y-77095000D03*
X72825000Y-78365000D03*
X72825000Y-79635000D03*
X72825000Y-80905000D03*
X79175000Y-73405000D03*
X79175000Y-72135000D03*
X79175000Y-70865000D03*
X79175000Y-69595000D03*
X72825000Y-69595000D03*
X72825000Y-70865000D03*
X72825000Y-72135000D03*
X72825000Y-73405000D03*
X62825000Y-69595000D03*
X62825000Y-70865000D03*
X62825000Y-72135000D03*
X62825000Y-73405000D03*
X69175000Y-73405000D03*
X69175000Y-72135000D03*
X69175000Y-70865000D03*
X69175000Y-69595000D03*
X62825000Y-77095000D03*
X62825000Y-78365000D03*
X62825000Y-79635000D03*
X62825000Y-80905000D03*
X69175000Y-80905000D03*
X69175000Y-79635000D03*
X69175000Y-78365000D03*
X69175000Y-77095000D03*
X62825000Y-84595000D03*
X62825000Y-85865000D03*
X62825000Y-87135000D03*
X62825000Y-88405000D03*
X69175000Y-88405000D03*
X69175000Y-87135000D03*
X69175000Y-85865000D03*
X69175000Y-84595000D03*
X62825000Y-92095000D03*
X62825000Y-93365000D03*
X62825000Y-94635000D03*
X62825000Y-95905000D03*
X69175000Y-95905000D03*
X69175000Y-94635000D03*
X69175000Y-93365000D03*
X69175000Y-92095000D03*
D13*
X73500000Y-99250000D03*
D14*
X68420000Y-106870000D03*
X70960000Y-99250000D03*
X70960000Y-106870000D03*
X68420000Y-99250000D03*
X73500000Y-106870000D03*
D15*
X50250000Y-110000000D03*
D16*
X52750000Y-110000000D03*
X55250000Y-110000000D03*
D17*
X80750000Y-92250000D03*
X82250000Y-92250000D03*
X80750000Y-84750000D03*
X82250000Y-84750000D03*
X81000000Y-79750000D03*
X82500000Y-79750000D03*
X81000000Y-72250000D03*
X82500000Y-72250000D03*
X60750000Y-70750000D03*
X59250000Y-70750000D03*
X61000000Y-78250000D03*
X59500000Y-78250000D03*
X60750000Y-88500000D03*
X59250000Y-88500000D03*
X60750000Y-96000000D03*
X59250000Y-96000000D03*
D18*
X90790000Y-104030000D03*
X85710000Y-104030000D03*
X90790000Y-99077000D03*
X85710000Y-99077000D03*
X90790000Y-93997000D03*
X85710000Y-93997000D03*
X90790000Y-89044000D03*
X85710000Y-89044000D03*
X90790000Y-83964000D03*
X85710000Y-83964000D03*
X90790000Y-79011000D03*
X85710000Y-79011000D03*
X90790000Y-74058000D03*
X85710000Y-74058000D03*
X90790000Y-68978000D03*
X85710000Y-68978000D03*
D19*
X73750000Y-102250000D03*
X73750000Y-103750000D03*
X71000000Y-102250000D03*
X71000000Y-103750000D03*
X68400000Y-102250000D03*
X68400000Y-103750000D03*
D15*
X50250000Y-115500000D03*
D16*
X52750000Y-115500000D03*
X55250000Y-115500000D03*
D15*
X50250000Y-62500000D03*
D16*
X52750000Y-62500000D03*
X55250000Y-62500000D03*
D20*
X75380000Y-113500000D03*
X80460000Y-113500000D03*
X85540000Y-113500000D03*
X90620000Y-113500000D03*
D18*
X51260000Y-69420000D03*
X56340000Y-69420000D03*
X51260000Y-74373000D03*
X56340000Y-74373000D03*
X51260000Y-79453000D03*
X56340000Y-79453000D03*
X51260000Y-84406000D03*
X56340000Y-84406000D03*
X51260000Y-89486000D03*
X56340000Y-89486000D03*
X51260000Y-94439000D03*
X56340000Y-94439000D03*
X51260000Y-99392000D03*
X56340000Y-99392000D03*
X51260000Y-104472000D03*
X56340000Y-104472000D03*
D11*
X98750000Y-62250000D03*
D21*
X78900000Y-83400000D03*
X80700000Y-87100000D03*
X76000000Y-86300000D03*
X64200000Y-93400000D03*
X64200000Y-96000000D03*
X64100000Y-85900000D03*
X64200000Y-88500000D03*
X64200000Y-78400000D03*
X64200000Y-80900000D03*
X64300000Y-70900000D03*
X64300000Y-73500000D03*
X76900000Y-94600000D03*
X78900000Y-90900000D03*
X77700000Y-79600000D03*
X77600000Y-77100000D03*
X77500000Y-72200000D03*
X77500000Y-69600000D03*
X65400000Y-84900000D03*
X70500000Y-88000000D03*
X67200000Y-94600000D03*
X71300000Y-77700000D03*
X66800000Y-77900000D03*
X74500000Y-70900000D03*
X67400000Y-72200000D03*
X65400000Y-85800000D03*
X69700000Y-90700000D03*
X76300000Y-87200000D03*
X49000000Y-102500000D03*
X48000000Y-100500000D03*
X67500000Y-69750000D03*
X65000000Y-73000000D03*
X70500000Y-77250000D03*
X70500000Y-81750000D03*
X69500000Y-83750000D03*
X68750000Y-83000000D03*
X62300000Y-91100000D03*
X66000000Y-93300000D03*
X74300000Y-95900000D03*
X74300000Y-94000000D03*
X77200000Y-84600000D03*
X77600000Y-83800000D03*
X71300000Y-88400000D03*
X70700000Y-87100000D03*
X71600000Y-81300000D03*
X71600000Y-79700000D03*
X75000000Y-78000000D03*
X74250000Y-72000000D03*
D22*
X78925000Y-84595000D02*
X78925000Y-83425000D01*
X78925000Y-83425000D02*
X78900000Y-83400000D01*
X78925000Y-87135000D02*
X80665000Y-87135000D01*
X80665000Y-87135000D02*
X80700000Y-87100000D01*
X78750000Y-108750000D02*
X73750000Y-103750000D01*
X62825000Y-93365000D02*
X64165000Y-93365000D01*
X64165000Y-93365000D02*
X64200000Y-93400000D01*
X62825000Y-95905000D02*
X64105000Y-95905000D01*
X64105000Y-95905000D02*
X64200000Y-96000000D01*
X62825000Y-85865000D02*
X64065000Y-85865000D01*
X64065000Y-85865000D02*
X64100000Y-85900000D01*
X62825000Y-88405000D02*
X64105000Y-88405000D01*
X64105000Y-88405000D02*
X64200000Y-88500000D01*
X62825000Y-78365000D02*
X64165000Y-78365000D01*
X64165000Y-78365000D02*
X64200000Y-78400000D01*
X62825000Y-80905000D02*
X64195000Y-80905000D01*
X64195000Y-80905000D02*
X64200000Y-80900000D01*
X62825000Y-70865000D02*
X64265000Y-70865000D01*
X64265000Y-70865000D02*
X64300000Y-70900000D01*
X62825000Y-73405000D02*
X64205000Y-73405000D01*
X64205000Y-73405000D02*
X64300000Y-73500000D01*
X78925000Y-94635000D02*
X76935000Y-94635000D01*
X76935000Y-94635000D02*
X76900000Y-94600000D01*
X78925000Y-92095000D02*
X78925000Y-90925000D01*
X78925000Y-90925000D02*
X78900000Y-90900000D01*
X79175000Y-79635000D02*
X77735000Y-79635000D01*
X77735000Y-79635000D02*
X77700000Y-79600000D01*
X79175000Y-77095000D02*
X77605000Y-77095000D01*
X77605000Y-77095000D02*
X77600000Y-77100000D01*
X79175000Y-72135000D02*
X77565000Y-72135000D01*
X77565000Y-72135000D02*
X77500000Y-72200000D01*
X79175000Y-69595000D02*
X77505000Y-69595000D01*
X77505000Y-69595000D02*
X77500000Y-69600000D01*
X68500000Y-103750000D02*
X71000000Y-103750000D01*
X71000000Y-103750000D02*
X73750000Y-103750000D01*
X90620000Y-113500000D02*
X90620000Y-113120000D01*
X90620000Y-113120000D02*
X86250000Y-108750000D01*
X86250000Y-108750000D02*
X78750000Y-108750000D01*
X60750000Y-96000000D02*
X62730000Y-96000000D01*
X62730000Y-96000000D02*
X62825000Y-95905000D01*
X60750000Y-88500000D02*
X62730000Y-88500000D01*
X62730000Y-88500000D02*
X62825000Y-88405000D01*
X61000000Y-78250000D02*
X62710000Y-78250000D01*
X62710000Y-78250000D02*
X62825000Y-78365000D01*
X60750000Y-70750000D02*
X62710000Y-70750000D01*
X62710000Y-70750000D02*
X62825000Y-70865000D01*
X79175000Y-72135000D02*
X80885000Y-72135000D01*
X80885000Y-72135000D02*
X81000000Y-72250000D01*
X79175000Y-79635000D02*
X80885000Y-79635000D01*
X80885000Y-79635000D02*
X81000000Y-79750000D01*
X78925000Y-84595000D02*
X80595000Y-84595000D01*
X80595000Y-84595000D02*
X80750000Y-84750000D01*
X78925000Y-92095000D02*
X80595000Y-92095000D01*
X80595000Y-92095000D02*
X80750000Y-92250000D01*
X69635000Y-87135000D02*
X70500000Y-88000000D01*
X69175000Y-87135000D02*
X69635000Y-87135000D01*
X69175000Y-94635000D02*
X67235000Y-94635000D01*
X67235000Y-94635000D02*
X67200000Y-94600000D01*
X69175000Y-94635000D02*
X70365000Y-94635000D01*
X71635000Y-93365000D02*
X72575000Y-93365000D01*
X70365000Y-94635000D02*
X71635000Y-93365000D01*
X72575000Y-85865000D02*
X71035000Y-85865000D01*
X69765000Y-87135000D02*
X69175000Y-87135000D01*
X71035000Y-85865000D02*
X69765000Y-87135000D01*
X72825000Y-78365000D02*
X71965000Y-78365000D01*
X71965000Y-78365000D02*
X71300000Y-77700000D01*
X69175000Y-79635000D02*
X68535000Y-79635000D01*
X68535000Y-79635000D02*
X66800000Y-77900000D01*
X72825000Y-70865000D02*
X74465000Y-70865000D01*
X74465000Y-70865000D02*
X74500000Y-70900000D01*
X69175000Y-72135000D02*
X67465000Y-72135000D01*
X67465000Y-72135000D02*
X67400000Y-72200000D01*
X59250000Y-96000000D02*
X59250000Y-96482000D01*
X59250000Y-96482000D02*
X56340000Y-99392000D01*
X56340000Y-89486000D02*
X58264000Y-89486000D01*
X58264000Y-89486000D02*
X59250000Y-88500000D01*
X59500000Y-78250000D02*
X57543000Y-78250000D01*
X57543000Y-78250000D02*
X56340000Y-79453000D01*
X59250000Y-70750000D02*
X57670000Y-70750000D01*
X57670000Y-70750000D02*
X56340000Y-69420000D01*
X82250000Y-84750000D02*
X84924000Y-84750000D01*
X84924000Y-84750000D02*
X85710000Y-83964000D01*
X82250000Y-92250000D02*
X83963000Y-92250000D01*
X83963000Y-92250000D02*
X85710000Y-93997000D01*
X82500000Y-79750000D02*
X82500000Y-80754000D01*
X82500000Y-80754000D02*
X85710000Y-83964000D01*
X82500000Y-72250000D02*
X83902000Y-72250000D01*
X83902000Y-72250000D02*
X85710000Y-74058000D01*
D23*
X73750000Y-102250000D02*
X73750000Y-99500000D01*
X73750000Y-99500000D02*
X73500000Y-99250000D01*
X75300000Y-90700000D02*
X69700000Y-90700000D01*
X76400000Y-89600000D02*
X75300000Y-90700000D01*
X76400000Y-87300000D02*
X76400000Y-89600000D01*
X76300000Y-87200000D02*
X76400000Y-87300000D01*
X68420000Y-99250000D02*
X68420000Y-102170000D01*
X68420000Y-102170000D02*
X68500000Y-102250000D01*
X52750000Y-62500000D02*
X52750000Y-63300000D01*
X52750000Y-63300000D02*
X51950000Y-64100000D01*
X51950000Y-64100000D02*
X49600000Y-64100000D01*
X49600000Y-64100000D02*
X49000000Y-64700000D01*
X49000000Y-64700000D02*
X49000000Y-68500000D01*
X49000000Y-102500000D02*
X49000000Y-106500000D01*
X52750000Y-116750000D02*
X52500000Y-117000000D01*
X52500000Y-117000000D02*
X49000000Y-117000000D01*
X49000000Y-117000000D02*
X48500000Y-116500000D01*
X48500000Y-116500000D02*
X48500000Y-107000000D01*
X48500000Y-107000000D02*
X49000000Y-106500000D01*
X52750000Y-116750000D02*
X52750000Y-115500000D01*
X49000000Y-101000000D02*
X49000000Y-68500000D01*
X49000000Y-102500000D02*
X49000000Y-101000000D01*
X48000000Y-61500000D02*
X48400000Y-61100000D01*
X48000000Y-100500000D02*
X48000000Y-61500000D01*
X53600000Y-61100000D02*
X55000000Y-62500000D01*
X48400000Y-61100000D02*
X53600000Y-61100000D01*
X55000000Y-62500000D02*
X55250000Y-62500000D01*
X55250000Y-115500000D02*
X55000000Y-115500000D01*
X55000000Y-115500000D02*
X53000000Y-117500000D01*
X48000000Y-105500000D02*
X48000000Y-100500000D01*
X48000000Y-117000000D02*
X48000000Y-105500000D01*
X48500000Y-117500000D02*
X48000000Y-117000000D01*
X53000000Y-117500000D02*
X48500000Y-117500000D01*
X55250000Y-115500000D02*
X55250000Y-115750000D01*
X55250000Y-62500000D02*
X55250000Y-62350000D01*
D22*
X63965000Y-94635000D02*
X64115000Y-94635000D01*
X62825000Y-92095000D02*
X63895000Y-92095000D01*
X63965000Y-94635000D02*
X62825000Y-94635000D01*
X65000000Y-93200000D02*
X63895000Y-92095000D01*
X65000000Y-93750000D02*
X65000000Y-93200000D01*
X64115000Y-94635000D02*
X65000000Y-93750000D01*
X56340000Y-104472000D02*
X57328000Y-104472000D01*
X57328000Y-104472000D02*
X65200000Y-96600000D01*
X63935000Y-94635000D02*
X62825000Y-94635000D01*
X65200000Y-95900000D02*
X63935000Y-94635000D01*
X65200000Y-96600000D02*
X65200000Y-95900000D01*
X51260000Y-104472000D02*
X56340000Y-104472000D01*
X63235000Y-94635000D02*
X62825000Y-94635000D01*
X63865000Y-87135000D02*
X64750000Y-86250000D01*
X62825000Y-84595000D02*
X63695000Y-84595000D01*
X63865000Y-87135000D02*
X62825000Y-87135000D01*
X64095000Y-84595000D02*
X63695000Y-84595000D01*
X64750000Y-85250000D02*
X64095000Y-84595000D01*
X64750000Y-86250000D02*
X64750000Y-85250000D01*
X56340000Y-94439000D02*
X57461000Y-94439000D01*
X57461000Y-94439000D02*
X61900000Y-90000000D01*
X63835000Y-87135000D02*
X62825000Y-87135000D01*
X64900000Y-88200000D02*
X63835000Y-87135000D01*
X64900000Y-89000000D02*
X64900000Y-88200000D01*
X63900000Y-90000000D02*
X64900000Y-89000000D01*
X61900000Y-90000000D02*
X63900000Y-90000000D01*
X51260000Y-94439000D02*
X56340000Y-94439000D01*
X62825000Y-79635000D02*
X64165000Y-79635000D01*
X64095000Y-77095000D02*
X62825000Y-77095000D01*
X65000000Y-78000000D02*
X64095000Y-77095000D01*
X65000000Y-78800000D02*
X65000000Y-78000000D01*
X64165000Y-79635000D02*
X65000000Y-78800000D01*
X63195000Y-77095000D02*
X62825000Y-77095000D01*
X56340000Y-84406000D02*
X57494000Y-84406000D01*
X57494000Y-84406000D02*
X62265000Y-79635000D01*
X62265000Y-79635000D02*
X62825000Y-79635000D01*
X51260000Y-84406000D02*
X56340000Y-84406000D01*
X62825000Y-72135000D02*
X64265000Y-72135000D01*
X63995000Y-69595000D02*
X62825000Y-69595000D01*
X65000000Y-70600000D02*
X63995000Y-69595000D01*
X65000000Y-71400000D02*
X65000000Y-70600000D01*
X64265000Y-72135000D02*
X65000000Y-71400000D01*
X63295000Y-69595000D02*
X62825000Y-69595000D01*
X51260000Y-74373000D02*
X56340000Y-74373000D01*
X56340000Y-74373000D02*
X58578000Y-72135000D01*
X58578000Y-72135000D02*
X62825000Y-72135000D01*
X77705000Y-73405000D02*
X77155000Y-73405000D01*
X79175000Y-73405000D02*
X77705000Y-73405000D01*
X77935000Y-70865000D02*
X79175000Y-70865000D01*
X77135000Y-70865000D02*
X77935000Y-70865000D01*
X76250000Y-71750000D02*
X77135000Y-70865000D01*
X76250000Y-72500000D02*
X76250000Y-71750000D01*
X77155000Y-73405000D02*
X76250000Y-72500000D01*
X85710000Y-68978000D02*
X90790000Y-68978000D01*
X79175000Y-70865000D02*
X83823000Y-70865000D01*
X83823000Y-70865000D02*
X85710000Y-68978000D01*
X79175000Y-80905000D02*
X77705000Y-80905000D01*
X77705000Y-80905000D02*
X77000000Y-80200000D01*
X77000000Y-80200000D02*
X77000000Y-79300000D01*
X77000000Y-79300000D02*
X77935000Y-78365000D01*
X77935000Y-78365000D02*
X79175000Y-78365000D01*
X85710000Y-79011000D02*
X90790000Y-79011000D01*
X79175000Y-78365000D02*
X85064000Y-78365000D01*
X85064000Y-78365000D02*
X85710000Y-79011000D01*
X78925000Y-85865000D02*
X82165000Y-85865000D01*
X82165000Y-85865000D02*
X84705000Y-88405000D01*
X84705000Y-88405000D02*
X84600000Y-88300000D01*
X84600000Y-88300000D02*
X84600000Y-88405000D01*
X85710000Y-89044000D02*
X90790000Y-89044000D01*
X78925000Y-88405000D02*
X84600000Y-88405000D01*
X84600000Y-88405000D02*
X85071000Y-88405000D01*
X85071000Y-88405000D02*
X85710000Y-89044000D01*
X78925000Y-93365000D02*
X79865000Y-93365000D01*
X79865000Y-93365000D02*
X82405000Y-95905000D01*
X85710000Y-99077000D02*
X90790000Y-99077000D01*
X78925000Y-95905000D02*
X82405000Y-95905000D01*
X82405000Y-95905000D02*
X82538000Y-95905000D01*
X82538000Y-95905000D02*
X85710000Y-99077000D01*
D23*
X67655000Y-69595000D02*
X69175000Y-69595000D01*
X67500000Y-69750000D02*
X67655000Y-69595000D01*
X69175000Y-70865000D02*
X67135000Y-70865000D01*
X67135000Y-70865000D02*
X65000000Y-73000000D01*
X70345000Y-77095000D02*
X69175000Y-77095000D01*
X70500000Y-77250000D02*
X70345000Y-77095000D01*
X70115000Y-78365000D02*
X69175000Y-78365000D01*
X71000000Y-79250000D02*
X70115000Y-78365000D01*
X71000000Y-81250000D02*
X71000000Y-79250000D01*
X70500000Y-81750000D02*
X71000000Y-81250000D01*
X69175000Y-84075000D02*
X69175000Y-84595000D01*
X69500000Y-83750000D02*
X69175000Y-84075000D01*
X68750000Y-83000000D02*
X69750000Y-83000000D01*
X70250000Y-85500000D02*
X69885000Y-85865000D01*
X69175000Y-85865000D02*
X69885000Y-85865000D01*
X70250000Y-83500000D02*
X70250000Y-85500000D01*
X69750000Y-83000000D02*
X70250000Y-83500000D01*
X68380000Y-91300000D02*
X69175000Y-92095000D01*
X62500000Y-91300000D02*
X68380000Y-91300000D01*
X62300000Y-91100000D02*
X62500000Y-91300000D01*
X69175000Y-93365000D02*
X66065000Y-93365000D01*
X66065000Y-93365000D02*
X66000000Y-93300000D01*
X66000000Y-93300000D02*
X66065000Y-93365000D01*
X74295000Y-95905000D02*
X72575000Y-95905000D01*
X74300000Y-95900000D02*
X74295000Y-95905000D01*
X74700000Y-94000000D02*
X74300000Y-94000000D01*
X77100000Y-91600000D02*
X74700000Y-94000000D01*
X77100000Y-84700000D02*
X77100000Y-91600000D01*
X77200000Y-84600000D02*
X77100000Y-84700000D01*
X75165000Y-94635000D02*
X72575000Y-94635000D01*
X77800000Y-92000000D02*
X75165000Y-94635000D01*
X77800000Y-84000000D02*
X77800000Y-92000000D01*
X77600000Y-83800000D02*
X77800000Y-84000000D01*
X71305000Y-88405000D02*
X72575000Y-88405000D01*
X71300000Y-88400000D02*
X71305000Y-88405000D01*
X70735000Y-87135000D02*
X72575000Y-87135000D01*
X70700000Y-87100000D02*
X70735000Y-87135000D01*
X71995000Y-80905000D02*
X72825000Y-80905000D01*
X71600000Y-81300000D02*
X71995000Y-80905000D01*
X71665000Y-79635000D02*
X72825000Y-79635000D01*
X71600000Y-79700000D02*
X71665000Y-79635000D01*
X72825000Y-73405000D02*
X74155000Y-73405000D01*
X75000000Y-74250000D02*
X75000000Y-78000000D01*
X74155000Y-73405000D02*
X75000000Y-74250000D01*
X74115000Y-72135000D02*
X72825000Y-72135000D01*
X74250000Y-72000000D02*
X74115000Y-72135000D01*
X71000000Y-102250000D02*
X71000000Y-99290000D01*
X71000000Y-99290000D02*
X70960000Y-99250000D01*
M02*
