G04 #@! TF.FileFunction,Copper,L3,Inr,Plane*
%FSLAX46Y46*%
G04 Gerber Fmt 4.6, Leading zero omitted, Abs format (unit mm)*
G04 Created by KiCad (PCBNEW 4.0.4-stable) date Wednesday, 26 April 2017 'PMt' 10:40:54 PM*
%MOMM*%
%LPD*%
G01*
G04 APERTURE LIST*
%ADD10C,0.100000*%
%ADD11C,5.000000*%
%ADD12R,1.600000X1.600000*%
%ADD13O,1.600000X1.600000*%
%ADD14R,1.850000X1.850000*%
%ADD15C,1.850000*%
%ADD16O,2.999740X1.501140*%
%ADD17C,2.900000*%
%ADD18C,0.400000*%
%ADD19C,0.400000*%
%ADD20C,0.254000*%
G04 APERTURE END LIST*
D10*
D11*
X98750000Y-116750000D03*
X43250000Y-116750000D03*
X43250000Y-62250000D03*
D12*
X73500000Y-99250000D03*
D13*
X68420000Y-106870000D03*
X70960000Y-99250000D03*
X70960000Y-106870000D03*
X68420000Y-99250000D03*
X73500000Y-106870000D03*
D14*
X50250000Y-110000000D03*
D15*
X52750000Y-110000000D03*
X55250000Y-110000000D03*
D16*
X90790000Y-104030000D03*
X85710000Y-104030000D03*
X90790000Y-99077000D03*
X85710000Y-99077000D03*
X90790000Y-93997000D03*
X85710000Y-93997000D03*
X90790000Y-89044000D03*
X85710000Y-89044000D03*
X90790000Y-83964000D03*
X85710000Y-83964000D03*
X90790000Y-79011000D03*
X85710000Y-79011000D03*
X90790000Y-74058000D03*
X85710000Y-74058000D03*
X90790000Y-68978000D03*
X85710000Y-68978000D03*
D14*
X50250000Y-115500000D03*
D15*
X52750000Y-115500000D03*
X55250000Y-115500000D03*
D14*
X50250000Y-62500000D03*
D15*
X52750000Y-62500000D03*
X55250000Y-62500000D03*
D17*
X75380000Y-113500000D03*
X80460000Y-113500000D03*
X85540000Y-113500000D03*
X90620000Y-113500000D03*
D16*
X51260000Y-69420000D03*
X56340000Y-69420000D03*
X51260000Y-74373000D03*
X56340000Y-74373000D03*
X51260000Y-79453000D03*
X56340000Y-79453000D03*
X51260000Y-84406000D03*
X56340000Y-84406000D03*
X51260000Y-89486000D03*
X56340000Y-89486000D03*
X51260000Y-94439000D03*
X56340000Y-94439000D03*
X51260000Y-99392000D03*
X56340000Y-99392000D03*
X51260000Y-104472000D03*
X56340000Y-104472000D03*
D11*
X98750000Y-62250000D03*
D18*
X78900000Y-83400000D03*
X80700000Y-87100000D03*
X76000000Y-86300000D03*
X64200000Y-93400000D03*
X64200000Y-96000000D03*
X64100000Y-85900000D03*
X64200000Y-88500000D03*
X64200000Y-78400000D03*
X64200000Y-80900000D03*
X64300000Y-70900000D03*
X64300000Y-73500000D03*
X76900000Y-94600000D03*
X78900000Y-90900000D03*
X77700000Y-79600000D03*
X77600000Y-77100000D03*
X77500000Y-72200000D03*
X77500000Y-69600000D03*
X65400000Y-84900000D03*
X70500000Y-88000000D03*
X67200000Y-94600000D03*
X71300000Y-77700000D03*
X66800000Y-77900000D03*
X74500000Y-70900000D03*
X67400000Y-72200000D03*
X65400000Y-85800000D03*
X69700000Y-90700000D03*
X76300000Y-87200000D03*
X49000000Y-102500000D03*
X48000000Y-100500000D03*
X67500000Y-69750000D03*
X65000000Y-73000000D03*
X70500000Y-77250000D03*
X70500000Y-81750000D03*
X69500000Y-83750000D03*
X68750000Y-83000000D03*
X62300000Y-91100000D03*
X66000000Y-93300000D03*
X74300000Y-95900000D03*
X74300000Y-94000000D03*
X77200000Y-84600000D03*
X77600000Y-83800000D03*
X71300000Y-88400000D03*
X70700000Y-87100000D03*
X71600000Y-81300000D03*
X71600000Y-79700000D03*
X75000000Y-78000000D03*
X74250000Y-72000000D03*
D19*
X65400000Y-85800000D02*
X65500000Y-85800000D01*
D20*
G36*
X48786673Y-61215301D02*
X48690000Y-61448690D01*
X48690000Y-62214250D01*
X48848750Y-62373000D01*
X50123000Y-62373000D01*
X50123000Y-62353000D01*
X50377000Y-62353000D01*
X50377000Y-62373000D01*
X50397000Y-62373000D01*
X50397000Y-62627000D01*
X50377000Y-62627000D01*
X50377000Y-63901250D01*
X50535750Y-64060000D01*
X51301309Y-64060000D01*
X51534698Y-63963327D01*
X51713327Y-63784699D01*
X51747017Y-63703365D01*
X51865177Y-63821732D01*
X52438336Y-64059728D01*
X53058942Y-64060270D01*
X53632514Y-63823275D01*
X54000256Y-63456174D01*
X54365177Y-63821732D01*
X54938336Y-64059728D01*
X55558942Y-64060270D01*
X56132514Y-63823275D01*
X56571732Y-63384823D01*
X56809728Y-62811664D01*
X56810270Y-62191058D01*
X56573275Y-61617486D01*
X56134823Y-61178268D01*
X56011356Y-61127000D01*
X93623000Y-61127000D01*
X93623000Y-117623000D01*
X47627000Y-117623000D01*
X47627000Y-115785750D01*
X48690000Y-115785750D01*
X48690000Y-116551310D01*
X48786673Y-116784699D01*
X48965302Y-116963327D01*
X49198691Y-117060000D01*
X49964250Y-117060000D01*
X50123000Y-116901250D01*
X50123000Y-115627000D01*
X48848750Y-115627000D01*
X48690000Y-115785750D01*
X47627000Y-115785750D01*
X47627000Y-114448690D01*
X48690000Y-114448690D01*
X48690000Y-115214250D01*
X48848750Y-115373000D01*
X50123000Y-115373000D01*
X50123000Y-114098750D01*
X50377000Y-114098750D01*
X50377000Y-115373000D01*
X50397000Y-115373000D01*
X50397000Y-115627000D01*
X50377000Y-115627000D01*
X50377000Y-116901250D01*
X50535750Y-117060000D01*
X51301309Y-117060000D01*
X51534698Y-116963327D01*
X51713327Y-116784699D01*
X51747017Y-116703365D01*
X51865177Y-116821732D01*
X52438336Y-117059728D01*
X53058942Y-117060270D01*
X53632514Y-116823275D01*
X54000256Y-116456174D01*
X54365177Y-116821732D01*
X54938336Y-117059728D01*
X55558942Y-117060270D01*
X56132514Y-116823275D01*
X56571732Y-116384823D01*
X56809728Y-115811664D01*
X56810270Y-115191058D01*
X56573275Y-114617486D01*
X56134823Y-114178268D01*
X55561664Y-113940272D01*
X54941058Y-113939730D01*
X54367486Y-114176725D01*
X53999744Y-114543826D01*
X53634823Y-114178268D01*
X53061664Y-113940272D01*
X52441058Y-113939730D01*
X51867486Y-114176725D01*
X51747119Y-114296882D01*
X51713327Y-114215301D01*
X51534698Y-114036673D01*
X51301309Y-113940000D01*
X50535750Y-113940000D01*
X50377000Y-114098750D01*
X50123000Y-114098750D01*
X49964250Y-113940000D01*
X49198691Y-113940000D01*
X48965302Y-114036673D01*
X48786673Y-114215301D01*
X48690000Y-114448690D01*
X47627000Y-114448690D01*
X47627000Y-113912913D01*
X73294638Y-113912913D01*
X73611392Y-114679515D01*
X74197400Y-115266547D01*
X74963448Y-115584638D01*
X75792913Y-115585362D01*
X76559515Y-115268608D01*
X76850782Y-114977849D01*
X79161756Y-114977849D01*
X79315435Y-115291424D01*
X80088108Y-115593066D01*
X80917398Y-115576058D01*
X81604565Y-115291424D01*
X81758244Y-114977849D01*
X84241756Y-114977849D01*
X84395435Y-115291424D01*
X85168108Y-115593066D01*
X85997398Y-115576058D01*
X86684565Y-115291424D01*
X86838244Y-114977849D01*
X85540000Y-113679605D01*
X84241756Y-114977849D01*
X81758244Y-114977849D01*
X80460000Y-113679605D01*
X79161756Y-114977849D01*
X76850782Y-114977849D01*
X77146547Y-114682600D01*
X77464638Y-113916552D01*
X77465326Y-113128108D01*
X78366934Y-113128108D01*
X78383942Y-113957398D01*
X78668576Y-114644565D01*
X78982151Y-114798244D01*
X80280395Y-113500000D01*
X80639605Y-113500000D01*
X81937849Y-114798244D01*
X82251424Y-114644565D01*
X82553066Y-113871892D01*
X82537812Y-113128108D01*
X83446934Y-113128108D01*
X83463942Y-113957398D01*
X83748576Y-114644565D01*
X84062151Y-114798244D01*
X85360395Y-113500000D01*
X85719605Y-113500000D01*
X87017849Y-114798244D01*
X87331424Y-114644565D01*
X87617051Y-113912913D01*
X88534638Y-113912913D01*
X88851392Y-114679515D01*
X89437400Y-115266547D01*
X90203448Y-115584638D01*
X91032913Y-115585362D01*
X91799515Y-115268608D01*
X92386547Y-114682600D01*
X92704638Y-113916552D01*
X92705362Y-113087087D01*
X92388608Y-112320485D01*
X91802600Y-111733453D01*
X91036552Y-111415362D01*
X90207087Y-111414638D01*
X89440485Y-111731392D01*
X88853453Y-112317400D01*
X88535362Y-113083448D01*
X88534638Y-113912913D01*
X87617051Y-113912913D01*
X87633066Y-113871892D01*
X87616058Y-113042602D01*
X87331424Y-112355435D01*
X87017849Y-112201756D01*
X85719605Y-113500000D01*
X85360395Y-113500000D01*
X84062151Y-112201756D01*
X83748576Y-112355435D01*
X83446934Y-113128108D01*
X82537812Y-113128108D01*
X82536058Y-113042602D01*
X82251424Y-112355435D01*
X81937849Y-112201756D01*
X80639605Y-113500000D01*
X80280395Y-113500000D01*
X78982151Y-112201756D01*
X78668576Y-112355435D01*
X78366934Y-113128108D01*
X77465326Y-113128108D01*
X77465362Y-113087087D01*
X77148608Y-112320485D01*
X76850795Y-112022151D01*
X79161756Y-112022151D01*
X80460000Y-113320395D01*
X81758244Y-112022151D01*
X84241756Y-112022151D01*
X85540000Y-113320395D01*
X86838244Y-112022151D01*
X86684565Y-111708576D01*
X85911892Y-111406934D01*
X85082602Y-111423942D01*
X84395435Y-111708576D01*
X84241756Y-112022151D01*
X81758244Y-112022151D01*
X81604565Y-111708576D01*
X80831892Y-111406934D01*
X80002602Y-111423942D01*
X79315435Y-111708576D01*
X79161756Y-112022151D01*
X76850795Y-112022151D01*
X76562600Y-111733453D01*
X75796552Y-111415362D01*
X74967087Y-111414638D01*
X74200485Y-111731392D01*
X73613453Y-112317400D01*
X73295362Y-113083448D01*
X73294638Y-113912913D01*
X47627000Y-113912913D01*
X47627000Y-110285750D01*
X48690000Y-110285750D01*
X48690000Y-111051310D01*
X48786673Y-111284699D01*
X48965302Y-111463327D01*
X49198691Y-111560000D01*
X49964250Y-111560000D01*
X50123000Y-111401250D01*
X50123000Y-110127000D01*
X48848750Y-110127000D01*
X48690000Y-110285750D01*
X47627000Y-110285750D01*
X47627000Y-108948690D01*
X48690000Y-108948690D01*
X48690000Y-109714250D01*
X48848750Y-109873000D01*
X50123000Y-109873000D01*
X50123000Y-108598750D01*
X50377000Y-108598750D01*
X50377000Y-109873000D01*
X50397000Y-109873000D01*
X50397000Y-110127000D01*
X50377000Y-110127000D01*
X50377000Y-111401250D01*
X50535750Y-111560000D01*
X51301309Y-111560000D01*
X51534698Y-111463327D01*
X51713327Y-111284699D01*
X51747017Y-111203365D01*
X51865177Y-111321732D01*
X52438336Y-111559728D01*
X53058942Y-111560270D01*
X53632514Y-111323275D01*
X54000256Y-110956174D01*
X54365177Y-111321732D01*
X54938336Y-111559728D01*
X55558942Y-111560270D01*
X56132514Y-111323275D01*
X56571732Y-110884823D01*
X56809728Y-110311664D01*
X56810270Y-109691058D01*
X56573275Y-109117486D01*
X56134823Y-108678268D01*
X55561664Y-108440272D01*
X54941058Y-108439730D01*
X54367486Y-108676725D01*
X53999744Y-109043826D01*
X53634823Y-108678268D01*
X53061664Y-108440272D01*
X52441058Y-108439730D01*
X51867486Y-108676725D01*
X51747119Y-108796882D01*
X51713327Y-108715301D01*
X51534698Y-108536673D01*
X51301309Y-108440000D01*
X50535750Y-108440000D01*
X50377000Y-108598750D01*
X50123000Y-108598750D01*
X49964250Y-108440000D01*
X49198691Y-108440000D01*
X48965302Y-108536673D01*
X48786673Y-108715301D01*
X48690000Y-108948690D01*
X47627000Y-108948690D01*
X47627000Y-107219041D01*
X67028086Y-107219041D01*
X67267611Y-107725134D01*
X67682577Y-108101041D01*
X68070961Y-108261904D01*
X68293000Y-108139915D01*
X68293000Y-106997000D01*
X68547000Y-106997000D01*
X68547000Y-108139915D01*
X68769039Y-108261904D01*
X69157423Y-108101041D01*
X69572389Y-107725134D01*
X69690000Y-107476633D01*
X69807611Y-107725134D01*
X70222577Y-108101041D01*
X70610961Y-108261904D01*
X70833000Y-108139915D01*
X70833000Y-106997000D01*
X71087000Y-106997000D01*
X71087000Y-108139915D01*
X71309039Y-108261904D01*
X71697423Y-108101041D01*
X72112389Y-107725134D01*
X72230000Y-107476633D01*
X72347611Y-107725134D01*
X72762577Y-108101041D01*
X73150961Y-108261904D01*
X73373000Y-108139915D01*
X73373000Y-106997000D01*
X73627000Y-106997000D01*
X73627000Y-108139915D01*
X73849039Y-108261904D01*
X74237423Y-108101041D01*
X74652389Y-107725134D01*
X74891914Y-107219041D01*
X74770629Y-106997000D01*
X73627000Y-106997000D01*
X73373000Y-106997000D01*
X71087000Y-106997000D01*
X70833000Y-106997000D01*
X68547000Y-106997000D01*
X68293000Y-106997000D01*
X67149371Y-106997000D01*
X67028086Y-107219041D01*
X47627000Y-107219041D01*
X47627000Y-106520959D01*
X67028086Y-106520959D01*
X67149371Y-106743000D01*
X68293000Y-106743000D01*
X68293000Y-105600085D01*
X68547000Y-105600085D01*
X68547000Y-106743000D01*
X70833000Y-106743000D01*
X70833000Y-105600085D01*
X71087000Y-105600085D01*
X71087000Y-106743000D01*
X73373000Y-106743000D01*
X73373000Y-105600085D01*
X73627000Y-105600085D01*
X73627000Y-106743000D01*
X74770629Y-106743000D01*
X74891914Y-106520959D01*
X74652389Y-106014866D01*
X74237423Y-105638959D01*
X73849039Y-105478096D01*
X73627000Y-105600085D01*
X73373000Y-105600085D01*
X73150961Y-105478096D01*
X72762577Y-105638959D01*
X72347611Y-106014866D01*
X72230000Y-106263367D01*
X72112389Y-106014866D01*
X71697423Y-105638959D01*
X71309039Y-105478096D01*
X71087000Y-105600085D01*
X70833000Y-105600085D01*
X70610961Y-105478096D01*
X70222577Y-105638959D01*
X69807611Y-106014866D01*
X69690000Y-106263367D01*
X69572389Y-106014866D01*
X69157423Y-105638959D01*
X68769039Y-105478096D01*
X68547000Y-105600085D01*
X68293000Y-105600085D01*
X68070961Y-105478096D01*
X67682577Y-105638959D01*
X67267611Y-106014866D01*
X67028086Y-106520959D01*
X47627000Y-106520959D01*
X47627000Y-104472000D01*
X49083305Y-104472000D01*
X49188775Y-105002235D01*
X49489129Y-105451746D01*
X49938640Y-105752100D01*
X50468875Y-105857570D01*
X52051125Y-105857570D01*
X52581360Y-105752100D01*
X53030871Y-105451746D01*
X53331225Y-105002235D01*
X53436695Y-104472000D01*
X54163305Y-104472000D01*
X54268775Y-105002235D01*
X54569129Y-105451746D01*
X55018640Y-105752100D01*
X55548875Y-105857570D01*
X57131125Y-105857570D01*
X57661360Y-105752100D01*
X58110871Y-105451746D01*
X58411225Y-105002235D01*
X58516695Y-104472000D01*
X58496660Y-104371275D01*
X83617817Y-104371275D01*
X83632000Y-104442903D01*
X83891152Y-104919944D01*
X84313133Y-105261499D01*
X84833700Y-105415570D01*
X85583000Y-105415570D01*
X85583000Y-104157000D01*
X85837000Y-104157000D01*
X85837000Y-105415570D01*
X86586300Y-105415570D01*
X87106867Y-105261499D01*
X87528848Y-104919944D01*
X87788000Y-104442903D01*
X87802183Y-104371275D01*
X88697817Y-104371275D01*
X88712000Y-104442903D01*
X88971152Y-104919944D01*
X89393133Y-105261499D01*
X89913700Y-105415570D01*
X90663000Y-105415570D01*
X90663000Y-104157000D01*
X90917000Y-104157000D01*
X90917000Y-105415570D01*
X91666300Y-105415570D01*
X92186867Y-105261499D01*
X92608848Y-104919944D01*
X92868000Y-104442903D01*
X92882183Y-104371275D01*
X92759529Y-104157000D01*
X90917000Y-104157000D01*
X90663000Y-104157000D01*
X88820471Y-104157000D01*
X88697817Y-104371275D01*
X87802183Y-104371275D01*
X87679529Y-104157000D01*
X85837000Y-104157000D01*
X85583000Y-104157000D01*
X83740471Y-104157000D01*
X83617817Y-104371275D01*
X58496660Y-104371275D01*
X58411225Y-103941765D01*
X58242149Y-103688725D01*
X83617817Y-103688725D01*
X83740471Y-103903000D01*
X85583000Y-103903000D01*
X85583000Y-102644430D01*
X85837000Y-102644430D01*
X85837000Y-103903000D01*
X87679529Y-103903000D01*
X87802183Y-103688725D01*
X88697817Y-103688725D01*
X88820471Y-103903000D01*
X90663000Y-103903000D01*
X90663000Y-102644430D01*
X90917000Y-102644430D01*
X90917000Y-103903000D01*
X92759529Y-103903000D01*
X92882183Y-103688725D01*
X92868000Y-103617097D01*
X92608848Y-103140056D01*
X92186867Y-102798501D01*
X91666300Y-102644430D01*
X90917000Y-102644430D01*
X90663000Y-102644430D01*
X89913700Y-102644430D01*
X89393133Y-102798501D01*
X88971152Y-103140056D01*
X88712000Y-103617097D01*
X88697817Y-103688725D01*
X87802183Y-103688725D01*
X87788000Y-103617097D01*
X87528848Y-103140056D01*
X87106867Y-102798501D01*
X86586300Y-102644430D01*
X85837000Y-102644430D01*
X85583000Y-102644430D01*
X84833700Y-102644430D01*
X84313133Y-102798501D01*
X83891152Y-103140056D01*
X83632000Y-103617097D01*
X83617817Y-103688725D01*
X58242149Y-103688725D01*
X58110871Y-103492254D01*
X57661360Y-103191900D01*
X57131125Y-103086430D01*
X55548875Y-103086430D01*
X55018640Y-103191900D01*
X54569129Y-103492254D01*
X54268775Y-103941765D01*
X54163305Y-104472000D01*
X53436695Y-104472000D01*
X53331225Y-103941765D01*
X53030871Y-103492254D01*
X52581360Y-103191900D01*
X52051125Y-103086430D01*
X50468875Y-103086430D01*
X49938640Y-103191900D01*
X49489129Y-103492254D01*
X49188775Y-103941765D01*
X49083305Y-104472000D01*
X47627000Y-104472000D01*
X47627000Y-102665363D01*
X48164855Y-102665363D01*
X48291708Y-102972372D01*
X48526393Y-103207466D01*
X48833179Y-103334855D01*
X49165363Y-103335145D01*
X49472372Y-103208292D01*
X49707466Y-102973607D01*
X49834855Y-102666821D01*
X49835145Y-102334637D01*
X49708292Y-102027628D01*
X49473607Y-101792534D01*
X49166821Y-101665145D01*
X48834637Y-101664855D01*
X48527628Y-101791708D01*
X48292534Y-102026393D01*
X48165145Y-102333179D01*
X48164855Y-102665363D01*
X47627000Y-102665363D01*
X47627000Y-101249242D01*
X47833179Y-101334855D01*
X48165363Y-101335145D01*
X48472372Y-101208292D01*
X48707466Y-100973607D01*
X48834855Y-100666821D01*
X48835145Y-100334637D01*
X48708292Y-100027628D01*
X48473607Y-99792534D01*
X48330896Y-99733275D01*
X49167817Y-99733275D01*
X49182000Y-99804903D01*
X49441152Y-100281944D01*
X49863133Y-100623499D01*
X50383700Y-100777570D01*
X51133000Y-100777570D01*
X51133000Y-99519000D01*
X51387000Y-99519000D01*
X51387000Y-100777570D01*
X52136300Y-100777570D01*
X52656867Y-100623499D01*
X53078848Y-100281944D01*
X53338000Y-99804903D01*
X53352183Y-99733275D01*
X54247817Y-99733275D01*
X54262000Y-99804903D01*
X54521152Y-100281944D01*
X54943133Y-100623499D01*
X55463700Y-100777570D01*
X56213000Y-100777570D01*
X56213000Y-99519000D01*
X56467000Y-99519000D01*
X56467000Y-100777570D01*
X57216300Y-100777570D01*
X57736867Y-100623499D01*
X58158848Y-100281944D01*
X58418000Y-99804903D01*
X58432183Y-99733275D01*
X58309529Y-99519000D01*
X56467000Y-99519000D01*
X56213000Y-99519000D01*
X54370471Y-99519000D01*
X54247817Y-99733275D01*
X53352183Y-99733275D01*
X53229529Y-99519000D01*
X51387000Y-99519000D01*
X51133000Y-99519000D01*
X49290471Y-99519000D01*
X49167817Y-99733275D01*
X48330896Y-99733275D01*
X48166821Y-99665145D01*
X47834637Y-99664855D01*
X47627000Y-99750648D01*
X47627000Y-99050725D01*
X49167817Y-99050725D01*
X49290471Y-99265000D01*
X51133000Y-99265000D01*
X51133000Y-98006430D01*
X51387000Y-98006430D01*
X51387000Y-99265000D01*
X53229529Y-99265000D01*
X53352183Y-99050725D01*
X54247817Y-99050725D01*
X54370471Y-99265000D01*
X56213000Y-99265000D01*
X56213000Y-98006430D01*
X56467000Y-98006430D01*
X56467000Y-99265000D01*
X58309529Y-99265000D01*
X58334207Y-99221887D01*
X66985000Y-99221887D01*
X66985000Y-99278113D01*
X67094233Y-99827264D01*
X67405302Y-100292811D01*
X67870849Y-100603880D01*
X68420000Y-100713113D01*
X68969151Y-100603880D01*
X69434698Y-100292811D01*
X69690000Y-99910725D01*
X69945302Y-100292811D01*
X70410849Y-100603880D01*
X70960000Y-100713113D01*
X71509151Y-100603880D01*
X71974698Y-100292811D01*
X72071101Y-100148535D01*
X72096838Y-100285317D01*
X72235910Y-100501441D01*
X72448110Y-100646431D01*
X72700000Y-100697440D01*
X74300000Y-100697440D01*
X74535317Y-100653162D01*
X74751441Y-100514090D01*
X74896431Y-100301890D01*
X74947440Y-100050000D01*
X74947440Y-99077000D01*
X83533305Y-99077000D01*
X83638775Y-99607235D01*
X83939129Y-100056746D01*
X84388640Y-100357100D01*
X84918875Y-100462570D01*
X86501125Y-100462570D01*
X87031360Y-100357100D01*
X87480871Y-100056746D01*
X87781225Y-99607235D01*
X87886695Y-99077000D01*
X88613305Y-99077000D01*
X88718775Y-99607235D01*
X89019129Y-100056746D01*
X89468640Y-100357100D01*
X89998875Y-100462570D01*
X91581125Y-100462570D01*
X92111360Y-100357100D01*
X92560871Y-100056746D01*
X92861225Y-99607235D01*
X92966695Y-99077000D01*
X92861225Y-98546765D01*
X92560871Y-98097254D01*
X92111360Y-97796900D01*
X91581125Y-97691430D01*
X89998875Y-97691430D01*
X89468640Y-97796900D01*
X89019129Y-98097254D01*
X88718775Y-98546765D01*
X88613305Y-99077000D01*
X87886695Y-99077000D01*
X87781225Y-98546765D01*
X87480871Y-98097254D01*
X87031360Y-97796900D01*
X86501125Y-97691430D01*
X84918875Y-97691430D01*
X84388640Y-97796900D01*
X83939129Y-98097254D01*
X83638775Y-98546765D01*
X83533305Y-99077000D01*
X74947440Y-99077000D01*
X74947440Y-98450000D01*
X74903162Y-98214683D01*
X74764090Y-97998559D01*
X74551890Y-97853569D01*
X74300000Y-97802560D01*
X72700000Y-97802560D01*
X72464683Y-97846838D01*
X72248559Y-97985910D01*
X72103569Y-98198110D01*
X72072185Y-98353089D01*
X71974698Y-98207189D01*
X71509151Y-97896120D01*
X70960000Y-97786887D01*
X70410849Y-97896120D01*
X69945302Y-98207189D01*
X69690000Y-98589275D01*
X69434698Y-98207189D01*
X68969151Y-97896120D01*
X68420000Y-97786887D01*
X67870849Y-97896120D01*
X67405302Y-98207189D01*
X67094233Y-98672736D01*
X66985000Y-99221887D01*
X58334207Y-99221887D01*
X58432183Y-99050725D01*
X58418000Y-98979097D01*
X58158848Y-98502056D01*
X57736867Y-98160501D01*
X57216300Y-98006430D01*
X56467000Y-98006430D01*
X56213000Y-98006430D01*
X55463700Y-98006430D01*
X54943133Y-98160501D01*
X54521152Y-98502056D01*
X54262000Y-98979097D01*
X54247817Y-99050725D01*
X53352183Y-99050725D01*
X53338000Y-98979097D01*
X53078848Y-98502056D01*
X52656867Y-98160501D01*
X52136300Y-98006430D01*
X51387000Y-98006430D01*
X51133000Y-98006430D01*
X50383700Y-98006430D01*
X49863133Y-98160501D01*
X49441152Y-98502056D01*
X49182000Y-98979097D01*
X49167817Y-99050725D01*
X47627000Y-99050725D01*
X47627000Y-96165363D01*
X63364855Y-96165363D01*
X63491708Y-96472372D01*
X63726393Y-96707466D01*
X64033179Y-96834855D01*
X64365363Y-96835145D01*
X64672372Y-96708292D01*
X64907466Y-96473607D01*
X65034855Y-96166821D01*
X65034943Y-96065363D01*
X73464855Y-96065363D01*
X73591708Y-96372372D01*
X73826393Y-96607466D01*
X74133179Y-96734855D01*
X74465363Y-96735145D01*
X74772372Y-96608292D01*
X75007466Y-96373607D01*
X75134855Y-96066821D01*
X75135145Y-95734637D01*
X75008292Y-95427628D01*
X74773607Y-95192534D01*
X74466821Y-95065145D01*
X74134637Y-95064855D01*
X73827628Y-95191708D01*
X73592534Y-95426393D01*
X73465145Y-95733179D01*
X73464855Y-96065363D01*
X65034943Y-96065363D01*
X65035145Y-95834637D01*
X64908292Y-95527628D01*
X64673607Y-95292534D01*
X64366821Y-95165145D01*
X64034637Y-95164855D01*
X63727628Y-95291708D01*
X63492534Y-95526393D01*
X63365145Y-95833179D01*
X63364855Y-96165363D01*
X47627000Y-96165363D01*
X47627000Y-94439000D01*
X49083305Y-94439000D01*
X49188775Y-94969235D01*
X49489129Y-95418746D01*
X49938640Y-95719100D01*
X50468875Y-95824570D01*
X52051125Y-95824570D01*
X52581360Y-95719100D01*
X53030871Y-95418746D01*
X53331225Y-94969235D01*
X53436695Y-94439000D01*
X54163305Y-94439000D01*
X54268775Y-94969235D01*
X54569129Y-95418746D01*
X55018640Y-95719100D01*
X55548875Y-95824570D01*
X57131125Y-95824570D01*
X57661360Y-95719100D01*
X58110871Y-95418746D01*
X58411225Y-94969235D01*
X58516695Y-94439000D01*
X58411225Y-93908765D01*
X58181771Y-93565363D01*
X63364855Y-93565363D01*
X63491708Y-93872372D01*
X63726393Y-94107466D01*
X64033179Y-94234855D01*
X64365363Y-94235145D01*
X64534249Y-94165363D01*
X73464855Y-94165363D01*
X73591708Y-94472372D01*
X73826393Y-94707466D01*
X74133179Y-94834855D01*
X74465363Y-94835145D01*
X74634249Y-94765363D01*
X76064855Y-94765363D01*
X76191708Y-95072372D01*
X76426393Y-95307466D01*
X76733179Y-95434855D01*
X77065363Y-95435145D01*
X77372372Y-95308292D01*
X77607466Y-95073607D01*
X77734855Y-94766821D01*
X77735145Y-94434637D01*
X77695330Y-94338275D01*
X83617817Y-94338275D01*
X83632000Y-94409903D01*
X83891152Y-94886944D01*
X84313133Y-95228499D01*
X84833700Y-95382570D01*
X85583000Y-95382570D01*
X85583000Y-94124000D01*
X85837000Y-94124000D01*
X85837000Y-95382570D01*
X86586300Y-95382570D01*
X87106867Y-95228499D01*
X87528848Y-94886944D01*
X87788000Y-94409903D01*
X87802183Y-94338275D01*
X88697817Y-94338275D01*
X88712000Y-94409903D01*
X88971152Y-94886944D01*
X89393133Y-95228499D01*
X89913700Y-95382570D01*
X90663000Y-95382570D01*
X90663000Y-94124000D01*
X90917000Y-94124000D01*
X90917000Y-95382570D01*
X91666300Y-95382570D01*
X92186867Y-95228499D01*
X92608848Y-94886944D01*
X92868000Y-94409903D01*
X92882183Y-94338275D01*
X92759529Y-94124000D01*
X90917000Y-94124000D01*
X90663000Y-94124000D01*
X88820471Y-94124000D01*
X88697817Y-94338275D01*
X87802183Y-94338275D01*
X87679529Y-94124000D01*
X85837000Y-94124000D01*
X85583000Y-94124000D01*
X83740471Y-94124000D01*
X83617817Y-94338275D01*
X77695330Y-94338275D01*
X77608292Y-94127628D01*
X77373607Y-93892534D01*
X77066821Y-93765145D01*
X76734637Y-93764855D01*
X76427628Y-93891708D01*
X76192534Y-94126393D01*
X76065145Y-94433179D01*
X76064855Y-94765363D01*
X74634249Y-94765363D01*
X74772372Y-94708292D01*
X75007466Y-94473607D01*
X75134855Y-94166821D01*
X75135145Y-93834637D01*
X75061221Y-93655725D01*
X83617817Y-93655725D01*
X83740471Y-93870000D01*
X85583000Y-93870000D01*
X85583000Y-92611430D01*
X85837000Y-92611430D01*
X85837000Y-93870000D01*
X87679529Y-93870000D01*
X87802183Y-93655725D01*
X88697817Y-93655725D01*
X88820471Y-93870000D01*
X90663000Y-93870000D01*
X90663000Y-92611430D01*
X90917000Y-92611430D01*
X90917000Y-93870000D01*
X92759529Y-93870000D01*
X92882183Y-93655725D01*
X92868000Y-93584097D01*
X92608848Y-93107056D01*
X92186867Y-92765501D01*
X91666300Y-92611430D01*
X90917000Y-92611430D01*
X90663000Y-92611430D01*
X89913700Y-92611430D01*
X89393133Y-92765501D01*
X88971152Y-93107056D01*
X88712000Y-93584097D01*
X88697817Y-93655725D01*
X87802183Y-93655725D01*
X87788000Y-93584097D01*
X87528848Y-93107056D01*
X87106867Y-92765501D01*
X86586300Y-92611430D01*
X85837000Y-92611430D01*
X85583000Y-92611430D01*
X84833700Y-92611430D01*
X84313133Y-92765501D01*
X83891152Y-93107056D01*
X83632000Y-93584097D01*
X83617817Y-93655725D01*
X75061221Y-93655725D01*
X75008292Y-93527628D01*
X74773607Y-93292534D01*
X74466821Y-93165145D01*
X74134637Y-93164855D01*
X73827628Y-93291708D01*
X73592534Y-93526393D01*
X73465145Y-93833179D01*
X73464855Y-94165363D01*
X64534249Y-94165363D01*
X64672372Y-94108292D01*
X64907466Y-93873607D01*
X65034855Y-93566821D01*
X65034943Y-93465363D01*
X65164855Y-93465363D01*
X65291708Y-93772372D01*
X65526393Y-94007466D01*
X65833179Y-94134855D01*
X66165363Y-94135145D01*
X66472372Y-94008292D01*
X66707466Y-93773607D01*
X66834855Y-93466821D01*
X66835145Y-93134637D01*
X66708292Y-92827628D01*
X66473607Y-92592534D01*
X66166821Y-92465145D01*
X65834637Y-92464855D01*
X65527628Y-92591708D01*
X65292534Y-92826393D01*
X65165145Y-93133179D01*
X65164855Y-93465363D01*
X65034943Y-93465363D01*
X65035145Y-93234637D01*
X64908292Y-92927628D01*
X64673607Y-92692534D01*
X64366821Y-92565145D01*
X64034637Y-92564855D01*
X63727628Y-92691708D01*
X63492534Y-92926393D01*
X63365145Y-93233179D01*
X63364855Y-93565363D01*
X58181771Y-93565363D01*
X58110871Y-93459254D01*
X57661360Y-93158900D01*
X57131125Y-93053430D01*
X55548875Y-93053430D01*
X55018640Y-93158900D01*
X54569129Y-93459254D01*
X54268775Y-93908765D01*
X54163305Y-94439000D01*
X53436695Y-94439000D01*
X53331225Y-93908765D01*
X53030871Y-93459254D01*
X52581360Y-93158900D01*
X52051125Y-93053430D01*
X50468875Y-93053430D01*
X49938640Y-93158900D01*
X49489129Y-93459254D01*
X49188775Y-93908765D01*
X49083305Y-94439000D01*
X47627000Y-94439000D01*
X47627000Y-91265363D01*
X61464855Y-91265363D01*
X61591708Y-91572372D01*
X61826393Y-91807466D01*
X62133179Y-91934855D01*
X62465363Y-91935145D01*
X62772372Y-91808292D01*
X63007466Y-91573607D01*
X63134855Y-91266821D01*
X63135145Y-90934637D01*
X63106522Y-90865363D01*
X68864855Y-90865363D01*
X68991708Y-91172372D01*
X69226393Y-91407466D01*
X69533179Y-91534855D01*
X69865363Y-91535145D01*
X70172372Y-91408292D01*
X70407466Y-91173607D01*
X70452412Y-91065363D01*
X78064855Y-91065363D01*
X78191708Y-91372372D01*
X78426393Y-91607466D01*
X78733179Y-91734855D01*
X79065363Y-91735145D01*
X79372372Y-91608292D01*
X79607466Y-91373607D01*
X79734855Y-91066821D01*
X79735145Y-90734637D01*
X79608292Y-90427628D01*
X79373607Y-90192534D01*
X79066821Y-90065145D01*
X78734637Y-90064855D01*
X78427628Y-90191708D01*
X78192534Y-90426393D01*
X78065145Y-90733179D01*
X78064855Y-91065363D01*
X70452412Y-91065363D01*
X70534855Y-90866821D01*
X70535145Y-90534637D01*
X70408292Y-90227628D01*
X70173607Y-89992534D01*
X69866821Y-89865145D01*
X69534637Y-89864855D01*
X69227628Y-89991708D01*
X68992534Y-90226393D01*
X68865145Y-90533179D01*
X68864855Y-90865363D01*
X63106522Y-90865363D01*
X63008292Y-90627628D01*
X62773607Y-90392534D01*
X62466821Y-90265145D01*
X62134637Y-90264855D01*
X61827628Y-90391708D01*
X61592534Y-90626393D01*
X61465145Y-90933179D01*
X61464855Y-91265363D01*
X47627000Y-91265363D01*
X47627000Y-89827275D01*
X49167817Y-89827275D01*
X49182000Y-89898903D01*
X49441152Y-90375944D01*
X49863133Y-90717499D01*
X50383700Y-90871570D01*
X51133000Y-90871570D01*
X51133000Y-89613000D01*
X51387000Y-89613000D01*
X51387000Y-90871570D01*
X52136300Y-90871570D01*
X52656867Y-90717499D01*
X53078848Y-90375944D01*
X53338000Y-89898903D01*
X53352183Y-89827275D01*
X54247817Y-89827275D01*
X54262000Y-89898903D01*
X54521152Y-90375944D01*
X54943133Y-90717499D01*
X55463700Y-90871570D01*
X56213000Y-90871570D01*
X56213000Y-89613000D01*
X56467000Y-89613000D01*
X56467000Y-90871570D01*
X57216300Y-90871570D01*
X57736867Y-90717499D01*
X58158848Y-90375944D01*
X58418000Y-89898903D01*
X58432183Y-89827275D01*
X58309529Y-89613000D01*
X56467000Y-89613000D01*
X56213000Y-89613000D01*
X54370471Y-89613000D01*
X54247817Y-89827275D01*
X53352183Y-89827275D01*
X53229529Y-89613000D01*
X51387000Y-89613000D01*
X51133000Y-89613000D01*
X49290471Y-89613000D01*
X49167817Y-89827275D01*
X47627000Y-89827275D01*
X47627000Y-89144725D01*
X49167817Y-89144725D01*
X49290471Y-89359000D01*
X51133000Y-89359000D01*
X51133000Y-88100430D01*
X51387000Y-88100430D01*
X51387000Y-89359000D01*
X53229529Y-89359000D01*
X53352183Y-89144725D01*
X54247817Y-89144725D01*
X54370471Y-89359000D01*
X56213000Y-89359000D01*
X56213000Y-88100430D01*
X56467000Y-88100430D01*
X56467000Y-89359000D01*
X58309529Y-89359000D01*
X58432183Y-89144725D01*
X58418000Y-89073097D01*
X58196499Y-88665363D01*
X63364855Y-88665363D01*
X63491708Y-88972372D01*
X63726393Y-89207466D01*
X64033179Y-89334855D01*
X64365363Y-89335145D01*
X64672372Y-89208292D01*
X64907466Y-88973607D01*
X65034855Y-88666821D01*
X65035145Y-88334637D01*
X64908292Y-88027628D01*
X64673607Y-87792534D01*
X64366821Y-87665145D01*
X64034637Y-87664855D01*
X63727628Y-87791708D01*
X63492534Y-88026393D01*
X63365145Y-88333179D01*
X63364855Y-88665363D01*
X58196499Y-88665363D01*
X58158848Y-88596056D01*
X57736867Y-88254501D01*
X57216300Y-88100430D01*
X56467000Y-88100430D01*
X56213000Y-88100430D01*
X55463700Y-88100430D01*
X54943133Y-88254501D01*
X54521152Y-88596056D01*
X54262000Y-89073097D01*
X54247817Y-89144725D01*
X53352183Y-89144725D01*
X53338000Y-89073097D01*
X53078848Y-88596056D01*
X52656867Y-88254501D01*
X52136300Y-88100430D01*
X51387000Y-88100430D01*
X51133000Y-88100430D01*
X50383700Y-88100430D01*
X49863133Y-88254501D01*
X49441152Y-88596056D01*
X49182000Y-89073097D01*
X49167817Y-89144725D01*
X47627000Y-89144725D01*
X47627000Y-87265363D01*
X69864855Y-87265363D01*
X69991708Y-87572372D01*
X70226393Y-87807466D01*
X70533179Y-87934855D01*
X70589000Y-87934904D01*
X70465145Y-88233179D01*
X70464855Y-88565363D01*
X70591708Y-88872372D01*
X70826393Y-89107466D01*
X71133179Y-89234855D01*
X71465363Y-89235145D01*
X71772372Y-89108292D01*
X71836776Y-89044000D01*
X83533305Y-89044000D01*
X83638775Y-89574235D01*
X83939129Y-90023746D01*
X84388640Y-90324100D01*
X84918875Y-90429570D01*
X86501125Y-90429570D01*
X87031360Y-90324100D01*
X87480871Y-90023746D01*
X87781225Y-89574235D01*
X87886695Y-89044000D01*
X88613305Y-89044000D01*
X88718775Y-89574235D01*
X89019129Y-90023746D01*
X89468640Y-90324100D01*
X89998875Y-90429570D01*
X91581125Y-90429570D01*
X92111360Y-90324100D01*
X92560871Y-90023746D01*
X92861225Y-89574235D01*
X92966695Y-89044000D01*
X92861225Y-88513765D01*
X92560871Y-88064254D01*
X92111360Y-87763900D01*
X91581125Y-87658430D01*
X89998875Y-87658430D01*
X89468640Y-87763900D01*
X89019129Y-88064254D01*
X88718775Y-88513765D01*
X88613305Y-89044000D01*
X87886695Y-89044000D01*
X87781225Y-88513765D01*
X87480871Y-88064254D01*
X87031360Y-87763900D01*
X86501125Y-87658430D01*
X84918875Y-87658430D01*
X84388640Y-87763900D01*
X83939129Y-88064254D01*
X83638775Y-88513765D01*
X83533305Y-89044000D01*
X71836776Y-89044000D01*
X72007466Y-88873607D01*
X72134855Y-88566821D01*
X72135145Y-88234637D01*
X72008292Y-87927628D01*
X71773607Y-87692534D01*
X71466821Y-87565145D01*
X71411000Y-87565096D01*
X71534855Y-87266821D01*
X71535145Y-86934637D01*
X71408292Y-86627628D01*
X71246310Y-86465363D01*
X75164855Y-86465363D01*
X75291708Y-86772372D01*
X75490678Y-86971689D01*
X75465145Y-87033179D01*
X75464855Y-87365363D01*
X75591708Y-87672372D01*
X75826393Y-87907466D01*
X76133179Y-88034855D01*
X76465363Y-88035145D01*
X76772372Y-87908292D01*
X77007466Y-87673607D01*
X77134855Y-87366821D01*
X77134943Y-87265363D01*
X79864855Y-87265363D01*
X79991708Y-87572372D01*
X80226393Y-87807466D01*
X80533179Y-87934855D01*
X80865363Y-87935145D01*
X81172372Y-87808292D01*
X81407466Y-87573607D01*
X81534855Y-87266821D01*
X81535145Y-86934637D01*
X81408292Y-86627628D01*
X81173607Y-86392534D01*
X80866821Y-86265145D01*
X80534637Y-86264855D01*
X80227628Y-86391708D01*
X79992534Y-86626393D01*
X79865145Y-86933179D01*
X79864855Y-87265363D01*
X77134943Y-87265363D01*
X77135145Y-87034637D01*
X77008292Y-86727628D01*
X76809322Y-86528311D01*
X76834855Y-86466821D01*
X76835145Y-86134637D01*
X76708292Y-85827628D01*
X76473607Y-85592534D01*
X76166821Y-85465145D01*
X75834637Y-85464855D01*
X75527628Y-85591708D01*
X75292534Y-85826393D01*
X75165145Y-86133179D01*
X75164855Y-86465363D01*
X71246310Y-86465363D01*
X71173607Y-86392534D01*
X70866821Y-86265145D01*
X70534637Y-86264855D01*
X70227628Y-86391708D01*
X69992534Y-86626393D01*
X69865145Y-86933179D01*
X69864855Y-87265363D01*
X47627000Y-87265363D01*
X47627000Y-86065363D01*
X63264855Y-86065363D01*
X63391708Y-86372372D01*
X63626393Y-86607466D01*
X63933179Y-86734855D01*
X64265363Y-86735145D01*
X64572372Y-86608292D01*
X64807466Y-86373607D01*
X64934855Y-86066821D01*
X64935145Y-85734637D01*
X64851671Y-85532614D01*
X64926393Y-85607466D01*
X65233179Y-85734855D01*
X65565363Y-85735145D01*
X65872372Y-85608292D01*
X66107466Y-85373607D01*
X66234855Y-85066821D01*
X66235118Y-84765363D01*
X76364855Y-84765363D01*
X76491708Y-85072372D01*
X76726393Y-85307466D01*
X77033179Y-85434855D01*
X77365363Y-85435145D01*
X77672372Y-85308292D01*
X77907466Y-85073607D01*
X78034855Y-84766821D01*
X78035067Y-84523706D01*
X78072372Y-84508292D01*
X78275742Y-84305275D01*
X83617817Y-84305275D01*
X83632000Y-84376903D01*
X83891152Y-84853944D01*
X84313133Y-85195499D01*
X84833700Y-85349570D01*
X85583000Y-85349570D01*
X85583000Y-84091000D01*
X85837000Y-84091000D01*
X85837000Y-85349570D01*
X86586300Y-85349570D01*
X87106867Y-85195499D01*
X87528848Y-84853944D01*
X87788000Y-84376903D01*
X87802183Y-84305275D01*
X88697817Y-84305275D01*
X88712000Y-84376903D01*
X88971152Y-84853944D01*
X89393133Y-85195499D01*
X89913700Y-85349570D01*
X90663000Y-85349570D01*
X90663000Y-84091000D01*
X90917000Y-84091000D01*
X90917000Y-85349570D01*
X91666300Y-85349570D01*
X92186867Y-85195499D01*
X92608848Y-84853944D01*
X92868000Y-84376903D01*
X92882183Y-84305275D01*
X92759529Y-84091000D01*
X90917000Y-84091000D01*
X90663000Y-84091000D01*
X88820471Y-84091000D01*
X88697817Y-84305275D01*
X87802183Y-84305275D01*
X87679529Y-84091000D01*
X85837000Y-84091000D01*
X85583000Y-84091000D01*
X83740471Y-84091000D01*
X83617817Y-84305275D01*
X78275742Y-84305275D01*
X78307466Y-84273607D01*
X78391124Y-84072136D01*
X78426393Y-84107466D01*
X78733179Y-84234855D01*
X79065363Y-84235145D01*
X79372372Y-84108292D01*
X79607466Y-83873607D01*
X79711641Y-83622725D01*
X83617817Y-83622725D01*
X83740471Y-83837000D01*
X85583000Y-83837000D01*
X85583000Y-82578430D01*
X85837000Y-82578430D01*
X85837000Y-83837000D01*
X87679529Y-83837000D01*
X87802183Y-83622725D01*
X88697817Y-83622725D01*
X88820471Y-83837000D01*
X90663000Y-83837000D01*
X90663000Y-82578430D01*
X90917000Y-82578430D01*
X90917000Y-83837000D01*
X92759529Y-83837000D01*
X92882183Y-83622725D01*
X92868000Y-83551097D01*
X92608848Y-83074056D01*
X92186867Y-82732501D01*
X91666300Y-82578430D01*
X90917000Y-82578430D01*
X90663000Y-82578430D01*
X89913700Y-82578430D01*
X89393133Y-82732501D01*
X88971152Y-83074056D01*
X88712000Y-83551097D01*
X88697817Y-83622725D01*
X87802183Y-83622725D01*
X87788000Y-83551097D01*
X87528848Y-83074056D01*
X87106867Y-82732501D01*
X86586300Y-82578430D01*
X85837000Y-82578430D01*
X85583000Y-82578430D01*
X84833700Y-82578430D01*
X84313133Y-82732501D01*
X83891152Y-83074056D01*
X83632000Y-83551097D01*
X83617817Y-83622725D01*
X79711641Y-83622725D01*
X79734855Y-83566821D01*
X79735145Y-83234637D01*
X79608292Y-82927628D01*
X79373607Y-82692534D01*
X79066821Y-82565145D01*
X78734637Y-82564855D01*
X78427628Y-82691708D01*
X78192534Y-82926393D01*
X78108876Y-83127864D01*
X78073607Y-83092534D01*
X77766821Y-82965145D01*
X77434637Y-82964855D01*
X77127628Y-83091708D01*
X76892534Y-83326393D01*
X76765145Y-83633179D01*
X76764933Y-83876294D01*
X76727628Y-83891708D01*
X76492534Y-84126393D01*
X76365145Y-84433179D01*
X76364855Y-84765363D01*
X66235118Y-84765363D01*
X66235145Y-84734637D01*
X66108292Y-84427628D01*
X65873607Y-84192534D01*
X65566821Y-84065145D01*
X65234637Y-84064855D01*
X64927628Y-84191708D01*
X64692534Y-84426393D01*
X64565145Y-84733179D01*
X64564855Y-85065363D01*
X64648329Y-85267386D01*
X64573607Y-85192534D01*
X64266821Y-85065145D01*
X63934637Y-85064855D01*
X63627628Y-85191708D01*
X63392534Y-85426393D01*
X63265145Y-85733179D01*
X63264855Y-86065363D01*
X47627000Y-86065363D01*
X47627000Y-84406000D01*
X49083305Y-84406000D01*
X49188775Y-84936235D01*
X49489129Y-85385746D01*
X49938640Y-85686100D01*
X50468875Y-85791570D01*
X52051125Y-85791570D01*
X52581360Y-85686100D01*
X53030871Y-85385746D01*
X53331225Y-84936235D01*
X53436695Y-84406000D01*
X54163305Y-84406000D01*
X54268775Y-84936235D01*
X54569129Y-85385746D01*
X55018640Y-85686100D01*
X55548875Y-85791570D01*
X57131125Y-85791570D01*
X57661360Y-85686100D01*
X58110871Y-85385746D01*
X58411225Y-84936235D01*
X58516695Y-84406000D01*
X58411225Y-83875765D01*
X58110871Y-83426254D01*
X57720421Y-83165363D01*
X67914855Y-83165363D01*
X68041708Y-83472372D01*
X68276393Y-83707466D01*
X68583179Y-83834855D01*
X68664925Y-83834926D01*
X68664855Y-83915363D01*
X68791708Y-84222372D01*
X69026393Y-84457466D01*
X69333179Y-84584855D01*
X69665363Y-84585145D01*
X69972372Y-84458292D01*
X70207466Y-84223607D01*
X70334855Y-83916821D01*
X70335145Y-83584637D01*
X70208292Y-83277628D01*
X69973607Y-83042534D01*
X69666821Y-82915145D01*
X69585075Y-82915074D01*
X69585145Y-82834637D01*
X69458292Y-82527628D01*
X69223607Y-82292534D01*
X68916821Y-82165145D01*
X68584637Y-82164855D01*
X68277628Y-82291708D01*
X68042534Y-82526393D01*
X67915145Y-82833179D01*
X67914855Y-83165363D01*
X57720421Y-83165363D01*
X57661360Y-83125900D01*
X57131125Y-83020430D01*
X55548875Y-83020430D01*
X55018640Y-83125900D01*
X54569129Y-83426254D01*
X54268775Y-83875765D01*
X54163305Y-84406000D01*
X53436695Y-84406000D01*
X53331225Y-83875765D01*
X53030871Y-83426254D01*
X52581360Y-83125900D01*
X52051125Y-83020430D01*
X50468875Y-83020430D01*
X49938640Y-83125900D01*
X49489129Y-83426254D01*
X49188775Y-83875765D01*
X49083305Y-84406000D01*
X47627000Y-84406000D01*
X47627000Y-81915363D01*
X69664855Y-81915363D01*
X69791708Y-82222372D01*
X70026393Y-82457466D01*
X70333179Y-82584855D01*
X70665363Y-82585145D01*
X70972372Y-82458292D01*
X71207466Y-82223607D01*
X71272094Y-82067966D01*
X71433179Y-82134855D01*
X71765363Y-82135145D01*
X72072372Y-82008292D01*
X72307466Y-81773607D01*
X72434855Y-81466821D01*
X72435145Y-81134637D01*
X72308292Y-80827628D01*
X72073607Y-80592534D01*
X71850591Y-80499930D01*
X72072372Y-80408292D01*
X72307466Y-80173607D01*
X72434855Y-79866821D01*
X72434943Y-79765363D01*
X76864855Y-79765363D01*
X76991708Y-80072372D01*
X77226393Y-80307466D01*
X77533179Y-80434855D01*
X77865363Y-80435145D01*
X78172372Y-80308292D01*
X78407466Y-80073607D01*
X78534855Y-79766821D01*
X78535145Y-79434637D01*
X78408292Y-79127628D01*
X78291867Y-79011000D01*
X83533305Y-79011000D01*
X83638775Y-79541235D01*
X83939129Y-79990746D01*
X84388640Y-80291100D01*
X84918875Y-80396570D01*
X86501125Y-80396570D01*
X87031360Y-80291100D01*
X87480871Y-79990746D01*
X87781225Y-79541235D01*
X87886695Y-79011000D01*
X88613305Y-79011000D01*
X88718775Y-79541235D01*
X89019129Y-79990746D01*
X89468640Y-80291100D01*
X89998875Y-80396570D01*
X91581125Y-80396570D01*
X92111360Y-80291100D01*
X92560871Y-79990746D01*
X92861225Y-79541235D01*
X92966695Y-79011000D01*
X92861225Y-78480765D01*
X92560871Y-78031254D01*
X92111360Y-77730900D01*
X91581125Y-77625430D01*
X89998875Y-77625430D01*
X89468640Y-77730900D01*
X89019129Y-78031254D01*
X88718775Y-78480765D01*
X88613305Y-79011000D01*
X87886695Y-79011000D01*
X87781225Y-78480765D01*
X87480871Y-78031254D01*
X87031360Y-77730900D01*
X86501125Y-77625430D01*
X84918875Y-77625430D01*
X84388640Y-77730900D01*
X83939129Y-78031254D01*
X83638775Y-78480765D01*
X83533305Y-79011000D01*
X78291867Y-79011000D01*
X78173607Y-78892534D01*
X77866821Y-78765145D01*
X77534637Y-78764855D01*
X77227628Y-78891708D01*
X76992534Y-79126393D01*
X76865145Y-79433179D01*
X76864855Y-79765363D01*
X72434943Y-79765363D01*
X72435145Y-79534637D01*
X72308292Y-79227628D01*
X72073607Y-78992534D01*
X71766821Y-78865145D01*
X71434637Y-78864855D01*
X71127628Y-78991708D01*
X70892534Y-79226393D01*
X70765145Y-79533179D01*
X70764855Y-79865363D01*
X70891708Y-80172372D01*
X71126393Y-80407466D01*
X71349409Y-80500070D01*
X71127628Y-80591708D01*
X70892534Y-80826393D01*
X70827906Y-80982034D01*
X70666821Y-80915145D01*
X70334637Y-80914855D01*
X70027628Y-81041708D01*
X69792534Y-81276393D01*
X69665145Y-81583179D01*
X69664855Y-81915363D01*
X47627000Y-81915363D01*
X47627000Y-81065363D01*
X63364855Y-81065363D01*
X63491708Y-81372372D01*
X63726393Y-81607466D01*
X64033179Y-81734855D01*
X64365363Y-81735145D01*
X64672372Y-81608292D01*
X64907466Y-81373607D01*
X65034855Y-81066821D01*
X65035145Y-80734637D01*
X64908292Y-80427628D01*
X64673607Y-80192534D01*
X64366821Y-80065145D01*
X64034637Y-80064855D01*
X63727628Y-80191708D01*
X63492534Y-80426393D01*
X63365145Y-80733179D01*
X63364855Y-81065363D01*
X47627000Y-81065363D01*
X47627000Y-79794275D01*
X49167817Y-79794275D01*
X49182000Y-79865903D01*
X49441152Y-80342944D01*
X49863133Y-80684499D01*
X50383700Y-80838570D01*
X51133000Y-80838570D01*
X51133000Y-79580000D01*
X51387000Y-79580000D01*
X51387000Y-80838570D01*
X52136300Y-80838570D01*
X52656867Y-80684499D01*
X53078848Y-80342944D01*
X53338000Y-79865903D01*
X53352183Y-79794275D01*
X54247817Y-79794275D01*
X54262000Y-79865903D01*
X54521152Y-80342944D01*
X54943133Y-80684499D01*
X55463700Y-80838570D01*
X56213000Y-80838570D01*
X56213000Y-79580000D01*
X56467000Y-79580000D01*
X56467000Y-80838570D01*
X57216300Y-80838570D01*
X57736867Y-80684499D01*
X58158848Y-80342944D01*
X58418000Y-79865903D01*
X58432183Y-79794275D01*
X58309529Y-79580000D01*
X56467000Y-79580000D01*
X56213000Y-79580000D01*
X54370471Y-79580000D01*
X54247817Y-79794275D01*
X53352183Y-79794275D01*
X53229529Y-79580000D01*
X51387000Y-79580000D01*
X51133000Y-79580000D01*
X49290471Y-79580000D01*
X49167817Y-79794275D01*
X47627000Y-79794275D01*
X47627000Y-79111725D01*
X49167817Y-79111725D01*
X49290471Y-79326000D01*
X51133000Y-79326000D01*
X51133000Y-78067430D01*
X51387000Y-78067430D01*
X51387000Y-79326000D01*
X53229529Y-79326000D01*
X53352183Y-79111725D01*
X54247817Y-79111725D01*
X54370471Y-79326000D01*
X56213000Y-79326000D01*
X56213000Y-78067430D01*
X56467000Y-78067430D01*
X56467000Y-79326000D01*
X58309529Y-79326000D01*
X58432183Y-79111725D01*
X58418000Y-79040097D01*
X58160102Y-78565363D01*
X63364855Y-78565363D01*
X63491708Y-78872372D01*
X63726393Y-79107466D01*
X64033179Y-79234855D01*
X64365363Y-79235145D01*
X64672372Y-79108292D01*
X64907466Y-78873607D01*
X65034855Y-78566821D01*
X65035145Y-78234637D01*
X65006522Y-78165363D01*
X74164855Y-78165363D01*
X74291708Y-78472372D01*
X74526393Y-78707466D01*
X74833179Y-78834855D01*
X75165363Y-78835145D01*
X75472372Y-78708292D01*
X75707466Y-78473607D01*
X75834855Y-78166821D01*
X75835145Y-77834637D01*
X75708292Y-77527628D01*
X75473607Y-77292534D01*
X75408173Y-77265363D01*
X76764855Y-77265363D01*
X76891708Y-77572372D01*
X77126393Y-77807466D01*
X77433179Y-77934855D01*
X77765363Y-77935145D01*
X78072372Y-77808292D01*
X78307466Y-77573607D01*
X78434855Y-77266821D01*
X78435145Y-76934637D01*
X78308292Y-76627628D01*
X78073607Y-76392534D01*
X77766821Y-76265145D01*
X77434637Y-76264855D01*
X77127628Y-76391708D01*
X76892534Y-76626393D01*
X76765145Y-76933179D01*
X76764855Y-77265363D01*
X75408173Y-77265363D01*
X75166821Y-77165145D01*
X74834637Y-77164855D01*
X74527628Y-77291708D01*
X74292534Y-77526393D01*
X74165145Y-77833179D01*
X74164855Y-78165363D01*
X65006522Y-78165363D01*
X64908292Y-77927628D01*
X64673607Y-77692534D01*
X64366821Y-77565145D01*
X64034637Y-77564855D01*
X63727628Y-77691708D01*
X63492534Y-77926393D01*
X63365145Y-78233179D01*
X63364855Y-78565363D01*
X58160102Y-78565363D01*
X58158848Y-78563056D01*
X57736867Y-78221501D01*
X57216300Y-78067430D01*
X56467000Y-78067430D01*
X56213000Y-78067430D01*
X55463700Y-78067430D01*
X54943133Y-78221501D01*
X54521152Y-78563056D01*
X54262000Y-79040097D01*
X54247817Y-79111725D01*
X53352183Y-79111725D01*
X53338000Y-79040097D01*
X53078848Y-78563056D01*
X52656867Y-78221501D01*
X52136300Y-78067430D01*
X51387000Y-78067430D01*
X51133000Y-78067430D01*
X50383700Y-78067430D01*
X49863133Y-78221501D01*
X49441152Y-78563056D01*
X49182000Y-79040097D01*
X49167817Y-79111725D01*
X47627000Y-79111725D01*
X47627000Y-77415363D01*
X69664855Y-77415363D01*
X69791708Y-77722372D01*
X70026393Y-77957466D01*
X70333179Y-78084855D01*
X70665363Y-78085145D01*
X70972372Y-77958292D01*
X71207466Y-77723607D01*
X71334855Y-77416821D01*
X71335145Y-77084637D01*
X71208292Y-76777628D01*
X70973607Y-76542534D01*
X70666821Y-76415145D01*
X70334637Y-76414855D01*
X70027628Y-76541708D01*
X69792534Y-76776393D01*
X69665145Y-77083179D01*
X69664855Y-77415363D01*
X47627000Y-77415363D01*
X47627000Y-74373000D01*
X49083305Y-74373000D01*
X49188775Y-74903235D01*
X49489129Y-75352746D01*
X49938640Y-75653100D01*
X50468875Y-75758570D01*
X52051125Y-75758570D01*
X52581360Y-75653100D01*
X53030871Y-75352746D01*
X53331225Y-74903235D01*
X53436695Y-74373000D01*
X54163305Y-74373000D01*
X54268775Y-74903235D01*
X54569129Y-75352746D01*
X55018640Y-75653100D01*
X55548875Y-75758570D01*
X57131125Y-75758570D01*
X57661360Y-75653100D01*
X58110871Y-75352746D01*
X58411225Y-74903235D01*
X58511468Y-74399275D01*
X83617817Y-74399275D01*
X83632000Y-74470903D01*
X83891152Y-74947944D01*
X84313133Y-75289499D01*
X84833700Y-75443570D01*
X85583000Y-75443570D01*
X85583000Y-74185000D01*
X85837000Y-74185000D01*
X85837000Y-75443570D01*
X86586300Y-75443570D01*
X87106867Y-75289499D01*
X87528848Y-74947944D01*
X87788000Y-74470903D01*
X87802183Y-74399275D01*
X88697817Y-74399275D01*
X88712000Y-74470903D01*
X88971152Y-74947944D01*
X89393133Y-75289499D01*
X89913700Y-75443570D01*
X90663000Y-75443570D01*
X90663000Y-74185000D01*
X90917000Y-74185000D01*
X90917000Y-75443570D01*
X91666300Y-75443570D01*
X92186867Y-75289499D01*
X92608848Y-74947944D01*
X92868000Y-74470903D01*
X92882183Y-74399275D01*
X92759529Y-74185000D01*
X90917000Y-74185000D01*
X90663000Y-74185000D01*
X88820471Y-74185000D01*
X88697817Y-74399275D01*
X87802183Y-74399275D01*
X87679529Y-74185000D01*
X85837000Y-74185000D01*
X85583000Y-74185000D01*
X83740471Y-74185000D01*
X83617817Y-74399275D01*
X58511468Y-74399275D01*
X58516695Y-74373000D01*
X58411225Y-73842765D01*
X58292689Y-73665363D01*
X63464855Y-73665363D01*
X63591708Y-73972372D01*
X63826393Y-74207466D01*
X64133179Y-74334855D01*
X64465363Y-74335145D01*
X64772372Y-74208292D01*
X65007466Y-73973607D01*
X65064997Y-73835057D01*
X65165363Y-73835145D01*
X65451962Y-73716725D01*
X83617817Y-73716725D01*
X83740471Y-73931000D01*
X85583000Y-73931000D01*
X85583000Y-72672430D01*
X85837000Y-72672430D01*
X85837000Y-73931000D01*
X87679529Y-73931000D01*
X87802183Y-73716725D01*
X88697817Y-73716725D01*
X88820471Y-73931000D01*
X90663000Y-73931000D01*
X90663000Y-72672430D01*
X90917000Y-72672430D01*
X90917000Y-73931000D01*
X92759529Y-73931000D01*
X92882183Y-73716725D01*
X92868000Y-73645097D01*
X92608848Y-73168056D01*
X92186867Y-72826501D01*
X91666300Y-72672430D01*
X90917000Y-72672430D01*
X90663000Y-72672430D01*
X89913700Y-72672430D01*
X89393133Y-72826501D01*
X88971152Y-73168056D01*
X88712000Y-73645097D01*
X88697817Y-73716725D01*
X87802183Y-73716725D01*
X87788000Y-73645097D01*
X87528848Y-73168056D01*
X87106867Y-72826501D01*
X86586300Y-72672430D01*
X85837000Y-72672430D01*
X85583000Y-72672430D01*
X84833700Y-72672430D01*
X84313133Y-72826501D01*
X83891152Y-73168056D01*
X83632000Y-73645097D01*
X83617817Y-73716725D01*
X65451962Y-73716725D01*
X65472372Y-73708292D01*
X65707466Y-73473607D01*
X65834855Y-73166821D01*
X65835145Y-72834637D01*
X65708292Y-72527628D01*
X65473607Y-72292534D01*
X65167347Y-72165363D01*
X73414855Y-72165363D01*
X73541708Y-72472372D01*
X73776393Y-72707466D01*
X74083179Y-72834855D01*
X74415363Y-72835145D01*
X74722372Y-72708292D01*
X74957466Y-72473607D01*
X75002412Y-72365363D01*
X76664855Y-72365363D01*
X76791708Y-72672372D01*
X77026393Y-72907466D01*
X77333179Y-73034855D01*
X77665363Y-73035145D01*
X77972372Y-72908292D01*
X78207466Y-72673607D01*
X78334855Y-72366821D01*
X78335145Y-72034637D01*
X78208292Y-71727628D01*
X77973607Y-71492534D01*
X77666821Y-71365145D01*
X77334637Y-71364855D01*
X77027628Y-71491708D01*
X76792534Y-71726393D01*
X76665145Y-72033179D01*
X76664855Y-72365363D01*
X75002412Y-72365363D01*
X75084855Y-72166821D01*
X75085145Y-71834637D01*
X74958292Y-71527628D01*
X74723607Y-71292534D01*
X74416821Y-71165145D01*
X74084637Y-71164855D01*
X73777628Y-71291708D01*
X73542534Y-71526393D01*
X73415145Y-71833179D01*
X73414855Y-72165363D01*
X65167347Y-72165363D01*
X65166821Y-72165145D01*
X64834637Y-72164855D01*
X64527628Y-72291708D01*
X64292534Y-72526393D01*
X64235003Y-72664943D01*
X64134637Y-72664855D01*
X63827628Y-72791708D01*
X63592534Y-73026393D01*
X63465145Y-73333179D01*
X63464855Y-73665363D01*
X58292689Y-73665363D01*
X58110871Y-73393254D01*
X57661360Y-73092900D01*
X57131125Y-72987430D01*
X55548875Y-72987430D01*
X55018640Y-73092900D01*
X54569129Y-73393254D01*
X54268775Y-73842765D01*
X54163305Y-74373000D01*
X53436695Y-74373000D01*
X53331225Y-73842765D01*
X53030871Y-73393254D01*
X52581360Y-73092900D01*
X52051125Y-72987430D01*
X50468875Y-72987430D01*
X49938640Y-73092900D01*
X49489129Y-73393254D01*
X49188775Y-73842765D01*
X49083305Y-74373000D01*
X47627000Y-74373000D01*
X47627000Y-71065363D01*
X63464855Y-71065363D01*
X63591708Y-71372372D01*
X63826393Y-71607466D01*
X64133179Y-71734855D01*
X64465363Y-71735145D01*
X64772372Y-71608292D01*
X65007466Y-71373607D01*
X65134855Y-71066821D01*
X65135145Y-70734637D01*
X65008292Y-70427628D01*
X64773607Y-70192534D01*
X64466821Y-70065145D01*
X64134637Y-70064855D01*
X63827628Y-70191708D01*
X63592534Y-70426393D01*
X63465145Y-70733179D01*
X63464855Y-71065363D01*
X47627000Y-71065363D01*
X47627000Y-69761275D01*
X49167817Y-69761275D01*
X49182000Y-69832903D01*
X49441152Y-70309944D01*
X49863133Y-70651499D01*
X50383700Y-70805570D01*
X51133000Y-70805570D01*
X51133000Y-69547000D01*
X51387000Y-69547000D01*
X51387000Y-70805570D01*
X52136300Y-70805570D01*
X52656867Y-70651499D01*
X53078848Y-70309944D01*
X53338000Y-69832903D01*
X53352183Y-69761275D01*
X54247817Y-69761275D01*
X54262000Y-69832903D01*
X54521152Y-70309944D01*
X54943133Y-70651499D01*
X55463700Y-70805570D01*
X56213000Y-70805570D01*
X56213000Y-69547000D01*
X56467000Y-69547000D01*
X56467000Y-70805570D01*
X57216300Y-70805570D01*
X57736867Y-70651499D01*
X58158848Y-70309944D01*
X58373203Y-69915363D01*
X66664855Y-69915363D01*
X66791708Y-70222372D01*
X67026393Y-70457466D01*
X67333179Y-70584855D01*
X67665363Y-70585145D01*
X67972372Y-70458292D01*
X68207466Y-70223607D01*
X68334855Y-69916821D01*
X68334987Y-69765363D01*
X76664855Y-69765363D01*
X76791708Y-70072372D01*
X77026393Y-70307466D01*
X77333179Y-70434855D01*
X77665363Y-70435145D01*
X77972372Y-70308292D01*
X78207466Y-70073607D01*
X78334855Y-69766821D01*
X78335145Y-69434637D01*
X78208292Y-69127628D01*
X78058925Y-68978000D01*
X83533305Y-68978000D01*
X83638775Y-69508235D01*
X83939129Y-69957746D01*
X84388640Y-70258100D01*
X84918875Y-70363570D01*
X86501125Y-70363570D01*
X87031360Y-70258100D01*
X87480871Y-69957746D01*
X87781225Y-69508235D01*
X87886695Y-68978000D01*
X88613305Y-68978000D01*
X88718775Y-69508235D01*
X89019129Y-69957746D01*
X89468640Y-70258100D01*
X89998875Y-70363570D01*
X91581125Y-70363570D01*
X92111360Y-70258100D01*
X92560871Y-69957746D01*
X92861225Y-69508235D01*
X92966695Y-68978000D01*
X92861225Y-68447765D01*
X92560871Y-67998254D01*
X92111360Y-67697900D01*
X91581125Y-67592430D01*
X89998875Y-67592430D01*
X89468640Y-67697900D01*
X89019129Y-67998254D01*
X88718775Y-68447765D01*
X88613305Y-68978000D01*
X87886695Y-68978000D01*
X87781225Y-68447765D01*
X87480871Y-67998254D01*
X87031360Y-67697900D01*
X86501125Y-67592430D01*
X84918875Y-67592430D01*
X84388640Y-67697900D01*
X83939129Y-67998254D01*
X83638775Y-68447765D01*
X83533305Y-68978000D01*
X78058925Y-68978000D01*
X77973607Y-68892534D01*
X77666821Y-68765145D01*
X77334637Y-68764855D01*
X77027628Y-68891708D01*
X76792534Y-69126393D01*
X76665145Y-69433179D01*
X76664855Y-69765363D01*
X68334987Y-69765363D01*
X68335145Y-69584637D01*
X68208292Y-69277628D01*
X67973607Y-69042534D01*
X67666821Y-68915145D01*
X67334637Y-68914855D01*
X67027628Y-69041708D01*
X66792534Y-69276393D01*
X66665145Y-69583179D01*
X66664855Y-69915363D01*
X58373203Y-69915363D01*
X58418000Y-69832903D01*
X58432183Y-69761275D01*
X58309529Y-69547000D01*
X56467000Y-69547000D01*
X56213000Y-69547000D01*
X54370471Y-69547000D01*
X54247817Y-69761275D01*
X53352183Y-69761275D01*
X53229529Y-69547000D01*
X51387000Y-69547000D01*
X51133000Y-69547000D01*
X49290471Y-69547000D01*
X49167817Y-69761275D01*
X47627000Y-69761275D01*
X47627000Y-69078725D01*
X49167817Y-69078725D01*
X49290471Y-69293000D01*
X51133000Y-69293000D01*
X51133000Y-68034430D01*
X51387000Y-68034430D01*
X51387000Y-69293000D01*
X53229529Y-69293000D01*
X53352183Y-69078725D01*
X54247817Y-69078725D01*
X54370471Y-69293000D01*
X56213000Y-69293000D01*
X56213000Y-68034430D01*
X56467000Y-68034430D01*
X56467000Y-69293000D01*
X58309529Y-69293000D01*
X58432183Y-69078725D01*
X58418000Y-69007097D01*
X58158848Y-68530056D01*
X57736867Y-68188501D01*
X57216300Y-68034430D01*
X56467000Y-68034430D01*
X56213000Y-68034430D01*
X55463700Y-68034430D01*
X54943133Y-68188501D01*
X54521152Y-68530056D01*
X54262000Y-69007097D01*
X54247817Y-69078725D01*
X53352183Y-69078725D01*
X53338000Y-69007097D01*
X53078848Y-68530056D01*
X52656867Y-68188501D01*
X52136300Y-68034430D01*
X51387000Y-68034430D01*
X51133000Y-68034430D01*
X50383700Y-68034430D01*
X49863133Y-68188501D01*
X49441152Y-68530056D01*
X49182000Y-69007097D01*
X49167817Y-69078725D01*
X47627000Y-69078725D01*
X47627000Y-62785750D01*
X48690000Y-62785750D01*
X48690000Y-63551310D01*
X48786673Y-63784699D01*
X48965302Y-63963327D01*
X49198691Y-64060000D01*
X49964250Y-64060000D01*
X50123000Y-63901250D01*
X50123000Y-62627000D01*
X48848750Y-62627000D01*
X48690000Y-62785750D01*
X47627000Y-62785750D01*
X47627000Y-61127000D01*
X48874974Y-61127000D01*
X48786673Y-61215301D01*
X48786673Y-61215301D01*
G37*
X48786673Y-61215301D02*
X48690000Y-61448690D01*
X48690000Y-62214250D01*
X48848750Y-62373000D01*
X50123000Y-62373000D01*
X50123000Y-62353000D01*
X50377000Y-62353000D01*
X50377000Y-62373000D01*
X50397000Y-62373000D01*
X50397000Y-62627000D01*
X50377000Y-62627000D01*
X50377000Y-63901250D01*
X50535750Y-64060000D01*
X51301309Y-64060000D01*
X51534698Y-63963327D01*
X51713327Y-63784699D01*
X51747017Y-63703365D01*
X51865177Y-63821732D01*
X52438336Y-64059728D01*
X53058942Y-64060270D01*
X53632514Y-63823275D01*
X54000256Y-63456174D01*
X54365177Y-63821732D01*
X54938336Y-64059728D01*
X55558942Y-64060270D01*
X56132514Y-63823275D01*
X56571732Y-63384823D01*
X56809728Y-62811664D01*
X56810270Y-62191058D01*
X56573275Y-61617486D01*
X56134823Y-61178268D01*
X56011356Y-61127000D01*
X93623000Y-61127000D01*
X93623000Y-117623000D01*
X47627000Y-117623000D01*
X47627000Y-115785750D01*
X48690000Y-115785750D01*
X48690000Y-116551310D01*
X48786673Y-116784699D01*
X48965302Y-116963327D01*
X49198691Y-117060000D01*
X49964250Y-117060000D01*
X50123000Y-116901250D01*
X50123000Y-115627000D01*
X48848750Y-115627000D01*
X48690000Y-115785750D01*
X47627000Y-115785750D01*
X47627000Y-114448690D01*
X48690000Y-114448690D01*
X48690000Y-115214250D01*
X48848750Y-115373000D01*
X50123000Y-115373000D01*
X50123000Y-114098750D01*
X50377000Y-114098750D01*
X50377000Y-115373000D01*
X50397000Y-115373000D01*
X50397000Y-115627000D01*
X50377000Y-115627000D01*
X50377000Y-116901250D01*
X50535750Y-117060000D01*
X51301309Y-117060000D01*
X51534698Y-116963327D01*
X51713327Y-116784699D01*
X51747017Y-116703365D01*
X51865177Y-116821732D01*
X52438336Y-117059728D01*
X53058942Y-117060270D01*
X53632514Y-116823275D01*
X54000256Y-116456174D01*
X54365177Y-116821732D01*
X54938336Y-117059728D01*
X55558942Y-117060270D01*
X56132514Y-116823275D01*
X56571732Y-116384823D01*
X56809728Y-115811664D01*
X56810270Y-115191058D01*
X56573275Y-114617486D01*
X56134823Y-114178268D01*
X55561664Y-113940272D01*
X54941058Y-113939730D01*
X54367486Y-114176725D01*
X53999744Y-114543826D01*
X53634823Y-114178268D01*
X53061664Y-113940272D01*
X52441058Y-113939730D01*
X51867486Y-114176725D01*
X51747119Y-114296882D01*
X51713327Y-114215301D01*
X51534698Y-114036673D01*
X51301309Y-113940000D01*
X50535750Y-113940000D01*
X50377000Y-114098750D01*
X50123000Y-114098750D01*
X49964250Y-113940000D01*
X49198691Y-113940000D01*
X48965302Y-114036673D01*
X48786673Y-114215301D01*
X48690000Y-114448690D01*
X47627000Y-114448690D01*
X47627000Y-113912913D01*
X73294638Y-113912913D01*
X73611392Y-114679515D01*
X74197400Y-115266547D01*
X74963448Y-115584638D01*
X75792913Y-115585362D01*
X76559515Y-115268608D01*
X76850782Y-114977849D01*
X79161756Y-114977849D01*
X79315435Y-115291424D01*
X80088108Y-115593066D01*
X80917398Y-115576058D01*
X81604565Y-115291424D01*
X81758244Y-114977849D01*
X84241756Y-114977849D01*
X84395435Y-115291424D01*
X85168108Y-115593066D01*
X85997398Y-115576058D01*
X86684565Y-115291424D01*
X86838244Y-114977849D01*
X85540000Y-113679605D01*
X84241756Y-114977849D01*
X81758244Y-114977849D01*
X80460000Y-113679605D01*
X79161756Y-114977849D01*
X76850782Y-114977849D01*
X77146547Y-114682600D01*
X77464638Y-113916552D01*
X77465326Y-113128108D01*
X78366934Y-113128108D01*
X78383942Y-113957398D01*
X78668576Y-114644565D01*
X78982151Y-114798244D01*
X80280395Y-113500000D01*
X80639605Y-113500000D01*
X81937849Y-114798244D01*
X82251424Y-114644565D01*
X82553066Y-113871892D01*
X82537812Y-113128108D01*
X83446934Y-113128108D01*
X83463942Y-113957398D01*
X83748576Y-114644565D01*
X84062151Y-114798244D01*
X85360395Y-113500000D01*
X85719605Y-113500000D01*
X87017849Y-114798244D01*
X87331424Y-114644565D01*
X87617051Y-113912913D01*
X88534638Y-113912913D01*
X88851392Y-114679515D01*
X89437400Y-115266547D01*
X90203448Y-115584638D01*
X91032913Y-115585362D01*
X91799515Y-115268608D01*
X92386547Y-114682600D01*
X92704638Y-113916552D01*
X92705362Y-113087087D01*
X92388608Y-112320485D01*
X91802600Y-111733453D01*
X91036552Y-111415362D01*
X90207087Y-111414638D01*
X89440485Y-111731392D01*
X88853453Y-112317400D01*
X88535362Y-113083448D01*
X88534638Y-113912913D01*
X87617051Y-113912913D01*
X87633066Y-113871892D01*
X87616058Y-113042602D01*
X87331424Y-112355435D01*
X87017849Y-112201756D01*
X85719605Y-113500000D01*
X85360395Y-113500000D01*
X84062151Y-112201756D01*
X83748576Y-112355435D01*
X83446934Y-113128108D01*
X82537812Y-113128108D01*
X82536058Y-113042602D01*
X82251424Y-112355435D01*
X81937849Y-112201756D01*
X80639605Y-113500000D01*
X80280395Y-113500000D01*
X78982151Y-112201756D01*
X78668576Y-112355435D01*
X78366934Y-113128108D01*
X77465326Y-113128108D01*
X77465362Y-113087087D01*
X77148608Y-112320485D01*
X76850795Y-112022151D01*
X79161756Y-112022151D01*
X80460000Y-113320395D01*
X81758244Y-112022151D01*
X84241756Y-112022151D01*
X85540000Y-113320395D01*
X86838244Y-112022151D01*
X86684565Y-111708576D01*
X85911892Y-111406934D01*
X85082602Y-111423942D01*
X84395435Y-111708576D01*
X84241756Y-112022151D01*
X81758244Y-112022151D01*
X81604565Y-111708576D01*
X80831892Y-111406934D01*
X80002602Y-111423942D01*
X79315435Y-111708576D01*
X79161756Y-112022151D01*
X76850795Y-112022151D01*
X76562600Y-111733453D01*
X75796552Y-111415362D01*
X74967087Y-111414638D01*
X74200485Y-111731392D01*
X73613453Y-112317400D01*
X73295362Y-113083448D01*
X73294638Y-113912913D01*
X47627000Y-113912913D01*
X47627000Y-110285750D01*
X48690000Y-110285750D01*
X48690000Y-111051310D01*
X48786673Y-111284699D01*
X48965302Y-111463327D01*
X49198691Y-111560000D01*
X49964250Y-111560000D01*
X50123000Y-111401250D01*
X50123000Y-110127000D01*
X48848750Y-110127000D01*
X48690000Y-110285750D01*
X47627000Y-110285750D01*
X47627000Y-108948690D01*
X48690000Y-108948690D01*
X48690000Y-109714250D01*
X48848750Y-109873000D01*
X50123000Y-109873000D01*
X50123000Y-108598750D01*
X50377000Y-108598750D01*
X50377000Y-109873000D01*
X50397000Y-109873000D01*
X50397000Y-110127000D01*
X50377000Y-110127000D01*
X50377000Y-111401250D01*
X50535750Y-111560000D01*
X51301309Y-111560000D01*
X51534698Y-111463327D01*
X51713327Y-111284699D01*
X51747017Y-111203365D01*
X51865177Y-111321732D01*
X52438336Y-111559728D01*
X53058942Y-111560270D01*
X53632514Y-111323275D01*
X54000256Y-110956174D01*
X54365177Y-111321732D01*
X54938336Y-111559728D01*
X55558942Y-111560270D01*
X56132514Y-111323275D01*
X56571732Y-110884823D01*
X56809728Y-110311664D01*
X56810270Y-109691058D01*
X56573275Y-109117486D01*
X56134823Y-108678268D01*
X55561664Y-108440272D01*
X54941058Y-108439730D01*
X54367486Y-108676725D01*
X53999744Y-109043826D01*
X53634823Y-108678268D01*
X53061664Y-108440272D01*
X52441058Y-108439730D01*
X51867486Y-108676725D01*
X51747119Y-108796882D01*
X51713327Y-108715301D01*
X51534698Y-108536673D01*
X51301309Y-108440000D01*
X50535750Y-108440000D01*
X50377000Y-108598750D01*
X50123000Y-108598750D01*
X49964250Y-108440000D01*
X49198691Y-108440000D01*
X48965302Y-108536673D01*
X48786673Y-108715301D01*
X48690000Y-108948690D01*
X47627000Y-108948690D01*
X47627000Y-107219041D01*
X67028086Y-107219041D01*
X67267611Y-107725134D01*
X67682577Y-108101041D01*
X68070961Y-108261904D01*
X68293000Y-108139915D01*
X68293000Y-106997000D01*
X68547000Y-106997000D01*
X68547000Y-108139915D01*
X68769039Y-108261904D01*
X69157423Y-108101041D01*
X69572389Y-107725134D01*
X69690000Y-107476633D01*
X69807611Y-107725134D01*
X70222577Y-108101041D01*
X70610961Y-108261904D01*
X70833000Y-108139915D01*
X70833000Y-106997000D01*
X71087000Y-106997000D01*
X71087000Y-108139915D01*
X71309039Y-108261904D01*
X71697423Y-108101041D01*
X72112389Y-107725134D01*
X72230000Y-107476633D01*
X72347611Y-107725134D01*
X72762577Y-108101041D01*
X73150961Y-108261904D01*
X73373000Y-108139915D01*
X73373000Y-106997000D01*
X73627000Y-106997000D01*
X73627000Y-108139915D01*
X73849039Y-108261904D01*
X74237423Y-108101041D01*
X74652389Y-107725134D01*
X74891914Y-107219041D01*
X74770629Y-106997000D01*
X73627000Y-106997000D01*
X73373000Y-106997000D01*
X71087000Y-106997000D01*
X70833000Y-106997000D01*
X68547000Y-106997000D01*
X68293000Y-106997000D01*
X67149371Y-106997000D01*
X67028086Y-107219041D01*
X47627000Y-107219041D01*
X47627000Y-106520959D01*
X67028086Y-106520959D01*
X67149371Y-106743000D01*
X68293000Y-106743000D01*
X68293000Y-105600085D01*
X68547000Y-105600085D01*
X68547000Y-106743000D01*
X70833000Y-106743000D01*
X70833000Y-105600085D01*
X71087000Y-105600085D01*
X71087000Y-106743000D01*
X73373000Y-106743000D01*
X73373000Y-105600085D01*
X73627000Y-105600085D01*
X73627000Y-106743000D01*
X74770629Y-106743000D01*
X74891914Y-106520959D01*
X74652389Y-106014866D01*
X74237423Y-105638959D01*
X73849039Y-105478096D01*
X73627000Y-105600085D01*
X73373000Y-105600085D01*
X73150961Y-105478096D01*
X72762577Y-105638959D01*
X72347611Y-106014866D01*
X72230000Y-106263367D01*
X72112389Y-106014866D01*
X71697423Y-105638959D01*
X71309039Y-105478096D01*
X71087000Y-105600085D01*
X70833000Y-105600085D01*
X70610961Y-105478096D01*
X70222577Y-105638959D01*
X69807611Y-106014866D01*
X69690000Y-106263367D01*
X69572389Y-106014866D01*
X69157423Y-105638959D01*
X68769039Y-105478096D01*
X68547000Y-105600085D01*
X68293000Y-105600085D01*
X68070961Y-105478096D01*
X67682577Y-105638959D01*
X67267611Y-106014866D01*
X67028086Y-106520959D01*
X47627000Y-106520959D01*
X47627000Y-104472000D01*
X49083305Y-104472000D01*
X49188775Y-105002235D01*
X49489129Y-105451746D01*
X49938640Y-105752100D01*
X50468875Y-105857570D01*
X52051125Y-105857570D01*
X52581360Y-105752100D01*
X53030871Y-105451746D01*
X53331225Y-105002235D01*
X53436695Y-104472000D01*
X54163305Y-104472000D01*
X54268775Y-105002235D01*
X54569129Y-105451746D01*
X55018640Y-105752100D01*
X55548875Y-105857570D01*
X57131125Y-105857570D01*
X57661360Y-105752100D01*
X58110871Y-105451746D01*
X58411225Y-105002235D01*
X58516695Y-104472000D01*
X58496660Y-104371275D01*
X83617817Y-104371275D01*
X83632000Y-104442903D01*
X83891152Y-104919944D01*
X84313133Y-105261499D01*
X84833700Y-105415570D01*
X85583000Y-105415570D01*
X85583000Y-104157000D01*
X85837000Y-104157000D01*
X85837000Y-105415570D01*
X86586300Y-105415570D01*
X87106867Y-105261499D01*
X87528848Y-104919944D01*
X87788000Y-104442903D01*
X87802183Y-104371275D01*
X88697817Y-104371275D01*
X88712000Y-104442903D01*
X88971152Y-104919944D01*
X89393133Y-105261499D01*
X89913700Y-105415570D01*
X90663000Y-105415570D01*
X90663000Y-104157000D01*
X90917000Y-104157000D01*
X90917000Y-105415570D01*
X91666300Y-105415570D01*
X92186867Y-105261499D01*
X92608848Y-104919944D01*
X92868000Y-104442903D01*
X92882183Y-104371275D01*
X92759529Y-104157000D01*
X90917000Y-104157000D01*
X90663000Y-104157000D01*
X88820471Y-104157000D01*
X88697817Y-104371275D01*
X87802183Y-104371275D01*
X87679529Y-104157000D01*
X85837000Y-104157000D01*
X85583000Y-104157000D01*
X83740471Y-104157000D01*
X83617817Y-104371275D01*
X58496660Y-104371275D01*
X58411225Y-103941765D01*
X58242149Y-103688725D01*
X83617817Y-103688725D01*
X83740471Y-103903000D01*
X85583000Y-103903000D01*
X85583000Y-102644430D01*
X85837000Y-102644430D01*
X85837000Y-103903000D01*
X87679529Y-103903000D01*
X87802183Y-103688725D01*
X88697817Y-103688725D01*
X88820471Y-103903000D01*
X90663000Y-103903000D01*
X90663000Y-102644430D01*
X90917000Y-102644430D01*
X90917000Y-103903000D01*
X92759529Y-103903000D01*
X92882183Y-103688725D01*
X92868000Y-103617097D01*
X92608848Y-103140056D01*
X92186867Y-102798501D01*
X91666300Y-102644430D01*
X90917000Y-102644430D01*
X90663000Y-102644430D01*
X89913700Y-102644430D01*
X89393133Y-102798501D01*
X88971152Y-103140056D01*
X88712000Y-103617097D01*
X88697817Y-103688725D01*
X87802183Y-103688725D01*
X87788000Y-103617097D01*
X87528848Y-103140056D01*
X87106867Y-102798501D01*
X86586300Y-102644430D01*
X85837000Y-102644430D01*
X85583000Y-102644430D01*
X84833700Y-102644430D01*
X84313133Y-102798501D01*
X83891152Y-103140056D01*
X83632000Y-103617097D01*
X83617817Y-103688725D01*
X58242149Y-103688725D01*
X58110871Y-103492254D01*
X57661360Y-103191900D01*
X57131125Y-103086430D01*
X55548875Y-103086430D01*
X55018640Y-103191900D01*
X54569129Y-103492254D01*
X54268775Y-103941765D01*
X54163305Y-104472000D01*
X53436695Y-104472000D01*
X53331225Y-103941765D01*
X53030871Y-103492254D01*
X52581360Y-103191900D01*
X52051125Y-103086430D01*
X50468875Y-103086430D01*
X49938640Y-103191900D01*
X49489129Y-103492254D01*
X49188775Y-103941765D01*
X49083305Y-104472000D01*
X47627000Y-104472000D01*
X47627000Y-102665363D01*
X48164855Y-102665363D01*
X48291708Y-102972372D01*
X48526393Y-103207466D01*
X48833179Y-103334855D01*
X49165363Y-103335145D01*
X49472372Y-103208292D01*
X49707466Y-102973607D01*
X49834855Y-102666821D01*
X49835145Y-102334637D01*
X49708292Y-102027628D01*
X49473607Y-101792534D01*
X49166821Y-101665145D01*
X48834637Y-101664855D01*
X48527628Y-101791708D01*
X48292534Y-102026393D01*
X48165145Y-102333179D01*
X48164855Y-102665363D01*
X47627000Y-102665363D01*
X47627000Y-101249242D01*
X47833179Y-101334855D01*
X48165363Y-101335145D01*
X48472372Y-101208292D01*
X48707466Y-100973607D01*
X48834855Y-100666821D01*
X48835145Y-100334637D01*
X48708292Y-100027628D01*
X48473607Y-99792534D01*
X48330896Y-99733275D01*
X49167817Y-99733275D01*
X49182000Y-99804903D01*
X49441152Y-100281944D01*
X49863133Y-100623499D01*
X50383700Y-100777570D01*
X51133000Y-100777570D01*
X51133000Y-99519000D01*
X51387000Y-99519000D01*
X51387000Y-100777570D01*
X52136300Y-100777570D01*
X52656867Y-100623499D01*
X53078848Y-100281944D01*
X53338000Y-99804903D01*
X53352183Y-99733275D01*
X54247817Y-99733275D01*
X54262000Y-99804903D01*
X54521152Y-100281944D01*
X54943133Y-100623499D01*
X55463700Y-100777570D01*
X56213000Y-100777570D01*
X56213000Y-99519000D01*
X56467000Y-99519000D01*
X56467000Y-100777570D01*
X57216300Y-100777570D01*
X57736867Y-100623499D01*
X58158848Y-100281944D01*
X58418000Y-99804903D01*
X58432183Y-99733275D01*
X58309529Y-99519000D01*
X56467000Y-99519000D01*
X56213000Y-99519000D01*
X54370471Y-99519000D01*
X54247817Y-99733275D01*
X53352183Y-99733275D01*
X53229529Y-99519000D01*
X51387000Y-99519000D01*
X51133000Y-99519000D01*
X49290471Y-99519000D01*
X49167817Y-99733275D01*
X48330896Y-99733275D01*
X48166821Y-99665145D01*
X47834637Y-99664855D01*
X47627000Y-99750648D01*
X47627000Y-99050725D01*
X49167817Y-99050725D01*
X49290471Y-99265000D01*
X51133000Y-99265000D01*
X51133000Y-98006430D01*
X51387000Y-98006430D01*
X51387000Y-99265000D01*
X53229529Y-99265000D01*
X53352183Y-99050725D01*
X54247817Y-99050725D01*
X54370471Y-99265000D01*
X56213000Y-99265000D01*
X56213000Y-98006430D01*
X56467000Y-98006430D01*
X56467000Y-99265000D01*
X58309529Y-99265000D01*
X58334207Y-99221887D01*
X66985000Y-99221887D01*
X66985000Y-99278113D01*
X67094233Y-99827264D01*
X67405302Y-100292811D01*
X67870849Y-100603880D01*
X68420000Y-100713113D01*
X68969151Y-100603880D01*
X69434698Y-100292811D01*
X69690000Y-99910725D01*
X69945302Y-100292811D01*
X70410849Y-100603880D01*
X70960000Y-100713113D01*
X71509151Y-100603880D01*
X71974698Y-100292811D01*
X72071101Y-100148535D01*
X72096838Y-100285317D01*
X72235910Y-100501441D01*
X72448110Y-100646431D01*
X72700000Y-100697440D01*
X74300000Y-100697440D01*
X74535317Y-100653162D01*
X74751441Y-100514090D01*
X74896431Y-100301890D01*
X74947440Y-100050000D01*
X74947440Y-99077000D01*
X83533305Y-99077000D01*
X83638775Y-99607235D01*
X83939129Y-100056746D01*
X84388640Y-100357100D01*
X84918875Y-100462570D01*
X86501125Y-100462570D01*
X87031360Y-100357100D01*
X87480871Y-100056746D01*
X87781225Y-99607235D01*
X87886695Y-99077000D01*
X88613305Y-99077000D01*
X88718775Y-99607235D01*
X89019129Y-100056746D01*
X89468640Y-100357100D01*
X89998875Y-100462570D01*
X91581125Y-100462570D01*
X92111360Y-100357100D01*
X92560871Y-100056746D01*
X92861225Y-99607235D01*
X92966695Y-99077000D01*
X92861225Y-98546765D01*
X92560871Y-98097254D01*
X92111360Y-97796900D01*
X91581125Y-97691430D01*
X89998875Y-97691430D01*
X89468640Y-97796900D01*
X89019129Y-98097254D01*
X88718775Y-98546765D01*
X88613305Y-99077000D01*
X87886695Y-99077000D01*
X87781225Y-98546765D01*
X87480871Y-98097254D01*
X87031360Y-97796900D01*
X86501125Y-97691430D01*
X84918875Y-97691430D01*
X84388640Y-97796900D01*
X83939129Y-98097254D01*
X83638775Y-98546765D01*
X83533305Y-99077000D01*
X74947440Y-99077000D01*
X74947440Y-98450000D01*
X74903162Y-98214683D01*
X74764090Y-97998559D01*
X74551890Y-97853569D01*
X74300000Y-97802560D01*
X72700000Y-97802560D01*
X72464683Y-97846838D01*
X72248559Y-97985910D01*
X72103569Y-98198110D01*
X72072185Y-98353089D01*
X71974698Y-98207189D01*
X71509151Y-97896120D01*
X70960000Y-97786887D01*
X70410849Y-97896120D01*
X69945302Y-98207189D01*
X69690000Y-98589275D01*
X69434698Y-98207189D01*
X68969151Y-97896120D01*
X68420000Y-97786887D01*
X67870849Y-97896120D01*
X67405302Y-98207189D01*
X67094233Y-98672736D01*
X66985000Y-99221887D01*
X58334207Y-99221887D01*
X58432183Y-99050725D01*
X58418000Y-98979097D01*
X58158848Y-98502056D01*
X57736867Y-98160501D01*
X57216300Y-98006430D01*
X56467000Y-98006430D01*
X56213000Y-98006430D01*
X55463700Y-98006430D01*
X54943133Y-98160501D01*
X54521152Y-98502056D01*
X54262000Y-98979097D01*
X54247817Y-99050725D01*
X53352183Y-99050725D01*
X53338000Y-98979097D01*
X53078848Y-98502056D01*
X52656867Y-98160501D01*
X52136300Y-98006430D01*
X51387000Y-98006430D01*
X51133000Y-98006430D01*
X50383700Y-98006430D01*
X49863133Y-98160501D01*
X49441152Y-98502056D01*
X49182000Y-98979097D01*
X49167817Y-99050725D01*
X47627000Y-99050725D01*
X47627000Y-96165363D01*
X63364855Y-96165363D01*
X63491708Y-96472372D01*
X63726393Y-96707466D01*
X64033179Y-96834855D01*
X64365363Y-96835145D01*
X64672372Y-96708292D01*
X64907466Y-96473607D01*
X65034855Y-96166821D01*
X65034943Y-96065363D01*
X73464855Y-96065363D01*
X73591708Y-96372372D01*
X73826393Y-96607466D01*
X74133179Y-96734855D01*
X74465363Y-96735145D01*
X74772372Y-96608292D01*
X75007466Y-96373607D01*
X75134855Y-96066821D01*
X75135145Y-95734637D01*
X75008292Y-95427628D01*
X74773607Y-95192534D01*
X74466821Y-95065145D01*
X74134637Y-95064855D01*
X73827628Y-95191708D01*
X73592534Y-95426393D01*
X73465145Y-95733179D01*
X73464855Y-96065363D01*
X65034943Y-96065363D01*
X65035145Y-95834637D01*
X64908292Y-95527628D01*
X64673607Y-95292534D01*
X64366821Y-95165145D01*
X64034637Y-95164855D01*
X63727628Y-95291708D01*
X63492534Y-95526393D01*
X63365145Y-95833179D01*
X63364855Y-96165363D01*
X47627000Y-96165363D01*
X47627000Y-94439000D01*
X49083305Y-94439000D01*
X49188775Y-94969235D01*
X49489129Y-95418746D01*
X49938640Y-95719100D01*
X50468875Y-95824570D01*
X52051125Y-95824570D01*
X52581360Y-95719100D01*
X53030871Y-95418746D01*
X53331225Y-94969235D01*
X53436695Y-94439000D01*
X54163305Y-94439000D01*
X54268775Y-94969235D01*
X54569129Y-95418746D01*
X55018640Y-95719100D01*
X55548875Y-95824570D01*
X57131125Y-95824570D01*
X57661360Y-95719100D01*
X58110871Y-95418746D01*
X58411225Y-94969235D01*
X58516695Y-94439000D01*
X58411225Y-93908765D01*
X58181771Y-93565363D01*
X63364855Y-93565363D01*
X63491708Y-93872372D01*
X63726393Y-94107466D01*
X64033179Y-94234855D01*
X64365363Y-94235145D01*
X64534249Y-94165363D01*
X73464855Y-94165363D01*
X73591708Y-94472372D01*
X73826393Y-94707466D01*
X74133179Y-94834855D01*
X74465363Y-94835145D01*
X74634249Y-94765363D01*
X76064855Y-94765363D01*
X76191708Y-95072372D01*
X76426393Y-95307466D01*
X76733179Y-95434855D01*
X77065363Y-95435145D01*
X77372372Y-95308292D01*
X77607466Y-95073607D01*
X77734855Y-94766821D01*
X77735145Y-94434637D01*
X77695330Y-94338275D01*
X83617817Y-94338275D01*
X83632000Y-94409903D01*
X83891152Y-94886944D01*
X84313133Y-95228499D01*
X84833700Y-95382570D01*
X85583000Y-95382570D01*
X85583000Y-94124000D01*
X85837000Y-94124000D01*
X85837000Y-95382570D01*
X86586300Y-95382570D01*
X87106867Y-95228499D01*
X87528848Y-94886944D01*
X87788000Y-94409903D01*
X87802183Y-94338275D01*
X88697817Y-94338275D01*
X88712000Y-94409903D01*
X88971152Y-94886944D01*
X89393133Y-95228499D01*
X89913700Y-95382570D01*
X90663000Y-95382570D01*
X90663000Y-94124000D01*
X90917000Y-94124000D01*
X90917000Y-95382570D01*
X91666300Y-95382570D01*
X92186867Y-95228499D01*
X92608848Y-94886944D01*
X92868000Y-94409903D01*
X92882183Y-94338275D01*
X92759529Y-94124000D01*
X90917000Y-94124000D01*
X90663000Y-94124000D01*
X88820471Y-94124000D01*
X88697817Y-94338275D01*
X87802183Y-94338275D01*
X87679529Y-94124000D01*
X85837000Y-94124000D01*
X85583000Y-94124000D01*
X83740471Y-94124000D01*
X83617817Y-94338275D01*
X77695330Y-94338275D01*
X77608292Y-94127628D01*
X77373607Y-93892534D01*
X77066821Y-93765145D01*
X76734637Y-93764855D01*
X76427628Y-93891708D01*
X76192534Y-94126393D01*
X76065145Y-94433179D01*
X76064855Y-94765363D01*
X74634249Y-94765363D01*
X74772372Y-94708292D01*
X75007466Y-94473607D01*
X75134855Y-94166821D01*
X75135145Y-93834637D01*
X75061221Y-93655725D01*
X83617817Y-93655725D01*
X83740471Y-93870000D01*
X85583000Y-93870000D01*
X85583000Y-92611430D01*
X85837000Y-92611430D01*
X85837000Y-93870000D01*
X87679529Y-93870000D01*
X87802183Y-93655725D01*
X88697817Y-93655725D01*
X88820471Y-93870000D01*
X90663000Y-93870000D01*
X90663000Y-92611430D01*
X90917000Y-92611430D01*
X90917000Y-93870000D01*
X92759529Y-93870000D01*
X92882183Y-93655725D01*
X92868000Y-93584097D01*
X92608848Y-93107056D01*
X92186867Y-92765501D01*
X91666300Y-92611430D01*
X90917000Y-92611430D01*
X90663000Y-92611430D01*
X89913700Y-92611430D01*
X89393133Y-92765501D01*
X88971152Y-93107056D01*
X88712000Y-93584097D01*
X88697817Y-93655725D01*
X87802183Y-93655725D01*
X87788000Y-93584097D01*
X87528848Y-93107056D01*
X87106867Y-92765501D01*
X86586300Y-92611430D01*
X85837000Y-92611430D01*
X85583000Y-92611430D01*
X84833700Y-92611430D01*
X84313133Y-92765501D01*
X83891152Y-93107056D01*
X83632000Y-93584097D01*
X83617817Y-93655725D01*
X75061221Y-93655725D01*
X75008292Y-93527628D01*
X74773607Y-93292534D01*
X74466821Y-93165145D01*
X74134637Y-93164855D01*
X73827628Y-93291708D01*
X73592534Y-93526393D01*
X73465145Y-93833179D01*
X73464855Y-94165363D01*
X64534249Y-94165363D01*
X64672372Y-94108292D01*
X64907466Y-93873607D01*
X65034855Y-93566821D01*
X65034943Y-93465363D01*
X65164855Y-93465363D01*
X65291708Y-93772372D01*
X65526393Y-94007466D01*
X65833179Y-94134855D01*
X66165363Y-94135145D01*
X66472372Y-94008292D01*
X66707466Y-93773607D01*
X66834855Y-93466821D01*
X66835145Y-93134637D01*
X66708292Y-92827628D01*
X66473607Y-92592534D01*
X66166821Y-92465145D01*
X65834637Y-92464855D01*
X65527628Y-92591708D01*
X65292534Y-92826393D01*
X65165145Y-93133179D01*
X65164855Y-93465363D01*
X65034943Y-93465363D01*
X65035145Y-93234637D01*
X64908292Y-92927628D01*
X64673607Y-92692534D01*
X64366821Y-92565145D01*
X64034637Y-92564855D01*
X63727628Y-92691708D01*
X63492534Y-92926393D01*
X63365145Y-93233179D01*
X63364855Y-93565363D01*
X58181771Y-93565363D01*
X58110871Y-93459254D01*
X57661360Y-93158900D01*
X57131125Y-93053430D01*
X55548875Y-93053430D01*
X55018640Y-93158900D01*
X54569129Y-93459254D01*
X54268775Y-93908765D01*
X54163305Y-94439000D01*
X53436695Y-94439000D01*
X53331225Y-93908765D01*
X53030871Y-93459254D01*
X52581360Y-93158900D01*
X52051125Y-93053430D01*
X50468875Y-93053430D01*
X49938640Y-93158900D01*
X49489129Y-93459254D01*
X49188775Y-93908765D01*
X49083305Y-94439000D01*
X47627000Y-94439000D01*
X47627000Y-91265363D01*
X61464855Y-91265363D01*
X61591708Y-91572372D01*
X61826393Y-91807466D01*
X62133179Y-91934855D01*
X62465363Y-91935145D01*
X62772372Y-91808292D01*
X63007466Y-91573607D01*
X63134855Y-91266821D01*
X63135145Y-90934637D01*
X63106522Y-90865363D01*
X68864855Y-90865363D01*
X68991708Y-91172372D01*
X69226393Y-91407466D01*
X69533179Y-91534855D01*
X69865363Y-91535145D01*
X70172372Y-91408292D01*
X70407466Y-91173607D01*
X70452412Y-91065363D01*
X78064855Y-91065363D01*
X78191708Y-91372372D01*
X78426393Y-91607466D01*
X78733179Y-91734855D01*
X79065363Y-91735145D01*
X79372372Y-91608292D01*
X79607466Y-91373607D01*
X79734855Y-91066821D01*
X79735145Y-90734637D01*
X79608292Y-90427628D01*
X79373607Y-90192534D01*
X79066821Y-90065145D01*
X78734637Y-90064855D01*
X78427628Y-90191708D01*
X78192534Y-90426393D01*
X78065145Y-90733179D01*
X78064855Y-91065363D01*
X70452412Y-91065363D01*
X70534855Y-90866821D01*
X70535145Y-90534637D01*
X70408292Y-90227628D01*
X70173607Y-89992534D01*
X69866821Y-89865145D01*
X69534637Y-89864855D01*
X69227628Y-89991708D01*
X68992534Y-90226393D01*
X68865145Y-90533179D01*
X68864855Y-90865363D01*
X63106522Y-90865363D01*
X63008292Y-90627628D01*
X62773607Y-90392534D01*
X62466821Y-90265145D01*
X62134637Y-90264855D01*
X61827628Y-90391708D01*
X61592534Y-90626393D01*
X61465145Y-90933179D01*
X61464855Y-91265363D01*
X47627000Y-91265363D01*
X47627000Y-89827275D01*
X49167817Y-89827275D01*
X49182000Y-89898903D01*
X49441152Y-90375944D01*
X49863133Y-90717499D01*
X50383700Y-90871570D01*
X51133000Y-90871570D01*
X51133000Y-89613000D01*
X51387000Y-89613000D01*
X51387000Y-90871570D01*
X52136300Y-90871570D01*
X52656867Y-90717499D01*
X53078848Y-90375944D01*
X53338000Y-89898903D01*
X53352183Y-89827275D01*
X54247817Y-89827275D01*
X54262000Y-89898903D01*
X54521152Y-90375944D01*
X54943133Y-90717499D01*
X55463700Y-90871570D01*
X56213000Y-90871570D01*
X56213000Y-89613000D01*
X56467000Y-89613000D01*
X56467000Y-90871570D01*
X57216300Y-90871570D01*
X57736867Y-90717499D01*
X58158848Y-90375944D01*
X58418000Y-89898903D01*
X58432183Y-89827275D01*
X58309529Y-89613000D01*
X56467000Y-89613000D01*
X56213000Y-89613000D01*
X54370471Y-89613000D01*
X54247817Y-89827275D01*
X53352183Y-89827275D01*
X53229529Y-89613000D01*
X51387000Y-89613000D01*
X51133000Y-89613000D01*
X49290471Y-89613000D01*
X49167817Y-89827275D01*
X47627000Y-89827275D01*
X47627000Y-89144725D01*
X49167817Y-89144725D01*
X49290471Y-89359000D01*
X51133000Y-89359000D01*
X51133000Y-88100430D01*
X51387000Y-88100430D01*
X51387000Y-89359000D01*
X53229529Y-89359000D01*
X53352183Y-89144725D01*
X54247817Y-89144725D01*
X54370471Y-89359000D01*
X56213000Y-89359000D01*
X56213000Y-88100430D01*
X56467000Y-88100430D01*
X56467000Y-89359000D01*
X58309529Y-89359000D01*
X58432183Y-89144725D01*
X58418000Y-89073097D01*
X58196499Y-88665363D01*
X63364855Y-88665363D01*
X63491708Y-88972372D01*
X63726393Y-89207466D01*
X64033179Y-89334855D01*
X64365363Y-89335145D01*
X64672372Y-89208292D01*
X64907466Y-88973607D01*
X65034855Y-88666821D01*
X65035145Y-88334637D01*
X64908292Y-88027628D01*
X64673607Y-87792534D01*
X64366821Y-87665145D01*
X64034637Y-87664855D01*
X63727628Y-87791708D01*
X63492534Y-88026393D01*
X63365145Y-88333179D01*
X63364855Y-88665363D01*
X58196499Y-88665363D01*
X58158848Y-88596056D01*
X57736867Y-88254501D01*
X57216300Y-88100430D01*
X56467000Y-88100430D01*
X56213000Y-88100430D01*
X55463700Y-88100430D01*
X54943133Y-88254501D01*
X54521152Y-88596056D01*
X54262000Y-89073097D01*
X54247817Y-89144725D01*
X53352183Y-89144725D01*
X53338000Y-89073097D01*
X53078848Y-88596056D01*
X52656867Y-88254501D01*
X52136300Y-88100430D01*
X51387000Y-88100430D01*
X51133000Y-88100430D01*
X50383700Y-88100430D01*
X49863133Y-88254501D01*
X49441152Y-88596056D01*
X49182000Y-89073097D01*
X49167817Y-89144725D01*
X47627000Y-89144725D01*
X47627000Y-87265363D01*
X69864855Y-87265363D01*
X69991708Y-87572372D01*
X70226393Y-87807466D01*
X70533179Y-87934855D01*
X70589000Y-87934904D01*
X70465145Y-88233179D01*
X70464855Y-88565363D01*
X70591708Y-88872372D01*
X70826393Y-89107466D01*
X71133179Y-89234855D01*
X71465363Y-89235145D01*
X71772372Y-89108292D01*
X71836776Y-89044000D01*
X83533305Y-89044000D01*
X83638775Y-89574235D01*
X83939129Y-90023746D01*
X84388640Y-90324100D01*
X84918875Y-90429570D01*
X86501125Y-90429570D01*
X87031360Y-90324100D01*
X87480871Y-90023746D01*
X87781225Y-89574235D01*
X87886695Y-89044000D01*
X88613305Y-89044000D01*
X88718775Y-89574235D01*
X89019129Y-90023746D01*
X89468640Y-90324100D01*
X89998875Y-90429570D01*
X91581125Y-90429570D01*
X92111360Y-90324100D01*
X92560871Y-90023746D01*
X92861225Y-89574235D01*
X92966695Y-89044000D01*
X92861225Y-88513765D01*
X92560871Y-88064254D01*
X92111360Y-87763900D01*
X91581125Y-87658430D01*
X89998875Y-87658430D01*
X89468640Y-87763900D01*
X89019129Y-88064254D01*
X88718775Y-88513765D01*
X88613305Y-89044000D01*
X87886695Y-89044000D01*
X87781225Y-88513765D01*
X87480871Y-88064254D01*
X87031360Y-87763900D01*
X86501125Y-87658430D01*
X84918875Y-87658430D01*
X84388640Y-87763900D01*
X83939129Y-88064254D01*
X83638775Y-88513765D01*
X83533305Y-89044000D01*
X71836776Y-89044000D01*
X72007466Y-88873607D01*
X72134855Y-88566821D01*
X72135145Y-88234637D01*
X72008292Y-87927628D01*
X71773607Y-87692534D01*
X71466821Y-87565145D01*
X71411000Y-87565096D01*
X71534855Y-87266821D01*
X71535145Y-86934637D01*
X71408292Y-86627628D01*
X71246310Y-86465363D01*
X75164855Y-86465363D01*
X75291708Y-86772372D01*
X75490678Y-86971689D01*
X75465145Y-87033179D01*
X75464855Y-87365363D01*
X75591708Y-87672372D01*
X75826393Y-87907466D01*
X76133179Y-88034855D01*
X76465363Y-88035145D01*
X76772372Y-87908292D01*
X77007466Y-87673607D01*
X77134855Y-87366821D01*
X77134943Y-87265363D01*
X79864855Y-87265363D01*
X79991708Y-87572372D01*
X80226393Y-87807466D01*
X80533179Y-87934855D01*
X80865363Y-87935145D01*
X81172372Y-87808292D01*
X81407466Y-87573607D01*
X81534855Y-87266821D01*
X81535145Y-86934637D01*
X81408292Y-86627628D01*
X81173607Y-86392534D01*
X80866821Y-86265145D01*
X80534637Y-86264855D01*
X80227628Y-86391708D01*
X79992534Y-86626393D01*
X79865145Y-86933179D01*
X79864855Y-87265363D01*
X77134943Y-87265363D01*
X77135145Y-87034637D01*
X77008292Y-86727628D01*
X76809322Y-86528311D01*
X76834855Y-86466821D01*
X76835145Y-86134637D01*
X76708292Y-85827628D01*
X76473607Y-85592534D01*
X76166821Y-85465145D01*
X75834637Y-85464855D01*
X75527628Y-85591708D01*
X75292534Y-85826393D01*
X75165145Y-86133179D01*
X75164855Y-86465363D01*
X71246310Y-86465363D01*
X71173607Y-86392534D01*
X70866821Y-86265145D01*
X70534637Y-86264855D01*
X70227628Y-86391708D01*
X69992534Y-86626393D01*
X69865145Y-86933179D01*
X69864855Y-87265363D01*
X47627000Y-87265363D01*
X47627000Y-86065363D01*
X63264855Y-86065363D01*
X63391708Y-86372372D01*
X63626393Y-86607466D01*
X63933179Y-86734855D01*
X64265363Y-86735145D01*
X64572372Y-86608292D01*
X64807466Y-86373607D01*
X64934855Y-86066821D01*
X64935145Y-85734637D01*
X64851671Y-85532614D01*
X64926393Y-85607466D01*
X65233179Y-85734855D01*
X65565363Y-85735145D01*
X65872372Y-85608292D01*
X66107466Y-85373607D01*
X66234855Y-85066821D01*
X66235118Y-84765363D01*
X76364855Y-84765363D01*
X76491708Y-85072372D01*
X76726393Y-85307466D01*
X77033179Y-85434855D01*
X77365363Y-85435145D01*
X77672372Y-85308292D01*
X77907466Y-85073607D01*
X78034855Y-84766821D01*
X78035067Y-84523706D01*
X78072372Y-84508292D01*
X78275742Y-84305275D01*
X83617817Y-84305275D01*
X83632000Y-84376903D01*
X83891152Y-84853944D01*
X84313133Y-85195499D01*
X84833700Y-85349570D01*
X85583000Y-85349570D01*
X85583000Y-84091000D01*
X85837000Y-84091000D01*
X85837000Y-85349570D01*
X86586300Y-85349570D01*
X87106867Y-85195499D01*
X87528848Y-84853944D01*
X87788000Y-84376903D01*
X87802183Y-84305275D01*
X88697817Y-84305275D01*
X88712000Y-84376903D01*
X88971152Y-84853944D01*
X89393133Y-85195499D01*
X89913700Y-85349570D01*
X90663000Y-85349570D01*
X90663000Y-84091000D01*
X90917000Y-84091000D01*
X90917000Y-85349570D01*
X91666300Y-85349570D01*
X92186867Y-85195499D01*
X92608848Y-84853944D01*
X92868000Y-84376903D01*
X92882183Y-84305275D01*
X92759529Y-84091000D01*
X90917000Y-84091000D01*
X90663000Y-84091000D01*
X88820471Y-84091000D01*
X88697817Y-84305275D01*
X87802183Y-84305275D01*
X87679529Y-84091000D01*
X85837000Y-84091000D01*
X85583000Y-84091000D01*
X83740471Y-84091000D01*
X83617817Y-84305275D01*
X78275742Y-84305275D01*
X78307466Y-84273607D01*
X78391124Y-84072136D01*
X78426393Y-84107466D01*
X78733179Y-84234855D01*
X79065363Y-84235145D01*
X79372372Y-84108292D01*
X79607466Y-83873607D01*
X79711641Y-83622725D01*
X83617817Y-83622725D01*
X83740471Y-83837000D01*
X85583000Y-83837000D01*
X85583000Y-82578430D01*
X85837000Y-82578430D01*
X85837000Y-83837000D01*
X87679529Y-83837000D01*
X87802183Y-83622725D01*
X88697817Y-83622725D01*
X88820471Y-83837000D01*
X90663000Y-83837000D01*
X90663000Y-82578430D01*
X90917000Y-82578430D01*
X90917000Y-83837000D01*
X92759529Y-83837000D01*
X92882183Y-83622725D01*
X92868000Y-83551097D01*
X92608848Y-83074056D01*
X92186867Y-82732501D01*
X91666300Y-82578430D01*
X90917000Y-82578430D01*
X90663000Y-82578430D01*
X89913700Y-82578430D01*
X89393133Y-82732501D01*
X88971152Y-83074056D01*
X88712000Y-83551097D01*
X88697817Y-83622725D01*
X87802183Y-83622725D01*
X87788000Y-83551097D01*
X87528848Y-83074056D01*
X87106867Y-82732501D01*
X86586300Y-82578430D01*
X85837000Y-82578430D01*
X85583000Y-82578430D01*
X84833700Y-82578430D01*
X84313133Y-82732501D01*
X83891152Y-83074056D01*
X83632000Y-83551097D01*
X83617817Y-83622725D01*
X79711641Y-83622725D01*
X79734855Y-83566821D01*
X79735145Y-83234637D01*
X79608292Y-82927628D01*
X79373607Y-82692534D01*
X79066821Y-82565145D01*
X78734637Y-82564855D01*
X78427628Y-82691708D01*
X78192534Y-82926393D01*
X78108876Y-83127864D01*
X78073607Y-83092534D01*
X77766821Y-82965145D01*
X77434637Y-82964855D01*
X77127628Y-83091708D01*
X76892534Y-83326393D01*
X76765145Y-83633179D01*
X76764933Y-83876294D01*
X76727628Y-83891708D01*
X76492534Y-84126393D01*
X76365145Y-84433179D01*
X76364855Y-84765363D01*
X66235118Y-84765363D01*
X66235145Y-84734637D01*
X66108292Y-84427628D01*
X65873607Y-84192534D01*
X65566821Y-84065145D01*
X65234637Y-84064855D01*
X64927628Y-84191708D01*
X64692534Y-84426393D01*
X64565145Y-84733179D01*
X64564855Y-85065363D01*
X64648329Y-85267386D01*
X64573607Y-85192534D01*
X64266821Y-85065145D01*
X63934637Y-85064855D01*
X63627628Y-85191708D01*
X63392534Y-85426393D01*
X63265145Y-85733179D01*
X63264855Y-86065363D01*
X47627000Y-86065363D01*
X47627000Y-84406000D01*
X49083305Y-84406000D01*
X49188775Y-84936235D01*
X49489129Y-85385746D01*
X49938640Y-85686100D01*
X50468875Y-85791570D01*
X52051125Y-85791570D01*
X52581360Y-85686100D01*
X53030871Y-85385746D01*
X53331225Y-84936235D01*
X53436695Y-84406000D01*
X54163305Y-84406000D01*
X54268775Y-84936235D01*
X54569129Y-85385746D01*
X55018640Y-85686100D01*
X55548875Y-85791570D01*
X57131125Y-85791570D01*
X57661360Y-85686100D01*
X58110871Y-85385746D01*
X58411225Y-84936235D01*
X58516695Y-84406000D01*
X58411225Y-83875765D01*
X58110871Y-83426254D01*
X57720421Y-83165363D01*
X67914855Y-83165363D01*
X68041708Y-83472372D01*
X68276393Y-83707466D01*
X68583179Y-83834855D01*
X68664925Y-83834926D01*
X68664855Y-83915363D01*
X68791708Y-84222372D01*
X69026393Y-84457466D01*
X69333179Y-84584855D01*
X69665363Y-84585145D01*
X69972372Y-84458292D01*
X70207466Y-84223607D01*
X70334855Y-83916821D01*
X70335145Y-83584637D01*
X70208292Y-83277628D01*
X69973607Y-83042534D01*
X69666821Y-82915145D01*
X69585075Y-82915074D01*
X69585145Y-82834637D01*
X69458292Y-82527628D01*
X69223607Y-82292534D01*
X68916821Y-82165145D01*
X68584637Y-82164855D01*
X68277628Y-82291708D01*
X68042534Y-82526393D01*
X67915145Y-82833179D01*
X67914855Y-83165363D01*
X57720421Y-83165363D01*
X57661360Y-83125900D01*
X57131125Y-83020430D01*
X55548875Y-83020430D01*
X55018640Y-83125900D01*
X54569129Y-83426254D01*
X54268775Y-83875765D01*
X54163305Y-84406000D01*
X53436695Y-84406000D01*
X53331225Y-83875765D01*
X53030871Y-83426254D01*
X52581360Y-83125900D01*
X52051125Y-83020430D01*
X50468875Y-83020430D01*
X49938640Y-83125900D01*
X49489129Y-83426254D01*
X49188775Y-83875765D01*
X49083305Y-84406000D01*
X47627000Y-84406000D01*
X47627000Y-81915363D01*
X69664855Y-81915363D01*
X69791708Y-82222372D01*
X70026393Y-82457466D01*
X70333179Y-82584855D01*
X70665363Y-82585145D01*
X70972372Y-82458292D01*
X71207466Y-82223607D01*
X71272094Y-82067966D01*
X71433179Y-82134855D01*
X71765363Y-82135145D01*
X72072372Y-82008292D01*
X72307466Y-81773607D01*
X72434855Y-81466821D01*
X72435145Y-81134637D01*
X72308292Y-80827628D01*
X72073607Y-80592534D01*
X71850591Y-80499930D01*
X72072372Y-80408292D01*
X72307466Y-80173607D01*
X72434855Y-79866821D01*
X72434943Y-79765363D01*
X76864855Y-79765363D01*
X76991708Y-80072372D01*
X77226393Y-80307466D01*
X77533179Y-80434855D01*
X77865363Y-80435145D01*
X78172372Y-80308292D01*
X78407466Y-80073607D01*
X78534855Y-79766821D01*
X78535145Y-79434637D01*
X78408292Y-79127628D01*
X78291867Y-79011000D01*
X83533305Y-79011000D01*
X83638775Y-79541235D01*
X83939129Y-79990746D01*
X84388640Y-80291100D01*
X84918875Y-80396570D01*
X86501125Y-80396570D01*
X87031360Y-80291100D01*
X87480871Y-79990746D01*
X87781225Y-79541235D01*
X87886695Y-79011000D01*
X88613305Y-79011000D01*
X88718775Y-79541235D01*
X89019129Y-79990746D01*
X89468640Y-80291100D01*
X89998875Y-80396570D01*
X91581125Y-80396570D01*
X92111360Y-80291100D01*
X92560871Y-79990746D01*
X92861225Y-79541235D01*
X92966695Y-79011000D01*
X92861225Y-78480765D01*
X92560871Y-78031254D01*
X92111360Y-77730900D01*
X91581125Y-77625430D01*
X89998875Y-77625430D01*
X89468640Y-77730900D01*
X89019129Y-78031254D01*
X88718775Y-78480765D01*
X88613305Y-79011000D01*
X87886695Y-79011000D01*
X87781225Y-78480765D01*
X87480871Y-78031254D01*
X87031360Y-77730900D01*
X86501125Y-77625430D01*
X84918875Y-77625430D01*
X84388640Y-77730900D01*
X83939129Y-78031254D01*
X83638775Y-78480765D01*
X83533305Y-79011000D01*
X78291867Y-79011000D01*
X78173607Y-78892534D01*
X77866821Y-78765145D01*
X77534637Y-78764855D01*
X77227628Y-78891708D01*
X76992534Y-79126393D01*
X76865145Y-79433179D01*
X76864855Y-79765363D01*
X72434943Y-79765363D01*
X72435145Y-79534637D01*
X72308292Y-79227628D01*
X72073607Y-78992534D01*
X71766821Y-78865145D01*
X71434637Y-78864855D01*
X71127628Y-78991708D01*
X70892534Y-79226393D01*
X70765145Y-79533179D01*
X70764855Y-79865363D01*
X70891708Y-80172372D01*
X71126393Y-80407466D01*
X71349409Y-80500070D01*
X71127628Y-80591708D01*
X70892534Y-80826393D01*
X70827906Y-80982034D01*
X70666821Y-80915145D01*
X70334637Y-80914855D01*
X70027628Y-81041708D01*
X69792534Y-81276393D01*
X69665145Y-81583179D01*
X69664855Y-81915363D01*
X47627000Y-81915363D01*
X47627000Y-81065363D01*
X63364855Y-81065363D01*
X63491708Y-81372372D01*
X63726393Y-81607466D01*
X64033179Y-81734855D01*
X64365363Y-81735145D01*
X64672372Y-81608292D01*
X64907466Y-81373607D01*
X65034855Y-81066821D01*
X65035145Y-80734637D01*
X64908292Y-80427628D01*
X64673607Y-80192534D01*
X64366821Y-80065145D01*
X64034637Y-80064855D01*
X63727628Y-80191708D01*
X63492534Y-80426393D01*
X63365145Y-80733179D01*
X63364855Y-81065363D01*
X47627000Y-81065363D01*
X47627000Y-79794275D01*
X49167817Y-79794275D01*
X49182000Y-79865903D01*
X49441152Y-80342944D01*
X49863133Y-80684499D01*
X50383700Y-80838570D01*
X51133000Y-80838570D01*
X51133000Y-79580000D01*
X51387000Y-79580000D01*
X51387000Y-80838570D01*
X52136300Y-80838570D01*
X52656867Y-80684499D01*
X53078848Y-80342944D01*
X53338000Y-79865903D01*
X53352183Y-79794275D01*
X54247817Y-79794275D01*
X54262000Y-79865903D01*
X54521152Y-80342944D01*
X54943133Y-80684499D01*
X55463700Y-80838570D01*
X56213000Y-80838570D01*
X56213000Y-79580000D01*
X56467000Y-79580000D01*
X56467000Y-80838570D01*
X57216300Y-80838570D01*
X57736867Y-80684499D01*
X58158848Y-80342944D01*
X58418000Y-79865903D01*
X58432183Y-79794275D01*
X58309529Y-79580000D01*
X56467000Y-79580000D01*
X56213000Y-79580000D01*
X54370471Y-79580000D01*
X54247817Y-79794275D01*
X53352183Y-79794275D01*
X53229529Y-79580000D01*
X51387000Y-79580000D01*
X51133000Y-79580000D01*
X49290471Y-79580000D01*
X49167817Y-79794275D01*
X47627000Y-79794275D01*
X47627000Y-79111725D01*
X49167817Y-79111725D01*
X49290471Y-79326000D01*
X51133000Y-79326000D01*
X51133000Y-78067430D01*
X51387000Y-78067430D01*
X51387000Y-79326000D01*
X53229529Y-79326000D01*
X53352183Y-79111725D01*
X54247817Y-79111725D01*
X54370471Y-79326000D01*
X56213000Y-79326000D01*
X56213000Y-78067430D01*
X56467000Y-78067430D01*
X56467000Y-79326000D01*
X58309529Y-79326000D01*
X58432183Y-79111725D01*
X58418000Y-79040097D01*
X58160102Y-78565363D01*
X63364855Y-78565363D01*
X63491708Y-78872372D01*
X63726393Y-79107466D01*
X64033179Y-79234855D01*
X64365363Y-79235145D01*
X64672372Y-79108292D01*
X64907466Y-78873607D01*
X65034855Y-78566821D01*
X65035145Y-78234637D01*
X65006522Y-78165363D01*
X74164855Y-78165363D01*
X74291708Y-78472372D01*
X74526393Y-78707466D01*
X74833179Y-78834855D01*
X75165363Y-78835145D01*
X75472372Y-78708292D01*
X75707466Y-78473607D01*
X75834855Y-78166821D01*
X75835145Y-77834637D01*
X75708292Y-77527628D01*
X75473607Y-77292534D01*
X75408173Y-77265363D01*
X76764855Y-77265363D01*
X76891708Y-77572372D01*
X77126393Y-77807466D01*
X77433179Y-77934855D01*
X77765363Y-77935145D01*
X78072372Y-77808292D01*
X78307466Y-77573607D01*
X78434855Y-77266821D01*
X78435145Y-76934637D01*
X78308292Y-76627628D01*
X78073607Y-76392534D01*
X77766821Y-76265145D01*
X77434637Y-76264855D01*
X77127628Y-76391708D01*
X76892534Y-76626393D01*
X76765145Y-76933179D01*
X76764855Y-77265363D01*
X75408173Y-77265363D01*
X75166821Y-77165145D01*
X74834637Y-77164855D01*
X74527628Y-77291708D01*
X74292534Y-77526393D01*
X74165145Y-77833179D01*
X74164855Y-78165363D01*
X65006522Y-78165363D01*
X64908292Y-77927628D01*
X64673607Y-77692534D01*
X64366821Y-77565145D01*
X64034637Y-77564855D01*
X63727628Y-77691708D01*
X63492534Y-77926393D01*
X63365145Y-78233179D01*
X63364855Y-78565363D01*
X58160102Y-78565363D01*
X58158848Y-78563056D01*
X57736867Y-78221501D01*
X57216300Y-78067430D01*
X56467000Y-78067430D01*
X56213000Y-78067430D01*
X55463700Y-78067430D01*
X54943133Y-78221501D01*
X54521152Y-78563056D01*
X54262000Y-79040097D01*
X54247817Y-79111725D01*
X53352183Y-79111725D01*
X53338000Y-79040097D01*
X53078848Y-78563056D01*
X52656867Y-78221501D01*
X52136300Y-78067430D01*
X51387000Y-78067430D01*
X51133000Y-78067430D01*
X50383700Y-78067430D01*
X49863133Y-78221501D01*
X49441152Y-78563056D01*
X49182000Y-79040097D01*
X49167817Y-79111725D01*
X47627000Y-79111725D01*
X47627000Y-77415363D01*
X69664855Y-77415363D01*
X69791708Y-77722372D01*
X70026393Y-77957466D01*
X70333179Y-78084855D01*
X70665363Y-78085145D01*
X70972372Y-77958292D01*
X71207466Y-77723607D01*
X71334855Y-77416821D01*
X71335145Y-77084637D01*
X71208292Y-76777628D01*
X70973607Y-76542534D01*
X70666821Y-76415145D01*
X70334637Y-76414855D01*
X70027628Y-76541708D01*
X69792534Y-76776393D01*
X69665145Y-77083179D01*
X69664855Y-77415363D01*
X47627000Y-77415363D01*
X47627000Y-74373000D01*
X49083305Y-74373000D01*
X49188775Y-74903235D01*
X49489129Y-75352746D01*
X49938640Y-75653100D01*
X50468875Y-75758570D01*
X52051125Y-75758570D01*
X52581360Y-75653100D01*
X53030871Y-75352746D01*
X53331225Y-74903235D01*
X53436695Y-74373000D01*
X54163305Y-74373000D01*
X54268775Y-74903235D01*
X54569129Y-75352746D01*
X55018640Y-75653100D01*
X55548875Y-75758570D01*
X57131125Y-75758570D01*
X57661360Y-75653100D01*
X58110871Y-75352746D01*
X58411225Y-74903235D01*
X58511468Y-74399275D01*
X83617817Y-74399275D01*
X83632000Y-74470903D01*
X83891152Y-74947944D01*
X84313133Y-75289499D01*
X84833700Y-75443570D01*
X85583000Y-75443570D01*
X85583000Y-74185000D01*
X85837000Y-74185000D01*
X85837000Y-75443570D01*
X86586300Y-75443570D01*
X87106867Y-75289499D01*
X87528848Y-74947944D01*
X87788000Y-74470903D01*
X87802183Y-74399275D01*
X88697817Y-74399275D01*
X88712000Y-74470903D01*
X88971152Y-74947944D01*
X89393133Y-75289499D01*
X89913700Y-75443570D01*
X90663000Y-75443570D01*
X90663000Y-74185000D01*
X90917000Y-74185000D01*
X90917000Y-75443570D01*
X91666300Y-75443570D01*
X92186867Y-75289499D01*
X92608848Y-74947944D01*
X92868000Y-74470903D01*
X92882183Y-74399275D01*
X92759529Y-74185000D01*
X90917000Y-74185000D01*
X90663000Y-74185000D01*
X88820471Y-74185000D01*
X88697817Y-74399275D01*
X87802183Y-74399275D01*
X87679529Y-74185000D01*
X85837000Y-74185000D01*
X85583000Y-74185000D01*
X83740471Y-74185000D01*
X83617817Y-74399275D01*
X58511468Y-74399275D01*
X58516695Y-74373000D01*
X58411225Y-73842765D01*
X58292689Y-73665363D01*
X63464855Y-73665363D01*
X63591708Y-73972372D01*
X63826393Y-74207466D01*
X64133179Y-74334855D01*
X64465363Y-74335145D01*
X64772372Y-74208292D01*
X65007466Y-73973607D01*
X65064997Y-73835057D01*
X65165363Y-73835145D01*
X65451962Y-73716725D01*
X83617817Y-73716725D01*
X83740471Y-73931000D01*
X85583000Y-73931000D01*
X85583000Y-72672430D01*
X85837000Y-72672430D01*
X85837000Y-73931000D01*
X87679529Y-73931000D01*
X87802183Y-73716725D01*
X88697817Y-73716725D01*
X88820471Y-73931000D01*
X90663000Y-73931000D01*
X90663000Y-72672430D01*
X90917000Y-72672430D01*
X90917000Y-73931000D01*
X92759529Y-73931000D01*
X92882183Y-73716725D01*
X92868000Y-73645097D01*
X92608848Y-73168056D01*
X92186867Y-72826501D01*
X91666300Y-72672430D01*
X90917000Y-72672430D01*
X90663000Y-72672430D01*
X89913700Y-72672430D01*
X89393133Y-72826501D01*
X88971152Y-73168056D01*
X88712000Y-73645097D01*
X88697817Y-73716725D01*
X87802183Y-73716725D01*
X87788000Y-73645097D01*
X87528848Y-73168056D01*
X87106867Y-72826501D01*
X86586300Y-72672430D01*
X85837000Y-72672430D01*
X85583000Y-72672430D01*
X84833700Y-72672430D01*
X84313133Y-72826501D01*
X83891152Y-73168056D01*
X83632000Y-73645097D01*
X83617817Y-73716725D01*
X65451962Y-73716725D01*
X65472372Y-73708292D01*
X65707466Y-73473607D01*
X65834855Y-73166821D01*
X65835145Y-72834637D01*
X65708292Y-72527628D01*
X65473607Y-72292534D01*
X65167347Y-72165363D01*
X73414855Y-72165363D01*
X73541708Y-72472372D01*
X73776393Y-72707466D01*
X74083179Y-72834855D01*
X74415363Y-72835145D01*
X74722372Y-72708292D01*
X74957466Y-72473607D01*
X75002412Y-72365363D01*
X76664855Y-72365363D01*
X76791708Y-72672372D01*
X77026393Y-72907466D01*
X77333179Y-73034855D01*
X77665363Y-73035145D01*
X77972372Y-72908292D01*
X78207466Y-72673607D01*
X78334855Y-72366821D01*
X78335145Y-72034637D01*
X78208292Y-71727628D01*
X77973607Y-71492534D01*
X77666821Y-71365145D01*
X77334637Y-71364855D01*
X77027628Y-71491708D01*
X76792534Y-71726393D01*
X76665145Y-72033179D01*
X76664855Y-72365363D01*
X75002412Y-72365363D01*
X75084855Y-72166821D01*
X75085145Y-71834637D01*
X74958292Y-71527628D01*
X74723607Y-71292534D01*
X74416821Y-71165145D01*
X74084637Y-71164855D01*
X73777628Y-71291708D01*
X73542534Y-71526393D01*
X73415145Y-71833179D01*
X73414855Y-72165363D01*
X65167347Y-72165363D01*
X65166821Y-72165145D01*
X64834637Y-72164855D01*
X64527628Y-72291708D01*
X64292534Y-72526393D01*
X64235003Y-72664943D01*
X64134637Y-72664855D01*
X63827628Y-72791708D01*
X63592534Y-73026393D01*
X63465145Y-73333179D01*
X63464855Y-73665363D01*
X58292689Y-73665363D01*
X58110871Y-73393254D01*
X57661360Y-73092900D01*
X57131125Y-72987430D01*
X55548875Y-72987430D01*
X55018640Y-73092900D01*
X54569129Y-73393254D01*
X54268775Y-73842765D01*
X54163305Y-74373000D01*
X53436695Y-74373000D01*
X53331225Y-73842765D01*
X53030871Y-73393254D01*
X52581360Y-73092900D01*
X52051125Y-72987430D01*
X50468875Y-72987430D01*
X49938640Y-73092900D01*
X49489129Y-73393254D01*
X49188775Y-73842765D01*
X49083305Y-74373000D01*
X47627000Y-74373000D01*
X47627000Y-71065363D01*
X63464855Y-71065363D01*
X63591708Y-71372372D01*
X63826393Y-71607466D01*
X64133179Y-71734855D01*
X64465363Y-71735145D01*
X64772372Y-71608292D01*
X65007466Y-71373607D01*
X65134855Y-71066821D01*
X65135145Y-70734637D01*
X65008292Y-70427628D01*
X64773607Y-70192534D01*
X64466821Y-70065145D01*
X64134637Y-70064855D01*
X63827628Y-70191708D01*
X63592534Y-70426393D01*
X63465145Y-70733179D01*
X63464855Y-71065363D01*
X47627000Y-71065363D01*
X47627000Y-69761275D01*
X49167817Y-69761275D01*
X49182000Y-69832903D01*
X49441152Y-70309944D01*
X49863133Y-70651499D01*
X50383700Y-70805570D01*
X51133000Y-70805570D01*
X51133000Y-69547000D01*
X51387000Y-69547000D01*
X51387000Y-70805570D01*
X52136300Y-70805570D01*
X52656867Y-70651499D01*
X53078848Y-70309944D01*
X53338000Y-69832903D01*
X53352183Y-69761275D01*
X54247817Y-69761275D01*
X54262000Y-69832903D01*
X54521152Y-70309944D01*
X54943133Y-70651499D01*
X55463700Y-70805570D01*
X56213000Y-70805570D01*
X56213000Y-69547000D01*
X56467000Y-69547000D01*
X56467000Y-70805570D01*
X57216300Y-70805570D01*
X57736867Y-70651499D01*
X58158848Y-70309944D01*
X58373203Y-69915363D01*
X66664855Y-69915363D01*
X66791708Y-70222372D01*
X67026393Y-70457466D01*
X67333179Y-70584855D01*
X67665363Y-70585145D01*
X67972372Y-70458292D01*
X68207466Y-70223607D01*
X68334855Y-69916821D01*
X68334987Y-69765363D01*
X76664855Y-69765363D01*
X76791708Y-70072372D01*
X77026393Y-70307466D01*
X77333179Y-70434855D01*
X77665363Y-70435145D01*
X77972372Y-70308292D01*
X78207466Y-70073607D01*
X78334855Y-69766821D01*
X78335145Y-69434637D01*
X78208292Y-69127628D01*
X78058925Y-68978000D01*
X83533305Y-68978000D01*
X83638775Y-69508235D01*
X83939129Y-69957746D01*
X84388640Y-70258100D01*
X84918875Y-70363570D01*
X86501125Y-70363570D01*
X87031360Y-70258100D01*
X87480871Y-69957746D01*
X87781225Y-69508235D01*
X87886695Y-68978000D01*
X88613305Y-68978000D01*
X88718775Y-69508235D01*
X89019129Y-69957746D01*
X89468640Y-70258100D01*
X89998875Y-70363570D01*
X91581125Y-70363570D01*
X92111360Y-70258100D01*
X92560871Y-69957746D01*
X92861225Y-69508235D01*
X92966695Y-68978000D01*
X92861225Y-68447765D01*
X92560871Y-67998254D01*
X92111360Y-67697900D01*
X91581125Y-67592430D01*
X89998875Y-67592430D01*
X89468640Y-67697900D01*
X89019129Y-67998254D01*
X88718775Y-68447765D01*
X88613305Y-68978000D01*
X87886695Y-68978000D01*
X87781225Y-68447765D01*
X87480871Y-67998254D01*
X87031360Y-67697900D01*
X86501125Y-67592430D01*
X84918875Y-67592430D01*
X84388640Y-67697900D01*
X83939129Y-67998254D01*
X83638775Y-68447765D01*
X83533305Y-68978000D01*
X78058925Y-68978000D01*
X77973607Y-68892534D01*
X77666821Y-68765145D01*
X77334637Y-68764855D01*
X77027628Y-68891708D01*
X76792534Y-69126393D01*
X76665145Y-69433179D01*
X76664855Y-69765363D01*
X68334987Y-69765363D01*
X68335145Y-69584637D01*
X68208292Y-69277628D01*
X67973607Y-69042534D01*
X67666821Y-68915145D01*
X67334637Y-68914855D01*
X67027628Y-69041708D01*
X66792534Y-69276393D01*
X66665145Y-69583179D01*
X66664855Y-69915363D01*
X58373203Y-69915363D01*
X58418000Y-69832903D01*
X58432183Y-69761275D01*
X58309529Y-69547000D01*
X56467000Y-69547000D01*
X56213000Y-69547000D01*
X54370471Y-69547000D01*
X54247817Y-69761275D01*
X53352183Y-69761275D01*
X53229529Y-69547000D01*
X51387000Y-69547000D01*
X51133000Y-69547000D01*
X49290471Y-69547000D01*
X49167817Y-69761275D01*
X47627000Y-69761275D01*
X47627000Y-69078725D01*
X49167817Y-69078725D01*
X49290471Y-69293000D01*
X51133000Y-69293000D01*
X51133000Y-68034430D01*
X51387000Y-68034430D01*
X51387000Y-69293000D01*
X53229529Y-69293000D01*
X53352183Y-69078725D01*
X54247817Y-69078725D01*
X54370471Y-69293000D01*
X56213000Y-69293000D01*
X56213000Y-68034430D01*
X56467000Y-68034430D01*
X56467000Y-69293000D01*
X58309529Y-69293000D01*
X58432183Y-69078725D01*
X58418000Y-69007097D01*
X58158848Y-68530056D01*
X57736867Y-68188501D01*
X57216300Y-68034430D01*
X56467000Y-68034430D01*
X56213000Y-68034430D01*
X55463700Y-68034430D01*
X54943133Y-68188501D01*
X54521152Y-68530056D01*
X54262000Y-69007097D01*
X54247817Y-69078725D01*
X53352183Y-69078725D01*
X53338000Y-69007097D01*
X53078848Y-68530056D01*
X52656867Y-68188501D01*
X52136300Y-68034430D01*
X51387000Y-68034430D01*
X51133000Y-68034430D01*
X50383700Y-68034430D01*
X49863133Y-68188501D01*
X49441152Y-68530056D01*
X49182000Y-69007097D01*
X49167817Y-69078725D01*
X47627000Y-69078725D01*
X47627000Y-62785750D01*
X48690000Y-62785750D01*
X48690000Y-63551310D01*
X48786673Y-63784699D01*
X48965302Y-63963327D01*
X49198691Y-64060000D01*
X49964250Y-64060000D01*
X50123000Y-63901250D01*
X50123000Y-62627000D01*
X48848750Y-62627000D01*
X48690000Y-62785750D01*
X47627000Y-62785750D01*
X47627000Y-61127000D01*
X48874974Y-61127000D01*
X48786673Y-61215301D01*
M02*
