M48
;DRILL file {KiCad 4.0.4-stable} date Wednesday, 26 April 2017 'PMt' 10:41:05 PM
;FORMAT={-:-/ absolute / inch / decimal}
FMAT,2
INCH,TZ
T1C0.012
T2C0.031
T3C0.035
T4C0.039
T5C0.071
T6C0.098
%
G90
G05
M72
T1
X1.8898Y-3.9567
X1.9291Y-4.0354
X2.4528Y-3.5866
X2.5236Y-3.3819
X2.5276Y-3.0866
X2.5276Y-3.185
X2.5276Y-3.4843
X2.5276Y-3.6772
X2.5276Y-3.7795
X2.5315Y-2.7913
X2.5315Y-2.8937
X2.5591Y-2.874
X2.5748Y-3.3425
X2.5748Y-3.378
X2.5984Y-3.6732
X2.6299Y-3.0669
X2.6457Y-3.7244
X2.6535Y-2.8425
X2.6575Y-2.7461
X2.7067Y-3.2677
X2.7362Y-3.2972
X2.7441Y-3.5709
X2.7756Y-3.0413
X2.7756Y-3.2185
X2.7756Y-3.4646
X2.7835Y-3.4291
X2.8071Y-3.0591
X2.8071Y-3.4803
X2.8189Y-3.1378
X2.8189Y-3.2008
X2.9232Y-2.8346
X2.9252Y-3.7008
X2.9252Y-3.7756
X2.9331Y-2.7913
X2.9528Y-3.0709
X2.9921Y-3.3976
X3.0039Y-3.4331
X3.0276Y-3.7244
X3.0394Y-3.3307
X3.0512Y-2.7402
X3.0512Y-2.8425
X3.0551Y-3.0354
X3.0551Y-3.2992
X3.0591Y-3.1339
X3.1063Y-3.2835
X3.1063Y-3.5787
X3.1772Y-3.4291
T2
X2.6937Y-3.9075
X2.6937Y-4.2075
X2.7937Y-3.9075
X2.7937Y-4.2075
X2.8937Y-3.9075
X2.8937Y-4.2075
T3
X1.9783Y-2.4606
X1.9783Y-4.3307
X1.9783Y-4.5472
X2.0768Y-2.4606
X2.0768Y-4.3307
X2.0768Y-4.5472
X2.1752Y-2.4606
X2.1752Y-4.3307
X2.1752Y-4.5472
T4
X2.0181Y-2.7331
X2.0181Y-2.9281
X2.0181Y-3.1281
X2.0181Y-3.3231
X2.0181Y-3.5231
X2.0181Y-3.7181
X2.0181Y-3.9131
X2.0181Y-4.1131
X2.2181Y-2.7331
X2.2181Y-2.9281
X2.2181Y-3.1281
X2.2181Y-3.3231
X2.2181Y-3.5231
X2.2181Y-3.7181
X2.2181Y-3.9131
X2.2181Y-4.1131
X3.3744Y-2.7157
X3.3744Y-2.9157
X3.3744Y-3.1107
X3.3744Y-3.3057
X3.3744Y-3.5057
X3.3744Y-3.7007
X3.3744Y-3.9007
X3.3744Y-4.0957
X3.5744Y-2.7157
X3.5744Y-2.9157
X3.5744Y-3.1107
X3.5744Y-3.3057
X3.5744Y-3.5057
X3.5744Y-3.7007
X3.5744Y-3.9007
X3.5744Y-4.0957
T5
X2.9677Y-4.4685
X3.1677Y-4.4685
X3.3677Y-4.4685
X3.5677Y-4.4685
T6
X1.7028Y-2.4508
X1.7028Y-4.5965
X3.8878Y-2.4508
X3.8878Y-4.5965
T0
M30
