G04 #@! TF.FileFunction,Copper,L1,Top,Signal*
%FSLAX46Y46*%
G04 Gerber Fmt 4.6, Leading zero omitted, Abs format (unit mm)*
G04 Created by KiCad (PCBNEW 4.0.4-stable) date Wednesday, 26 April 2017 'PMt' 10:40:54 PM*
%MOMM*%
%LPD*%
G01*
G04 APERTURE LIST*
%ADD10C,0.100000*%
%ADD11C,5.000000*%
%ADD12R,1.750000X0.450000*%
%ADD13R,1.600000X1.600000*%
%ADD14O,1.600000X1.600000*%
%ADD15R,1.850000X1.850000*%
%ADD16C,1.850000*%
%ADD17O,2.999740X1.501140*%
%ADD18C,2.900000*%
%ADD19C,0.400000*%
%ADD20C,0.400000*%
%ADD21C,0.250000*%
G04 APERTURE END LIST*
D10*
D11*
X98750000Y-116750000D03*
X43250000Y-116750000D03*
X43250000Y-62250000D03*
D12*
X67150000Y-79775000D03*
X67150000Y-80425000D03*
X67150000Y-81075000D03*
X67150000Y-81725000D03*
X67150000Y-82375000D03*
X67150000Y-83025000D03*
X67150000Y-83675000D03*
X67150000Y-84325000D03*
X67150000Y-84975000D03*
X67150000Y-85625000D03*
X67150000Y-86275000D03*
X67150000Y-86925000D03*
X67150000Y-87575000D03*
X67150000Y-88225000D03*
X74350000Y-88225000D03*
X74350000Y-87575000D03*
X74350000Y-86925000D03*
X74350000Y-86275000D03*
X74350000Y-85625000D03*
X74350000Y-84975000D03*
X74350000Y-84325000D03*
X74350000Y-83675000D03*
X74350000Y-83025000D03*
X74350000Y-82375000D03*
X74350000Y-81725000D03*
X74350000Y-81075000D03*
X74350000Y-80425000D03*
X74350000Y-79775000D03*
D13*
X73500000Y-99250000D03*
D14*
X68420000Y-106870000D03*
X70960000Y-99250000D03*
X70960000Y-106870000D03*
X68420000Y-99250000D03*
X73500000Y-106870000D03*
D15*
X50250000Y-110000000D03*
D16*
X52750000Y-110000000D03*
X55250000Y-110000000D03*
D17*
X90790000Y-104030000D03*
X85710000Y-104030000D03*
X90790000Y-99077000D03*
X85710000Y-99077000D03*
X90790000Y-93997000D03*
X85710000Y-93997000D03*
X90790000Y-89044000D03*
X85710000Y-89044000D03*
X90790000Y-83964000D03*
X85710000Y-83964000D03*
X90790000Y-79011000D03*
X85710000Y-79011000D03*
X90790000Y-74058000D03*
X85710000Y-74058000D03*
X90790000Y-68978000D03*
X85710000Y-68978000D03*
D15*
X50250000Y-115500000D03*
D16*
X52750000Y-115500000D03*
X55250000Y-115500000D03*
D15*
X50250000Y-62500000D03*
D16*
X52750000Y-62500000D03*
X55250000Y-62500000D03*
D18*
X75380000Y-113500000D03*
X80460000Y-113500000D03*
X85540000Y-113500000D03*
X90620000Y-113500000D03*
D17*
X51260000Y-69420000D03*
X56340000Y-69420000D03*
X51260000Y-74373000D03*
X56340000Y-74373000D03*
X51260000Y-79453000D03*
X56340000Y-79453000D03*
X51260000Y-84406000D03*
X56340000Y-84406000D03*
X51260000Y-89486000D03*
X56340000Y-89486000D03*
X51260000Y-94439000D03*
X56340000Y-94439000D03*
X51260000Y-99392000D03*
X56340000Y-99392000D03*
X51260000Y-104472000D03*
X56340000Y-104472000D03*
D11*
X98750000Y-62250000D03*
D19*
X78900000Y-83400000D03*
X80700000Y-87100000D03*
X76000000Y-86300000D03*
X64200000Y-93400000D03*
X64200000Y-96000000D03*
X64100000Y-85900000D03*
X64200000Y-88500000D03*
X64200000Y-78400000D03*
X64200000Y-80900000D03*
X64300000Y-70900000D03*
X64300000Y-73500000D03*
X76900000Y-94600000D03*
X78900000Y-90900000D03*
X77700000Y-79600000D03*
X77600000Y-77100000D03*
X77500000Y-72200000D03*
X77500000Y-69600000D03*
X65400000Y-84900000D03*
X70500000Y-88000000D03*
X67200000Y-94600000D03*
X71300000Y-77700000D03*
X66800000Y-77900000D03*
X74500000Y-70900000D03*
X67400000Y-72200000D03*
X65400000Y-85800000D03*
X69700000Y-90700000D03*
X76300000Y-87200000D03*
X49000000Y-102500000D03*
X48000000Y-100500000D03*
X67500000Y-69750000D03*
X65000000Y-73000000D03*
X70500000Y-77250000D03*
X70500000Y-81750000D03*
X69500000Y-83750000D03*
X68750000Y-83000000D03*
X62300000Y-91100000D03*
X66000000Y-93300000D03*
X74300000Y-95900000D03*
X74300000Y-94000000D03*
X77200000Y-84600000D03*
X77600000Y-83800000D03*
X71300000Y-88400000D03*
X70700000Y-87100000D03*
X71600000Y-81300000D03*
X71600000Y-79700000D03*
X75000000Y-78000000D03*
X74250000Y-72000000D03*
D20*
X74350000Y-86275000D02*
X75975000Y-86275000D01*
X75975000Y-86275000D02*
X76000000Y-86300000D01*
X67150000Y-84975000D02*
X65475000Y-84975000D01*
X65475000Y-84975000D02*
X65400000Y-84900000D01*
X67150000Y-85625000D02*
X65575000Y-85625000D01*
X65575000Y-85625000D02*
X65400000Y-85800000D01*
D21*
X74350000Y-88225000D02*
X77425000Y-88225000D01*
X77700000Y-95050000D02*
X73500000Y-99250000D01*
X77700000Y-88500000D02*
X77700000Y-95050000D01*
X77425000Y-88225000D02*
X77700000Y-88500000D01*
X74350000Y-86925000D02*
X76025000Y-86925000D01*
X68420000Y-91980000D02*
X68420000Y-99250000D01*
X69700000Y-90700000D02*
X68420000Y-91980000D01*
X76025000Y-86925000D02*
X76300000Y-87200000D01*
X61100000Y-102500000D02*
X49000000Y-102500000D01*
X65925000Y-87575000D02*
X67150000Y-87575000D01*
X67800000Y-95800000D02*
X61100000Y-102500000D01*
X67800000Y-90900000D02*
X67800000Y-95800000D01*
X65800000Y-88900000D02*
X67800000Y-90900000D01*
X65800000Y-87700000D02*
X65800000Y-88900000D01*
X65925000Y-87575000D02*
X65800000Y-87700000D01*
X66900000Y-93900000D02*
X66500000Y-94300000D01*
X60900000Y-101500000D02*
X49000000Y-101500000D01*
X65700000Y-96700000D02*
X60900000Y-101500000D01*
X66900000Y-91100000D02*
X66900000Y-93900000D01*
X65300000Y-89500000D02*
X66900000Y-91100000D01*
X65300000Y-87300000D02*
X65300000Y-89500000D01*
X65675000Y-86925000D02*
X65300000Y-87300000D01*
X67150000Y-86925000D02*
X65675000Y-86925000D01*
X49000000Y-101500000D02*
X48000000Y-100500000D01*
X66700000Y-95700000D02*
X65700000Y-96700000D01*
X66700000Y-95300000D02*
X66700000Y-95700000D01*
X66500000Y-95100000D02*
X66700000Y-95300000D01*
X66500000Y-94300000D02*
X66500000Y-95100000D01*
X74350000Y-84975000D02*
X76575000Y-84975000D01*
X54750000Y-112000000D02*
X52750000Y-110000000D01*
X56100000Y-112000000D02*
X54750000Y-112000000D01*
X64400000Y-103700000D02*
X56100000Y-112000000D01*
X76200000Y-103700000D02*
X64400000Y-103700000D01*
X81800000Y-98100000D02*
X76200000Y-103700000D01*
X81800000Y-90200000D02*
X81800000Y-98100000D01*
X76575000Y-84975000D02*
X81800000Y-90200000D01*
X74350000Y-85625000D02*
X76325000Y-85625000D01*
X62850000Y-102400000D02*
X55250000Y-110000000D01*
X76300000Y-102400000D02*
X62850000Y-102400000D01*
X80700000Y-98000000D02*
X76300000Y-102400000D01*
X80700000Y-90000000D02*
X80700000Y-98000000D01*
X76325000Y-85625000D02*
X80700000Y-90000000D01*
X67150000Y-79775000D02*
X66025000Y-79775000D01*
X65750000Y-71500000D02*
X67500000Y-69750000D01*
X65750000Y-79500000D02*
X65750000Y-71500000D01*
X66025000Y-79775000D02*
X65750000Y-79500000D01*
X65425000Y-80425000D02*
X67150000Y-80425000D01*
X65000000Y-80000000D02*
X65425000Y-80425000D01*
X65000000Y-73000000D02*
X65000000Y-80000000D01*
X67150000Y-81075000D02*
X70175000Y-81075000D01*
X70500000Y-80750000D02*
X70500000Y-77250000D01*
X70175000Y-81075000D02*
X70500000Y-80750000D01*
X67150000Y-81725000D02*
X70475000Y-81725000D01*
X70475000Y-81725000D02*
X70500000Y-81750000D01*
X67150000Y-82375000D02*
X69375000Y-82375000D01*
X69500000Y-82500000D02*
X69500000Y-83750000D01*
X69375000Y-82375000D02*
X69500000Y-82500000D01*
X68725000Y-83025000D02*
X68750000Y-83000000D01*
X68725000Y-83025000D02*
X67150000Y-83025000D01*
X62200000Y-90400000D02*
X62200000Y-91000000D01*
X62925000Y-83675000D02*
X62200000Y-84400000D01*
X62200000Y-84400000D02*
X62200000Y-90400000D01*
X67150000Y-83675000D02*
X65825000Y-83675000D01*
X65825000Y-83675000D02*
X62925000Y-83675000D01*
X62200000Y-91000000D02*
X62300000Y-91100000D01*
X67150000Y-84325000D02*
X63475000Y-84325000D01*
X62800000Y-90100000D02*
X66000000Y-93300000D01*
X62800000Y-85000000D02*
X62800000Y-90100000D01*
X63475000Y-84325000D02*
X62800000Y-85000000D01*
X67150000Y-84325000D02*
X65925000Y-84325000D01*
X74350000Y-84325000D02*
X76925000Y-84325000D01*
X74300000Y-94000000D02*
X74300000Y-95900000D01*
X76925000Y-84325000D02*
X77200000Y-84600000D01*
X74350000Y-83675000D02*
X77475000Y-83675000D01*
X77475000Y-83675000D02*
X77600000Y-83800000D01*
X74350000Y-83025000D02*
X72075000Y-83025000D01*
X71300000Y-83800000D02*
X71300000Y-88400000D01*
X72075000Y-83025000D02*
X71300000Y-83800000D01*
X74350000Y-82375000D02*
X71625000Y-82375000D01*
X70700000Y-83300000D02*
X70700000Y-87100000D01*
X71625000Y-82375000D02*
X70700000Y-83300000D01*
X74350000Y-81725000D02*
X72025000Y-81725000D01*
X72025000Y-81725000D02*
X71600000Y-81300000D01*
X74350000Y-81075000D02*
X72975000Y-81075000D01*
X72975000Y-81075000D02*
X71600000Y-79700000D01*
X75000000Y-78000000D02*
X76000000Y-79000000D01*
X76000000Y-79000000D02*
X76000000Y-80000000D01*
X76000000Y-80000000D02*
X75575000Y-80425000D01*
X75575000Y-80425000D02*
X74350000Y-80425000D01*
X74350000Y-79775000D02*
X74350000Y-72100000D01*
X74350000Y-72100000D02*
X74250000Y-72000000D01*
X74350000Y-87575000D02*
X73225000Y-87575000D01*
X70960000Y-89840000D02*
X70960000Y-99250000D01*
X73225000Y-87575000D02*
X70960000Y-89840000D01*
M02*
