G04 #@! TF.FileFunction,Copper,L2,Inr,Plane*
%FSLAX46Y46*%
G04 Gerber Fmt 4.6, Leading zero omitted, Abs format (unit mm)*
G04 Created by KiCad (PCBNEW 4.0.4-stable) date Wednesday, 26 April 2017 'PMt' 10:40:54 PM*
%MOMM*%
%LPD*%
G01*
G04 APERTURE LIST*
%ADD10C,0.100000*%
%ADD11C,5.000000*%
%ADD12R,1.600000X1.600000*%
%ADD13O,1.600000X1.600000*%
%ADD14R,1.850000X1.850000*%
%ADD15C,1.850000*%
%ADD16O,2.999740X1.501140*%
%ADD17C,2.900000*%
%ADD18C,0.400000*%
%ADD19C,0.254000*%
G04 APERTURE END LIST*
D10*
D11*
X98750000Y-116750000D03*
X43250000Y-116750000D03*
X43250000Y-62250000D03*
D12*
X73500000Y-99250000D03*
D13*
X68420000Y-106870000D03*
X70960000Y-99250000D03*
X70960000Y-106870000D03*
X68420000Y-99250000D03*
X73500000Y-106870000D03*
D14*
X50250000Y-110000000D03*
D15*
X52750000Y-110000000D03*
X55250000Y-110000000D03*
D16*
X90790000Y-104030000D03*
X85710000Y-104030000D03*
X90790000Y-99077000D03*
X85710000Y-99077000D03*
X90790000Y-93997000D03*
X85710000Y-93997000D03*
X90790000Y-89044000D03*
X85710000Y-89044000D03*
X90790000Y-83964000D03*
X85710000Y-83964000D03*
X90790000Y-79011000D03*
X85710000Y-79011000D03*
X90790000Y-74058000D03*
X85710000Y-74058000D03*
X90790000Y-68978000D03*
X85710000Y-68978000D03*
D14*
X50250000Y-115500000D03*
D15*
X52750000Y-115500000D03*
X55250000Y-115500000D03*
D14*
X50250000Y-62500000D03*
D15*
X52750000Y-62500000D03*
X55250000Y-62500000D03*
D17*
X75380000Y-113500000D03*
X80460000Y-113500000D03*
X85540000Y-113500000D03*
X90620000Y-113500000D03*
D16*
X51260000Y-69420000D03*
X56340000Y-69420000D03*
X51260000Y-74373000D03*
X56340000Y-74373000D03*
X51260000Y-79453000D03*
X56340000Y-79453000D03*
X51260000Y-84406000D03*
X56340000Y-84406000D03*
X51260000Y-89486000D03*
X56340000Y-89486000D03*
X51260000Y-94439000D03*
X56340000Y-94439000D03*
X51260000Y-99392000D03*
X56340000Y-99392000D03*
X51260000Y-104472000D03*
X56340000Y-104472000D03*
D11*
X98750000Y-62250000D03*
D18*
X78900000Y-83400000D03*
X80700000Y-87100000D03*
X76000000Y-86300000D03*
X64200000Y-93400000D03*
X64200000Y-96000000D03*
X64100000Y-85900000D03*
X64200000Y-88500000D03*
X64200000Y-78400000D03*
X64200000Y-80900000D03*
X64300000Y-70900000D03*
X64300000Y-73500000D03*
X76900000Y-94600000D03*
X78900000Y-90900000D03*
X77700000Y-79600000D03*
X77600000Y-77100000D03*
X77500000Y-72200000D03*
X77500000Y-69600000D03*
X65400000Y-84900000D03*
X70500000Y-88000000D03*
X67200000Y-94600000D03*
X71300000Y-77700000D03*
X66800000Y-77900000D03*
X74500000Y-70900000D03*
X67400000Y-72200000D03*
X65400000Y-85800000D03*
X69700000Y-90700000D03*
X76300000Y-87200000D03*
X49000000Y-102500000D03*
X48000000Y-100500000D03*
X67500000Y-69750000D03*
X65000000Y-73000000D03*
X70500000Y-77250000D03*
X70500000Y-81750000D03*
X69500000Y-83750000D03*
X68750000Y-83000000D03*
X62300000Y-91100000D03*
X66000000Y-93300000D03*
X74300000Y-95900000D03*
X74300000Y-94000000D03*
X77200000Y-84600000D03*
X77600000Y-83800000D03*
X71300000Y-88400000D03*
X70700000Y-87100000D03*
X71600000Y-81300000D03*
X71600000Y-79700000D03*
X75000000Y-78000000D03*
X74250000Y-72000000D03*
D19*
G36*
X93623000Y-117623000D02*
X47627000Y-117623000D01*
X47627000Y-114575000D01*
X48677560Y-114575000D01*
X48677560Y-116425000D01*
X48721838Y-116660317D01*
X48860910Y-116876441D01*
X49073110Y-117021431D01*
X49325000Y-117072440D01*
X51175000Y-117072440D01*
X51410317Y-117028162D01*
X51626441Y-116889090D01*
X51750771Y-116707126D01*
X51865177Y-116821732D01*
X52438336Y-117059728D01*
X53058942Y-117060270D01*
X53632514Y-116823275D01*
X54000256Y-116456174D01*
X54365177Y-116821732D01*
X54938336Y-117059728D01*
X55558942Y-117060270D01*
X56132514Y-116823275D01*
X56571732Y-116384823D01*
X56809728Y-115811664D01*
X56810270Y-115191058D01*
X56573275Y-114617486D01*
X56134823Y-114178268D01*
X55561664Y-113940272D01*
X54941058Y-113939730D01*
X54367486Y-114176725D01*
X53999744Y-114543826D01*
X53634823Y-114178268D01*
X53061664Y-113940272D01*
X52441058Y-113939730D01*
X51867486Y-114176725D01*
X51749251Y-114294754D01*
X51639090Y-114123559D01*
X51426890Y-113978569D01*
X51175000Y-113927560D01*
X49325000Y-113927560D01*
X49089683Y-113971838D01*
X48873559Y-114110910D01*
X48728569Y-114323110D01*
X48677560Y-114575000D01*
X47627000Y-114575000D01*
X47627000Y-113912913D01*
X73294638Y-113912913D01*
X73611392Y-114679515D01*
X74197400Y-115266547D01*
X74963448Y-115584638D01*
X75792913Y-115585362D01*
X76559515Y-115268608D01*
X77146547Y-114682600D01*
X77464638Y-113916552D01*
X77464641Y-113912913D01*
X78374638Y-113912913D01*
X78691392Y-114679515D01*
X79277400Y-115266547D01*
X80043448Y-115584638D01*
X80872913Y-115585362D01*
X81639515Y-115268608D01*
X82226547Y-114682600D01*
X82544638Y-113916552D01*
X82544641Y-113912913D01*
X83454638Y-113912913D01*
X83771392Y-114679515D01*
X84357400Y-115266547D01*
X85123448Y-115584638D01*
X85952913Y-115585362D01*
X86719515Y-115268608D01*
X87010782Y-114977849D01*
X89321756Y-114977849D01*
X89475435Y-115291424D01*
X90248108Y-115593066D01*
X91077398Y-115576058D01*
X91764565Y-115291424D01*
X91918244Y-114977849D01*
X90620000Y-113679605D01*
X89321756Y-114977849D01*
X87010782Y-114977849D01*
X87306547Y-114682600D01*
X87624638Y-113916552D01*
X87625326Y-113128108D01*
X88526934Y-113128108D01*
X88543942Y-113957398D01*
X88828576Y-114644565D01*
X89142151Y-114798244D01*
X90440395Y-113500000D01*
X90799605Y-113500000D01*
X92097849Y-114798244D01*
X92411424Y-114644565D01*
X92713066Y-113871892D01*
X92696058Y-113042602D01*
X92411424Y-112355435D01*
X92097849Y-112201756D01*
X90799605Y-113500000D01*
X90440395Y-113500000D01*
X89142151Y-112201756D01*
X88828576Y-112355435D01*
X88526934Y-113128108D01*
X87625326Y-113128108D01*
X87625362Y-113087087D01*
X87308608Y-112320485D01*
X87010795Y-112022151D01*
X89321756Y-112022151D01*
X90620000Y-113320395D01*
X91918244Y-112022151D01*
X91764565Y-111708576D01*
X90991892Y-111406934D01*
X90162602Y-111423942D01*
X89475435Y-111708576D01*
X89321756Y-112022151D01*
X87010795Y-112022151D01*
X86722600Y-111733453D01*
X85956552Y-111415362D01*
X85127087Y-111414638D01*
X84360485Y-111731392D01*
X83773453Y-112317400D01*
X83455362Y-113083448D01*
X83454638Y-113912913D01*
X82544641Y-113912913D01*
X82545362Y-113087087D01*
X82228608Y-112320485D01*
X81642600Y-111733453D01*
X80876552Y-111415362D01*
X80047087Y-111414638D01*
X79280485Y-111731392D01*
X78693453Y-112317400D01*
X78375362Y-113083448D01*
X78374638Y-113912913D01*
X77464641Y-113912913D01*
X77465362Y-113087087D01*
X77148608Y-112320485D01*
X76562600Y-111733453D01*
X75796552Y-111415362D01*
X74967087Y-111414638D01*
X74200485Y-111731392D01*
X73613453Y-112317400D01*
X73295362Y-113083448D01*
X73294638Y-113912913D01*
X47627000Y-113912913D01*
X47627000Y-109075000D01*
X48677560Y-109075000D01*
X48677560Y-110925000D01*
X48721838Y-111160317D01*
X48860910Y-111376441D01*
X49073110Y-111521431D01*
X49325000Y-111572440D01*
X51175000Y-111572440D01*
X51410317Y-111528162D01*
X51626441Y-111389090D01*
X51750771Y-111207126D01*
X51865177Y-111321732D01*
X52438336Y-111559728D01*
X53058942Y-111560270D01*
X53632514Y-111323275D01*
X54000256Y-110956174D01*
X54365177Y-111321732D01*
X54938336Y-111559728D01*
X55558942Y-111560270D01*
X56132514Y-111323275D01*
X56571732Y-110884823D01*
X56809728Y-110311664D01*
X56810270Y-109691058D01*
X56573275Y-109117486D01*
X56134823Y-108678268D01*
X55561664Y-108440272D01*
X54941058Y-108439730D01*
X54367486Y-108676725D01*
X53999744Y-109043826D01*
X53634823Y-108678268D01*
X53061664Y-108440272D01*
X52441058Y-108439730D01*
X51867486Y-108676725D01*
X51749251Y-108794754D01*
X51639090Y-108623559D01*
X51426890Y-108478569D01*
X51175000Y-108427560D01*
X49325000Y-108427560D01*
X49089683Y-108471838D01*
X48873559Y-108610910D01*
X48728569Y-108823110D01*
X48677560Y-109075000D01*
X47627000Y-109075000D01*
X47627000Y-106841887D01*
X66985000Y-106841887D01*
X66985000Y-106898113D01*
X67094233Y-107447264D01*
X67405302Y-107912811D01*
X67870849Y-108223880D01*
X68420000Y-108333113D01*
X68969151Y-108223880D01*
X69434698Y-107912811D01*
X69690000Y-107530725D01*
X69945302Y-107912811D01*
X70410849Y-108223880D01*
X70960000Y-108333113D01*
X71509151Y-108223880D01*
X71974698Y-107912811D01*
X72230000Y-107530725D01*
X72485302Y-107912811D01*
X72950849Y-108223880D01*
X73500000Y-108333113D01*
X74049151Y-108223880D01*
X74514698Y-107912811D01*
X74825767Y-107447264D01*
X74935000Y-106898113D01*
X74935000Y-106841887D01*
X74825767Y-106292736D01*
X74514698Y-105827189D01*
X74049151Y-105516120D01*
X73500000Y-105406887D01*
X72950849Y-105516120D01*
X72485302Y-105827189D01*
X72230000Y-106209275D01*
X71974698Y-105827189D01*
X71509151Y-105516120D01*
X70960000Y-105406887D01*
X70410849Y-105516120D01*
X69945302Y-105827189D01*
X69690000Y-106209275D01*
X69434698Y-105827189D01*
X68969151Y-105516120D01*
X68420000Y-105406887D01*
X67870849Y-105516120D01*
X67405302Y-105827189D01*
X67094233Y-106292736D01*
X66985000Y-106841887D01*
X47627000Y-106841887D01*
X47627000Y-104472000D01*
X49083305Y-104472000D01*
X49188775Y-105002235D01*
X49489129Y-105451746D01*
X49938640Y-105752100D01*
X50468875Y-105857570D01*
X52051125Y-105857570D01*
X52581360Y-105752100D01*
X53030871Y-105451746D01*
X53331225Y-105002235D01*
X53436695Y-104472000D01*
X54163305Y-104472000D01*
X54268775Y-105002235D01*
X54569129Y-105451746D01*
X55018640Y-105752100D01*
X55548875Y-105857570D01*
X57131125Y-105857570D01*
X57661360Y-105752100D01*
X58110871Y-105451746D01*
X58411225Y-105002235D01*
X58516695Y-104472000D01*
X58428776Y-104030000D01*
X83533305Y-104030000D01*
X83638775Y-104560235D01*
X83939129Y-105009746D01*
X84388640Y-105310100D01*
X84918875Y-105415570D01*
X86501125Y-105415570D01*
X87031360Y-105310100D01*
X87480871Y-105009746D01*
X87781225Y-104560235D01*
X87886695Y-104030000D01*
X88613305Y-104030000D01*
X88718775Y-104560235D01*
X89019129Y-105009746D01*
X89468640Y-105310100D01*
X89998875Y-105415570D01*
X91581125Y-105415570D01*
X92111360Y-105310100D01*
X92560871Y-105009746D01*
X92861225Y-104560235D01*
X92966695Y-104030000D01*
X92861225Y-103499765D01*
X92560871Y-103050254D01*
X92111360Y-102749900D01*
X91581125Y-102644430D01*
X89998875Y-102644430D01*
X89468640Y-102749900D01*
X89019129Y-103050254D01*
X88718775Y-103499765D01*
X88613305Y-104030000D01*
X87886695Y-104030000D01*
X87781225Y-103499765D01*
X87480871Y-103050254D01*
X87031360Y-102749900D01*
X86501125Y-102644430D01*
X84918875Y-102644430D01*
X84388640Y-102749900D01*
X83939129Y-103050254D01*
X83638775Y-103499765D01*
X83533305Y-104030000D01*
X58428776Y-104030000D01*
X58411225Y-103941765D01*
X58110871Y-103492254D01*
X57661360Y-103191900D01*
X57131125Y-103086430D01*
X55548875Y-103086430D01*
X55018640Y-103191900D01*
X54569129Y-103492254D01*
X54268775Y-103941765D01*
X54163305Y-104472000D01*
X53436695Y-104472000D01*
X53331225Y-103941765D01*
X53030871Y-103492254D01*
X52581360Y-103191900D01*
X52051125Y-103086430D01*
X50468875Y-103086430D01*
X49938640Y-103191900D01*
X49489129Y-103492254D01*
X49188775Y-103941765D01*
X49083305Y-104472000D01*
X47627000Y-104472000D01*
X47627000Y-102665363D01*
X48164855Y-102665363D01*
X48291708Y-102972372D01*
X48526393Y-103207466D01*
X48833179Y-103334855D01*
X49165363Y-103335145D01*
X49472372Y-103208292D01*
X49707466Y-102973607D01*
X49834855Y-102666821D01*
X49835145Y-102334637D01*
X49708292Y-102027628D01*
X49473607Y-101792534D01*
X49166821Y-101665145D01*
X48834637Y-101664855D01*
X48527628Y-101791708D01*
X48292534Y-102026393D01*
X48165145Y-102333179D01*
X48164855Y-102665363D01*
X47627000Y-102665363D01*
X47627000Y-101249242D01*
X47833179Y-101334855D01*
X48165363Y-101335145D01*
X48472372Y-101208292D01*
X48707466Y-100973607D01*
X48834855Y-100666821D01*
X48835145Y-100334637D01*
X48708292Y-100027628D01*
X48473607Y-99792534D01*
X48166821Y-99665145D01*
X47834637Y-99664855D01*
X47627000Y-99750648D01*
X47627000Y-99392000D01*
X49083305Y-99392000D01*
X49188775Y-99922235D01*
X49489129Y-100371746D01*
X49938640Y-100672100D01*
X50468875Y-100777570D01*
X52051125Y-100777570D01*
X52581360Y-100672100D01*
X53030871Y-100371746D01*
X53331225Y-99922235D01*
X53436695Y-99392000D01*
X54163305Y-99392000D01*
X54268775Y-99922235D01*
X54569129Y-100371746D01*
X55018640Y-100672100D01*
X55548875Y-100777570D01*
X57131125Y-100777570D01*
X57661360Y-100672100D01*
X58110871Y-100371746D01*
X58411225Y-99922235D01*
X58516695Y-99392000D01*
X58482858Y-99221887D01*
X66985000Y-99221887D01*
X66985000Y-99278113D01*
X67094233Y-99827264D01*
X67405302Y-100292811D01*
X67870849Y-100603880D01*
X68420000Y-100713113D01*
X68969151Y-100603880D01*
X69434698Y-100292811D01*
X69690000Y-99910725D01*
X69945302Y-100292811D01*
X70410849Y-100603880D01*
X70960000Y-100713113D01*
X71509151Y-100603880D01*
X71974698Y-100292811D01*
X72071101Y-100148535D01*
X72096838Y-100285317D01*
X72235910Y-100501441D01*
X72448110Y-100646431D01*
X72700000Y-100697440D01*
X74300000Y-100697440D01*
X74535317Y-100653162D01*
X74751441Y-100514090D01*
X74896431Y-100301890D01*
X74947440Y-100050000D01*
X74947440Y-99077000D01*
X83533305Y-99077000D01*
X83638775Y-99607235D01*
X83939129Y-100056746D01*
X84388640Y-100357100D01*
X84918875Y-100462570D01*
X86501125Y-100462570D01*
X87031360Y-100357100D01*
X87480871Y-100056746D01*
X87781225Y-99607235D01*
X87886695Y-99077000D01*
X88613305Y-99077000D01*
X88718775Y-99607235D01*
X89019129Y-100056746D01*
X89468640Y-100357100D01*
X89998875Y-100462570D01*
X91581125Y-100462570D01*
X92111360Y-100357100D01*
X92560871Y-100056746D01*
X92861225Y-99607235D01*
X92966695Y-99077000D01*
X92861225Y-98546765D01*
X92560871Y-98097254D01*
X92111360Y-97796900D01*
X91581125Y-97691430D01*
X89998875Y-97691430D01*
X89468640Y-97796900D01*
X89019129Y-98097254D01*
X88718775Y-98546765D01*
X88613305Y-99077000D01*
X87886695Y-99077000D01*
X87781225Y-98546765D01*
X87480871Y-98097254D01*
X87031360Y-97796900D01*
X86501125Y-97691430D01*
X84918875Y-97691430D01*
X84388640Y-97796900D01*
X83939129Y-98097254D01*
X83638775Y-98546765D01*
X83533305Y-99077000D01*
X74947440Y-99077000D01*
X74947440Y-98450000D01*
X74903162Y-98214683D01*
X74764090Y-97998559D01*
X74551890Y-97853569D01*
X74300000Y-97802560D01*
X72700000Y-97802560D01*
X72464683Y-97846838D01*
X72248559Y-97985910D01*
X72103569Y-98198110D01*
X72072185Y-98353089D01*
X71974698Y-98207189D01*
X71509151Y-97896120D01*
X70960000Y-97786887D01*
X70410849Y-97896120D01*
X69945302Y-98207189D01*
X69690000Y-98589275D01*
X69434698Y-98207189D01*
X68969151Y-97896120D01*
X68420000Y-97786887D01*
X67870849Y-97896120D01*
X67405302Y-98207189D01*
X67094233Y-98672736D01*
X66985000Y-99221887D01*
X58482858Y-99221887D01*
X58411225Y-98861765D01*
X58110871Y-98412254D01*
X57661360Y-98111900D01*
X57131125Y-98006430D01*
X55548875Y-98006430D01*
X55018640Y-98111900D01*
X54569129Y-98412254D01*
X54268775Y-98861765D01*
X54163305Y-99392000D01*
X53436695Y-99392000D01*
X53331225Y-98861765D01*
X53030871Y-98412254D01*
X52581360Y-98111900D01*
X52051125Y-98006430D01*
X50468875Y-98006430D01*
X49938640Y-98111900D01*
X49489129Y-98412254D01*
X49188775Y-98861765D01*
X49083305Y-99392000D01*
X47627000Y-99392000D01*
X47627000Y-96065363D01*
X73464855Y-96065363D01*
X73591708Y-96372372D01*
X73826393Y-96607466D01*
X74133179Y-96734855D01*
X74465363Y-96735145D01*
X74772372Y-96608292D01*
X75007466Y-96373607D01*
X75134855Y-96066821D01*
X75135145Y-95734637D01*
X75008292Y-95427628D01*
X74773607Y-95192534D01*
X74466821Y-95065145D01*
X74134637Y-95064855D01*
X73827628Y-95191708D01*
X73592534Y-95426393D01*
X73465145Y-95733179D01*
X73464855Y-96065363D01*
X47627000Y-96065363D01*
X47627000Y-94439000D01*
X49083305Y-94439000D01*
X49188775Y-94969235D01*
X49489129Y-95418746D01*
X49938640Y-95719100D01*
X50468875Y-95824570D01*
X52051125Y-95824570D01*
X52581360Y-95719100D01*
X53030871Y-95418746D01*
X53331225Y-94969235D01*
X53436695Y-94439000D01*
X54163305Y-94439000D01*
X54268775Y-94969235D01*
X54569129Y-95418746D01*
X55018640Y-95719100D01*
X55548875Y-95824570D01*
X57131125Y-95824570D01*
X57661360Y-95719100D01*
X58110871Y-95418746D01*
X58411225Y-94969235D01*
X58451777Y-94765363D01*
X66364855Y-94765363D01*
X66491708Y-95072372D01*
X66726393Y-95307466D01*
X67033179Y-95434855D01*
X67365363Y-95435145D01*
X67672372Y-95308292D01*
X67907466Y-95073607D01*
X68034855Y-94766821D01*
X68035145Y-94434637D01*
X67923884Y-94165363D01*
X73464855Y-94165363D01*
X73591708Y-94472372D01*
X73826393Y-94707466D01*
X74133179Y-94834855D01*
X74465363Y-94835145D01*
X74772372Y-94708292D01*
X75007466Y-94473607D01*
X75134855Y-94166821D01*
X75135003Y-93997000D01*
X83533305Y-93997000D01*
X83638775Y-94527235D01*
X83939129Y-94976746D01*
X84388640Y-95277100D01*
X84918875Y-95382570D01*
X86501125Y-95382570D01*
X87031360Y-95277100D01*
X87480871Y-94976746D01*
X87781225Y-94527235D01*
X87886695Y-93997000D01*
X88613305Y-93997000D01*
X88718775Y-94527235D01*
X89019129Y-94976746D01*
X89468640Y-95277100D01*
X89998875Y-95382570D01*
X91581125Y-95382570D01*
X92111360Y-95277100D01*
X92560871Y-94976746D01*
X92861225Y-94527235D01*
X92966695Y-93997000D01*
X92861225Y-93466765D01*
X92560871Y-93017254D01*
X92111360Y-92716900D01*
X91581125Y-92611430D01*
X89998875Y-92611430D01*
X89468640Y-92716900D01*
X89019129Y-93017254D01*
X88718775Y-93466765D01*
X88613305Y-93997000D01*
X87886695Y-93997000D01*
X87781225Y-93466765D01*
X87480871Y-93017254D01*
X87031360Y-92716900D01*
X86501125Y-92611430D01*
X84918875Y-92611430D01*
X84388640Y-92716900D01*
X83939129Y-93017254D01*
X83638775Y-93466765D01*
X83533305Y-93997000D01*
X75135003Y-93997000D01*
X75135145Y-93834637D01*
X75008292Y-93527628D01*
X74773607Y-93292534D01*
X74466821Y-93165145D01*
X74134637Y-93164855D01*
X73827628Y-93291708D01*
X73592534Y-93526393D01*
X73465145Y-93833179D01*
X73464855Y-94165363D01*
X67923884Y-94165363D01*
X67908292Y-94127628D01*
X67673607Y-93892534D01*
X67366821Y-93765145D01*
X67034637Y-93764855D01*
X66727628Y-93891708D01*
X66492534Y-94126393D01*
X66365145Y-94433179D01*
X66364855Y-94765363D01*
X58451777Y-94765363D01*
X58516695Y-94439000D01*
X58411225Y-93908765D01*
X58114953Y-93465363D01*
X65164855Y-93465363D01*
X65291708Y-93772372D01*
X65526393Y-94007466D01*
X65833179Y-94134855D01*
X66165363Y-94135145D01*
X66472372Y-94008292D01*
X66707466Y-93773607D01*
X66834855Y-93466821D01*
X66835145Y-93134637D01*
X66708292Y-92827628D01*
X66473607Y-92592534D01*
X66166821Y-92465145D01*
X65834637Y-92464855D01*
X65527628Y-92591708D01*
X65292534Y-92826393D01*
X65165145Y-93133179D01*
X65164855Y-93465363D01*
X58114953Y-93465363D01*
X58110871Y-93459254D01*
X57661360Y-93158900D01*
X57131125Y-93053430D01*
X55548875Y-93053430D01*
X55018640Y-93158900D01*
X54569129Y-93459254D01*
X54268775Y-93908765D01*
X54163305Y-94439000D01*
X53436695Y-94439000D01*
X53331225Y-93908765D01*
X53030871Y-93459254D01*
X52581360Y-93158900D01*
X52051125Y-93053430D01*
X50468875Y-93053430D01*
X49938640Y-93158900D01*
X49489129Y-93459254D01*
X49188775Y-93908765D01*
X49083305Y-94439000D01*
X47627000Y-94439000D01*
X47627000Y-91265363D01*
X61464855Y-91265363D01*
X61591708Y-91572372D01*
X61826393Y-91807466D01*
X62133179Y-91934855D01*
X62465363Y-91935145D01*
X62772372Y-91808292D01*
X63007466Y-91573607D01*
X63134855Y-91266821D01*
X63135145Y-90934637D01*
X63106522Y-90865363D01*
X68864855Y-90865363D01*
X68991708Y-91172372D01*
X69226393Y-91407466D01*
X69533179Y-91534855D01*
X69865363Y-91535145D01*
X70172372Y-91408292D01*
X70407466Y-91173607D01*
X70534855Y-90866821D01*
X70535145Y-90534637D01*
X70408292Y-90227628D01*
X70173607Y-89992534D01*
X69866821Y-89865145D01*
X69534637Y-89864855D01*
X69227628Y-89991708D01*
X68992534Y-90226393D01*
X68865145Y-90533179D01*
X68864855Y-90865363D01*
X63106522Y-90865363D01*
X63008292Y-90627628D01*
X62773607Y-90392534D01*
X62466821Y-90265145D01*
X62134637Y-90264855D01*
X61827628Y-90391708D01*
X61592534Y-90626393D01*
X61465145Y-90933179D01*
X61464855Y-91265363D01*
X47627000Y-91265363D01*
X47627000Y-89486000D01*
X49083305Y-89486000D01*
X49188775Y-90016235D01*
X49489129Y-90465746D01*
X49938640Y-90766100D01*
X50468875Y-90871570D01*
X52051125Y-90871570D01*
X52581360Y-90766100D01*
X53030871Y-90465746D01*
X53331225Y-90016235D01*
X53436695Y-89486000D01*
X54163305Y-89486000D01*
X54268775Y-90016235D01*
X54569129Y-90465746D01*
X55018640Y-90766100D01*
X55548875Y-90871570D01*
X57131125Y-90871570D01*
X57661360Y-90766100D01*
X58110871Y-90465746D01*
X58411225Y-90016235D01*
X58516695Y-89486000D01*
X58411225Y-88955765D01*
X58110871Y-88506254D01*
X57661360Y-88205900D01*
X57457567Y-88165363D01*
X69664855Y-88165363D01*
X69791708Y-88472372D01*
X70026393Y-88707466D01*
X70333179Y-88834855D01*
X70576294Y-88835067D01*
X70591708Y-88872372D01*
X70826393Y-89107466D01*
X71133179Y-89234855D01*
X71465363Y-89235145D01*
X71772372Y-89108292D01*
X71836776Y-89044000D01*
X83533305Y-89044000D01*
X83638775Y-89574235D01*
X83939129Y-90023746D01*
X84388640Y-90324100D01*
X84918875Y-90429570D01*
X86501125Y-90429570D01*
X87031360Y-90324100D01*
X87480871Y-90023746D01*
X87781225Y-89574235D01*
X87886695Y-89044000D01*
X88613305Y-89044000D01*
X88718775Y-89574235D01*
X89019129Y-90023746D01*
X89468640Y-90324100D01*
X89998875Y-90429570D01*
X91581125Y-90429570D01*
X92111360Y-90324100D01*
X92560871Y-90023746D01*
X92861225Y-89574235D01*
X92966695Y-89044000D01*
X92861225Y-88513765D01*
X92560871Y-88064254D01*
X92111360Y-87763900D01*
X91581125Y-87658430D01*
X89998875Y-87658430D01*
X89468640Y-87763900D01*
X89019129Y-88064254D01*
X88718775Y-88513765D01*
X88613305Y-89044000D01*
X87886695Y-89044000D01*
X87781225Y-88513765D01*
X87480871Y-88064254D01*
X87031360Y-87763900D01*
X86501125Y-87658430D01*
X84918875Y-87658430D01*
X84388640Y-87763900D01*
X83939129Y-88064254D01*
X83638775Y-88513765D01*
X83533305Y-89044000D01*
X71836776Y-89044000D01*
X72007466Y-88873607D01*
X72134855Y-88566821D01*
X72135145Y-88234637D01*
X72008292Y-87927628D01*
X71773607Y-87692534D01*
X71466821Y-87565145D01*
X71411000Y-87565096D01*
X71493936Y-87365363D01*
X75464855Y-87365363D01*
X75591708Y-87672372D01*
X75826393Y-87907466D01*
X76133179Y-88034855D01*
X76465363Y-88035145D01*
X76772372Y-87908292D01*
X77007466Y-87673607D01*
X77134855Y-87366821D01*
X77135145Y-87034637D01*
X77008292Y-86727628D01*
X76773607Y-86492534D01*
X76466821Y-86365145D01*
X76134637Y-86364855D01*
X75827628Y-86491708D01*
X75592534Y-86726393D01*
X75465145Y-87033179D01*
X75464855Y-87365363D01*
X71493936Y-87365363D01*
X71534855Y-87266821D01*
X71535145Y-86934637D01*
X71408292Y-86627628D01*
X71173607Y-86392534D01*
X70866821Y-86265145D01*
X70534637Y-86264855D01*
X70227628Y-86391708D01*
X69992534Y-86626393D01*
X69865145Y-86933179D01*
X69864855Y-87265363D01*
X69920095Y-87399054D01*
X69792534Y-87526393D01*
X69665145Y-87833179D01*
X69664855Y-88165363D01*
X57457567Y-88165363D01*
X57131125Y-88100430D01*
X55548875Y-88100430D01*
X55018640Y-88205900D01*
X54569129Y-88506254D01*
X54268775Y-88955765D01*
X54163305Y-89486000D01*
X53436695Y-89486000D01*
X53331225Y-88955765D01*
X53030871Y-88506254D01*
X52581360Y-88205900D01*
X52051125Y-88100430D01*
X50468875Y-88100430D01*
X49938640Y-88205900D01*
X49489129Y-88506254D01*
X49188775Y-88955765D01*
X49083305Y-89486000D01*
X47627000Y-89486000D01*
X47627000Y-85965363D01*
X64564855Y-85965363D01*
X64691708Y-86272372D01*
X64926393Y-86507466D01*
X65233179Y-86634855D01*
X65565363Y-86635145D01*
X65872372Y-86508292D01*
X66107466Y-86273607D01*
X66234855Y-85966821D01*
X66235145Y-85634637D01*
X66108292Y-85327628D01*
X65873607Y-85092534D01*
X65566821Y-84965145D01*
X65234637Y-84964855D01*
X64927628Y-85091708D01*
X64692534Y-85326393D01*
X64565145Y-85633179D01*
X64564855Y-85965363D01*
X47627000Y-85965363D01*
X47627000Y-84406000D01*
X49083305Y-84406000D01*
X49188775Y-84936235D01*
X49489129Y-85385746D01*
X49938640Y-85686100D01*
X50468875Y-85791570D01*
X52051125Y-85791570D01*
X52581360Y-85686100D01*
X53030871Y-85385746D01*
X53331225Y-84936235D01*
X53436695Y-84406000D01*
X54163305Y-84406000D01*
X54268775Y-84936235D01*
X54569129Y-85385746D01*
X55018640Y-85686100D01*
X55548875Y-85791570D01*
X57131125Y-85791570D01*
X57661360Y-85686100D01*
X58110871Y-85385746D01*
X58411225Y-84936235D01*
X58445213Y-84765363D01*
X76364855Y-84765363D01*
X76491708Y-85072372D01*
X76726393Y-85307466D01*
X77033179Y-85434855D01*
X77365363Y-85435145D01*
X77672372Y-85308292D01*
X77907466Y-85073607D01*
X78034855Y-84766821D01*
X78035067Y-84523706D01*
X78072372Y-84508292D01*
X78307466Y-84273607D01*
X78434855Y-83966821D01*
X78434857Y-83964000D01*
X83533305Y-83964000D01*
X83638775Y-84494235D01*
X83939129Y-84943746D01*
X84388640Y-85244100D01*
X84918875Y-85349570D01*
X86501125Y-85349570D01*
X87031360Y-85244100D01*
X87480871Y-84943746D01*
X87781225Y-84494235D01*
X87886695Y-83964000D01*
X88613305Y-83964000D01*
X88718775Y-84494235D01*
X89019129Y-84943746D01*
X89468640Y-85244100D01*
X89998875Y-85349570D01*
X91581125Y-85349570D01*
X92111360Y-85244100D01*
X92560871Y-84943746D01*
X92861225Y-84494235D01*
X92966695Y-83964000D01*
X92861225Y-83433765D01*
X92560871Y-82984254D01*
X92111360Y-82683900D01*
X91581125Y-82578430D01*
X89998875Y-82578430D01*
X89468640Y-82683900D01*
X89019129Y-82984254D01*
X88718775Y-83433765D01*
X88613305Y-83964000D01*
X87886695Y-83964000D01*
X87781225Y-83433765D01*
X87480871Y-82984254D01*
X87031360Y-82683900D01*
X86501125Y-82578430D01*
X84918875Y-82578430D01*
X84388640Y-82683900D01*
X83939129Y-82984254D01*
X83638775Y-83433765D01*
X83533305Y-83964000D01*
X78434857Y-83964000D01*
X78435145Y-83634637D01*
X78308292Y-83327628D01*
X78073607Y-83092534D01*
X77766821Y-82965145D01*
X77434637Y-82964855D01*
X77127628Y-83091708D01*
X76892534Y-83326393D01*
X76765145Y-83633179D01*
X76764933Y-83876294D01*
X76727628Y-83891708D01*
X76492534Y-84126393D01*
X76365145Y-84433179D01*
X76364855Y-84765363D01*
X58445213Y-84765363D01*
X58516695Y-84406000D01*
X58411225Y-83875765D01*
X58110871Y-83426254D01*
X57720421Y-83165363D01*
X67914855Y-83165363D01*
X68041708Y-83472372D01*
X68276393Y-83707466D01*
X68583179Y-83834855D01*
X68664925Y-83834926D01*
X68664855Y-83915363D01*
X68791708Y-84222372D01*
X69026393Y-84457466D01*
X69333179Y-84584855D01*
X69665363Y-84585145D01*
X69972372Y-84458292D01*
X70207466Y-84223607D01*
X70334855Y-83916821D01*
X70335145Y-83584637D01*
X70208292Y-83277628D01*
X69973607Y-83042534D01*
X69666821Y-82915145D01*
X69585075Y-82915074D01*
X69585145Y-82834637D01*
X69458292Y-82527628D01*
X69223607Y-82292534D01*
X68916821Y-82165145D01*
X68584637Y-82164855D01*
X68277628Y-82291708D01*
X68042534Y-82526393D01*
X67915145Y-82833179D01*
X67914855Y-83165363D01*
X57720421Y-83165363D01*
X57661360Y-83125900D01*
X57131125Y-83020430D01*
X55548875Y-83020430D01*
X55018640Y-83125900D01*
X54569129Y-83426254D01*
X54268775Y-83875765D01*
X54163305Y-84406000D01*
X53436695Y-84406000D01*
X53331225Y-83875765D01*
X53030871Y-83426254D01*
X52581360Y-83125900D01*
X52051125Y-83020430D01*
X50468875Y-83020430D01*
X49938640Y-83125900D01*
X49489129Y-83426254D01*
X49188775Y-83875765D01*
X49083305Y-84406000D01*
X47627000Y-84406000D01*
X47627000Y-81915363D01*
X69664855Y-81915363D01*
X69791708Y-82222372D01*
X70026393Y-82457466D01*
X70333179Y-82584855D01*
X70665363Y-82585145D01*
X70972372Y-82458292D01*
X71207466Y-82223607D01*
X71272094Y-82067966D01*
X71433179Y-82134855D01*
X71765363Y-82135145D01*
X72072372Y-82008292D01*
X72307466Y-81773607D01*
X72434855Y-81466821D01*
X72435145Y-81134637D01*
X72308292Y-80827628D01*
X72073607Y-80592534D01*
X71850591Y-80499930D01*
X72072372Y-80408292D01*
X72307466Y-80173607D01*
X72434855Y-79866821D01*
X72435145Y-79534637D01*
X72308292Y-79227628D01*
X72092041Y-79011000D01*
X83533305Y-79011000D01*
X83638775Y-79541235D01*
X83939129Y-79990746D01*
X84388640Y-80291100D01*
X84918875Y-80396570D01*
X86501125Y-80396570D01*
X87031360Y-80291100D01*
X87480871Y-79990746D01*
X87781225Y-79541235D01*
X87886695Y-79011000D01*
X88613305Y-79011000D01*
X88718775Y-79541235D01*
X89019129Y-79990746D01*
X89468640Y-80291100D01*
X89998875Y-80396570D01*
X91581125Y-80396570D01*
X92111360Y-80291100D01*
X92560871Y-79990746D01*
X92861225Y-79541235D01*
X92966695Y-79011000D01*
X92861225Y-78480765D01*
X92560871Y-78031254D01*
X92111360Y-77730900D01*
X91581125Y-77625430D01*
X89998875Y-77625430D01*
X89468640Y-77730900D01*
X89019129Y-78031254D01*
X88718775Y-78480765D01*
X88613305Y-79011000D01*
X87886695Y-79011000D01*
X87781225Y-78480765D01*
X87480871Y-78031254D01*
X87031360Y-77730900D01*
X86501125Y-77625430D01*
X84918875Y-77625430D01*
X84388640Y-77730900D01*
X83939129Y-78031254D01*
X83638775Y-78480765D01*
X83533305Y-79011000D01*
X72092041Y-79011000D01*
X72073607Y-78992534D01*
X71766821Y-78865145D01*
X71434637Y-78864855D01*
X71127628Y-78991708D01*
X70892534Y-79226393D01*
X70765145Y-79533179D01*
X70764855Y-79865363D01*
X70891708Y-80172372D01*
X71126393Y-80407466D01*
X71349409Y-80500070D01*
X71127628Y-80591708D01*
X70892534Y-80826393D01*
X70827906Y-80982034D01*
X70666821Y-80915145D01*
X70334637Y-80914855D01*
X70027628Y-81041708D01*
X69792534Y-81276393D01*
X69665145Y-81583179D01*
X69664855Y-81915363D01*
X47627000Y-81915363D01*
X47627000Y-79453000D01*
X49083305Y-79453000D01*
X49188775Y-79983235D01*
X49489129Y-80432746D01*
X49938640Y-80733100D01*
X50468875Y-80838570D01*
X52051125Y-80838570D01*
X52581360Y-80733100D01*
X53030871Y-80432746D01*
X53331225Y-79983235D01*
X53436695Y-79453000D01*
X54163305Y-79453000D01*
X54268775Y-79983235D01*
X54569129Y-80432746D01*
X55018640Y-80733100D01*
X55548875Y-80838570D01*
X57131125Y-80838570D01*
X57661360Y-80733100D01*
X58110871Y-80432746D01*
X58411225Y-79983235D01*
X58516695Y-79453000D01*
X58411225Y-78922765D01*
X58110871Y-78473254D01*
X57661360Y-78172900D01*
X57131125Y-78067430D01*
X55548875Y-78067430D01*
X55018640Y-78172900D01*
X54569129Y-78473254D01*
X54268775Y-78922765D01*
X54163305Y-79453000D01*
X53436695Y-79453000D01*
X53331225Y-78922765D01*
X53030871Y-78473254D01*
X52581360Y-78172900D01*
X52051125Y-78067430D01*
X50468875Y-78067430D01*
X49938640Y-78172900D01*
X49489129Y-78473254D01*
X49188775Y-78922765D01*
X49083305Y-79453000D01*
X47627000Y-79453000D01*
X47627000Y-78065363D01*
X65964855Y-78065363D01*
X66091708Y-78372372D01*
X66326393Y-78607466D01*
X66633179Y-78734855D01*
X66965363Y-78735145D01*
X67272372Y-78608292D01*
X67507466Y-78373607D01*
X67634855Y-78066821D01*
X67635145Y-77734637D01*
X67508292Y-77427628D01*
X67496049Y-77415363D01*
X69664855Y-77415363D01*
X69791708Y-77722372D01*
X70026393Y-77957466D01*
X70333179Y-78084855D01*
X70555627Y-78085049D01*
X70591708Y-78172372D01*
X70826393Y-78407466D01*
X71133179Y-78534855D01*
X71465363Y-78535145D01*
X71772372Y-78408292D01*
X72007466Y-78173607D01*
X72010889Y-78165363D01*
X74164855Y-78165363D01*
X74291708Y-78472372D01*
X74526393Y-78707466D01*
X74833179Y-78834855D01*
X75165363Y-78835145D01*
X75472372Y-78708292D01*
X75707466Y-78473607D01*
X75834855Y-78166821D01*
X75835145Y-77834637D01*
X75708292Y-77527628D01*
X75473607Y-77292534D01*
X75166821Y-77165145D01*
X74834637Y-77164855D01*
X74527628Y-77291708D01*
X74292534Y-77526393D01*
X74165145Y-77833179D01*
X74164855Y-78165363D01*
X72010889Y-78165363D01*
X72134855Y-77866821D01*
X72135145Y-77534637D01*
X72008292Y-77227628D01*
X71773607Y-76992534D01*
X71466821Y-76865145D01*
X71244373Y-76864951D01*
X71208292Y-76777628D01*
X70973607Y-76542534D01*
X70666821Y-76415145D01*
X70334637Y-76414855D01*
X70027628Y-76541708D01*
X69792534Y-76776393D01*
X69665145Y-77083179D01*
X69664855Y-77415363D01*
X67496049Y-77415363D01*
X67273607Y-77192534D01*
X66966821Y-77065145D01*
X66634637Y-77064855D01*
X66327628Y-77191708D01*
X66092534Y-77426393D01*
X65965145Y-77733179D01*
X65964855Y-78065363D01*
X47627000Y-78065363D01*
X47627000Y-74373000D01*
X49083305Y-74373000D01*
X49188775Y-74903235D01*
X49489129Y-75352746D01*
X49938640Y-75653100D01*
X50468875Y-75758570D01*
X52051125Y-75758570D01*
X52581360Y-75653100D01*
X53030871Y-75352746D01*
X53331225Y-74903235D01*
X53436695Y-74373000D01*
X54163305Y-74373000D01*
X54268775Y-74903235D01*
X54569129Y-75352746D01*
X55018640Y-75653100D01*
X55548875Y-75758570D01*
X57131125Y-75758570D01*
X57661360Y-75653100D01*
X58110871Y-75352746D01*
X58411225Y-74903235D01*
X58516695Y-74373000D01*
X58454038Y-74058000D01*
X83533305Y-74058000D01*
X83638775Y-74588235D01*
X83939129Y-75037746D01*
X84388640Y-75338100D01*
X84918875Y-75443570D01*
X86501125Y-75443570D01*
X87031360Y-75338100D01*
X87480871Y-75037746D01*
X87781225Y-74588235D01*
X87886695Y-74058000D01*
X88613305Y-74058000D01*
X88718775Y-74588235D01*
X89019129Y-75037746D01*
X89468640Y-75338100D01*
X89998875Y-75443570D01*
X91581125Y-75443570D01*
X92111360Y-75338100D01*
X92560871Y-75037746D01*
X92861225Y-74588235D01*
X92966695Y-74058000D01*
X92861225Y-73527765D01*
X92560871Y-73078254D01*
X92111360Y-72777900D01*
X91581125Y-72672430D01*
X89998875Y-72672430D01*
X89468640Y-72777900D01*
X89019129Y-73078254D01*
X88718775Y-73527765D01*
X88613305Y-74058000D01*
X87886695Y-74058000D01*
X87781225Y-73527765D01*
X87480871Y-73078254D01*
X87031360Y-72777900D01*
X86501125Y-72672430D01*
X84918875Y-72672430D01*
X84388640Y-72777900D01*
X83939129Y-73078254D01*
X83638775Y-73527765D01*
X83533305Y-74058000D01*
X58454038Y-74058000D01*
X58411225Y-73842765D01*
X58110871Y-73393254D01*
X57769809Y-73165363D01*
X64164855Y-73165363D01*
X64291708Y-73472372D01*
X64526393Y-73707466D01*
X64833179Y-73834855D01*
X65165363Y-73835145D01*
X65472372Y-73708292D01*
X65707466Y-73473607D01*
X65834855Y-73166821D01*
X65835145Y-72834637D01*
X65708292Y-72527628D01*
X65546310Y-72365363D01*
X66564855Y-72365363D01*
X66691708Y-72672372D01*
X66926393Y-72907466D01*
X67233179Y-73034855D01*
X67565363Y-73035145D01*
X67872372Y-72908292D01*
X68107466Y-72673607D01*
X68234855Y-72366821D01*
X68235030Y-72165363D01*
X73414855Y-72165363D01*
X73541708Y-72472372D01*
X73776393Y-72707466D01*
X74083179Y-72834855D01*
X74415363Y-72835145D01*
X74722372Y-72708292D01*
X74957466Y-72473607D01*
X75084855Y-72166821D01*
X75085145Y-71834637D01*
X74986000Y-71594687D01*
X75207466Y-71373607D01*
X75334855Y-71066821D01*
X75335145Y-70734637D01*
X75208292Y-70427628D01*
X74973607Y-70192534D01*
X74666821Y-70065145D01*
X74334637Y-70064855D01*
X74027628Y-70191708D01*
X73792534Y-70426393D01*
X73665145Y-70733179D01*
X73664855Y-71065363D01*
X73764000Y-71305313D01*
X73542534Y-71526393D01*
X73415145Y-71833179D01*
X73414855Y-72165363D01*
X68235030Y-72165363D01*
X68235145Y-72034637D01*
X68108292Y-71727628D01*
X67873607Y-71492534D01*
X67566821Y-71365145D01*
X67234637Y-71364855D01*
X66927628Y-71491708D01*
X66692534Y-71726393D01*
X66565145Y-72033179D01*
X66564855Y-72365363D01*
X65546310Y-72365363D01*
X65473607Y-72292534D01*
X65166821Y-72165145D01*
X64834637Y-72164855D01*
X64527628Y-72291708D01*
X64292534Y-72526393D01*
X64165145Y-72833179D01*
X64164855Y-73165363D01*
X57769809Y-73165363D01*
X57661360Y-73092900D01*
X57131125Y-72987430D01*
X55548875Y-72987430D01*
X55018640Y-73092900D01*
X54569129Y-73393254D01*
X54268775Y-73842765D01*
X54163305Y-74373000D01*
X53436695Y-74373000D01*
X53331225Y-73842765D01*
X53030871Y-73393254D01*
X52581360Y-73092900D01*
X52051125Y-72987430D01*
X50468875Y-72987430D01*
X49938640Y-73092900D01*
X49489129Y-73393254D01*
X49188775Y-73842765D01*
X49083305Y-74373000D01*
X47627000Y-74373000D01*
X47627000Y-69420000D01*
X49083305Y-69420000D01*
X49188775Y-69950235D01*
X49489129Y-70399746D01*
X49938640Y-70700100D01*
X50468875Y-70805570D01*
X52051125Y-70805570D01*
X52581360Y-70700100D01*
X53030871Y-70399746D01*
X53331225Y-69950235D01*
X53436695Y-69420000D01*
X54163305Y-69420000D01*
X54268775Y-69950235D01*
X54569129Y-70399746D01*
X55018640Y-70700100D01*
X55548875Y-70805570D01*
X57131125Y-70805570D01*
X57661360Y-70700100D01*
X58110871Y-70399746D01*
X58411225Y-69950235D01*
X58418161Y-69915363D01*
X66664855Y-69915363D01*
X66791708Y-70222372D01*
X67026393Y-70457466D01*
X67333179Y-70584855D01*
X67665363Y-70585145D01*
X67972372Y-70458292D01*
X68207466Y-70223607D01*
X68334855Y-69916821D01*
X68335145Y-69584637D01*
X68208292Y-69277628D01*
X67973607Y-69042534D01*
X67818193Y-68978000D01*
X83533305Y-68978000D01*
X83638775Y-69508235D01*
X83939129Y-69957746D01*
X84388640Y-70258100D01*
X84918875Y-70363570D01*
X86501125Y-70363570D01*
X87031360Y-70258100D01*
X87480871Y-69957746D01*
X87781225Y-69508235D01*
X87886695Y-68978000D01*
X88613305Y-68978000D01*
X88718775Y-69508235D01*
X89019129Y-69957746D01*
X89468640Y-70258100D01*
X89998875Y-70363570D01*
X91581125Y-70363570D01*
X92111360Y-70258100D01*
X92560871Y-69957746D01*
X92861225Y-69508235D01*
X92966695Y-68978000D01*
X92861225Y-68447765D01*
X92560871Y-67998254D01*
X92111360Y-67697900D01*
X91581125Y-67592430D01*
X89998875Y-67592430D01*
X89468640Y-67697900D01*
X89019129Y-67998254D01*
X88718775Y-68447765D01*
X88613305Y-68978000D01*
X87886695Y-68978000D01*
X87781225Y-68447765D01*
X87480871Y-67998254D01*
X87031360Y-67697900D01*
X86501125Y-67592430D01*
X84918875Y-67592430D01*
X84388640Y-67697900D01*
X83939129Y-67998254D01*
X83638775Y-68447765D01*
X83533305Y-68978000D01*
X67818193Y-68978000D01*
X67666821Y-68915145D01*
X67334637Y-68914855D01*
X67027628Y-69041708D01*
X66792534Y-69276393D01*
X66665145Y-69583179D01*
X66664855Y-69915363D01*
X58418161Y-69915363D01*
X58516695Y-69420000D01*
X58411225Y-68889765D01*
X58110871Y-68440254D01*
X57661360Y-68139900D01*
X57131125Y-68034430D01*
X55548875Y-68034430D01*
X55018640Y-68139900D01*
X54569129Y-68440254D01*
X54268775Y-68889765D01*
X54163305Y-69420000D01*
X53436695Y-69420000D01*
X53331225Y-68889765D01*
X53030871Y-68440254D01*
X52581360Y-68139900D01*
X52051125Y-68034430D01*
X50468875Y-68034430D01*
X49938640Y-68139900D01*
X49489129Y-68440254D01*
X49188775Y-68889765D01*
X49083305Y-69420000D01*
X47627000Y-69420000D01*
X47627000Y-61575000D01*
X48677560Y-61575000D01*
X48677560Y-63425000D01*
X48721838Y-63660317D01*
X48860910Y-63876441D01*
X49073110Y-64021431D01*
X49325000Y-64072440D01*
X51175000Y-64072440D01*
X51410317Y-64028162D01*
X51626441Y-63889090D01*
X51750771Y-63707126D01*
X51865177Y-63821732D01*
X52438336Y-64059728D01*
X53058942Y-64060270D01*
X53632514Y-63823275D01*
X54000256Y-63456174D01*
X54365177Y-63821732D01*
X54938336Y-64059728D01*
X55558942Y-64060270D01*
X56132514Y-63823275D01*
X56571732Y-63384823D01*
X56809728Y-62811664D01*
X56810270Y-62191058D01*
X56573275Y-61617486D01*
X56134823Y-61178268D01*
X55561664Y-60940272D01*
X54941058Y-60939730D01*
X54367486Y-61176725D01*
X53999744Y-61543826D01*
X53634823Y-61178268D01*
X53061664Y-60940272D01*
X52441058Y-60939730D01*
X51867486Y-61176725D01*
X51749251Y-61294754D01*
X51639090Y-61123559D01*
X51426890Y-60978569D01*
X51175000Y-60927560D01*
X49325000Y-60927560D01*
X49089683Y-60971838D01*
X48873559Y-61110910D01*
X48728569Y-61323110D01*
X48677560Y-61575000D01*
X47627000Y-61575000D01*
X47627000Y-60877000D01*
X93623000Y-60877000D01*
X93623000Y-117623000D01*
X93623000Y-117623000D01*
G37*
X93623000Y-117623000D02*
X47627000Y-117623000D01*
X47627000Y-114575000D01*
X48677560Y-114575000D01*
X48677560Y-116425000D01*
X48721838Y-116660317D01*
X48860910Y-116876441D01*
X49073110Y-117021431D01*
X49325000Y-117072440D01*
X51175000Y-117072440D01*
X51410317Y-117028162D01*
X51626441Y-116889090D01*
X51750771Y-116707126D01*
X51865177Y-116821732D01*
X52438336Y-117059728D01*
X53058942Y-117060270D01*
X53632514Y-116823275D01*
X54000256Y-116456174D01*
X54365177Y-116821732D01*
X54938336Y-117059728D01*
X55558942Y-117060270D01*
X56132514Y-116823275D01*
X56571732Y-116384823D01*
X56809728Y-115811664D01*
X56810270Y-115191058D01*
X56573275Y-114617486D01*
X56134823Y-114178268D01*
X55561664Y-113940272D01*
X54941058Y-113939730D01*
X54367486Y-114176725D01*
X53999744Y-114543826D01*
X53634823Y-114178268D01*
X53061664Y-113940272D01*
X52441058Y-113939730D01*
X51867486Y-114176725D01*
X51749251Y-114294754D01*
X51639090Y-114123559D01*
X51426890Y-113978569D01*
X51175000Y-113927560D01*
X49325000Y-113927560D01*
X49089683Y-113971838D01*
X48873559Y-114110910D01*
X48728569Y-114323110D01*
X48677560Y-114575000D01*
X47627000Y-114575000D01*
X47627000Y-113912913D01*
X73294638Y-113912913D01*
X73611392Y-114679515D01*
X74197400Y-115266547D01*
X74963448Y-115584638D01*
X75792913Y-115585362D01*
X76559515Y-115268608D01*
X77146547Y-114682600D01*
X77464638Y-113916552D01*
X77464641Y-113912913D01*
X78374638Y-113912913D01*
X78691392Y-114679515D01*
X79277400Y-115266547D01*
X80043448Y-115584638D01*
X80872913Y-115585362D01*
X81639515Y-115268608D01*
X82226547Y-114682600D01*
X82544638Y-113916552D01*
X82544641Y-113912913D01*
X83454638Y-113912913D01*
X83771392Y-114679515D01*
X84357400Y-115266547D01*
X85123448Y-115584638D01*
X85952913Y-115585362D01*
X86719515Y-115268608D01*
X87010782Y-114977849D01*
X89321756Y-114977849D01*
X89475435Y-115291424D01*
X90248108Y-115593066D01*
X91077398Y-115576058D01*
X91764565Y-115291424D01*
X91918244Y-114977849D01*
X90620000Y-113679605D01*
X89321756Y-114977849D01*
X87010782Y-114977849D01*
X87306547Y-114682600D01*
X87624638Y-113916552D01*
X87625326Y-113128108D01*
X88526934Y-113128108D01*
X88543942Y-113957398D01*
X88828576Y-114644565D01*
X89142151Y-114798244D01*
X90440395Y-113500000D01*
X90799605Y-113500000D01*
X92097849Y-114798244D01*
X92411424Y-114644565D01*
X92713066Y-113871892D01*
X92696058Y-113042602D01*
X92411424Y-112355435D01*
X92097849Y-112201756D01*
X90799605Y-113500000D01*
X90440395Y-113500000D01*
X89142151Y-112201756D01*
X88828576Y-112355435D01*
X88526934Y-113128108D01*
X87625326Y-113128108D01*
X87625362Y-113087087D01*
X87308608Y-112320485D01*
X87010795Y-112022151D01*
X89321756Y-112022151D01*
X90620000Y-113320395D01*
X91918244Y-112022151D01*
X91764565Y-111708576D01*
X90991892Y-111406934D01*
X90162602Y-111423942D01*
X89475435Y-111708576D01*
X89321756Y-112022151D01*
X87010795Y-112022151D01*
X86722600Y-111733453D01*
X85956552Y-111415362D01*
X85127087Y-111414638D01*
X84360485Y-111731392D01*
X83773453Y-112317400D01*
X83455362Y-113083448D01*
X83454638Y-113912913D01*
X82544641Y-113912913D01*
X82545362Y-113087087D01*
X82228608Y-112320485D01*
X81642600Y-111733453D01*
X80876552Y-111415362D01*
X80047087Y-111414638D01*
X79280485Y-111731392D01*
X78693453Y-112317400D01*
X78375362Y-113083448D01*
X78374638Y-113912913D01*
X77464641Y-113912913D01*
X77465362Y-113087087D01*
X77148608Y-112320485D01*
X76562600Y-111733453D01*
X75796552Y-111415362D01*
X74967087Y-111414638D01*
X74200485Y-111731392D01*
X73613453Y-112317400D01*
X73295362Y-113083448D01*
X73294638Y-113912913D01*
X47627000Y-113912913D01*
X47627000Y-109075000D01*
X48677560Y-109075000D01*
X48677560Y-110925000D01*
X48721838Y-111160317D01*
X48860910Y-111376441D01*
X49073110Y-111521431D01*
X49325000Y-111572440D01*
X51175000Y-111572440D01*
X51410317Y-111528162D01*
X51626441Y-111389090D01*
X51750771Y-111207126D01*
X51865177Y-111321732D01*
X52438336Y-111559728D01*
X53058942Y-111560270D01*
X53632514Y-111323275D01*
X54000256Y-110956174D01*
X54365177Y-111321732D01*
X54938336Y-111559728D01*
X55558942Y-111560270D01*
X56132514Y-111323275D01*
X56571732Y-110884823D01*
X56809728Y-110311664D01*
X56810270Y-109691058D01*
X56573275Y-109117486D01*
X56134823Y-108678268D01*
X55561664Y-108440272D01*
X54941058Y-108439730D01*
X54367486Y-108676725D01*
X53999744Y-109043826D01*
X53634823Y-108678268D01*
X53061664Y-108440272D01*
X52441058Y-108439730D01*
X51867486Y-108676725D01*
X51749251Y-108794754D01*
X51639090Y-108623559D01*
X51426890Y-108478569D01*
X51175000Y-108427560D01*
X49325000Y-108427560D01*
X49089683Y-108471838D01*
X48873559Y-108610910D01*
X48728569Y-108823110D01*
X48677560Y-109075000D01*
X47627000Y-109075000D01*
X47627000Y-106841887D01*
X66985000Y-106841887D01*
X66985000Y-106898113D01*
X67094233Y-107447264D01*
X67405302Y-107912811D01*
X67870849Y-108223880D01*
X68420000Y-108333113D01*
X68969151Y-108223880D01*
X69434698Y-107912811D01*
X69690000Y-107530725D01*
X69945302Y-107912811D01*
X70410849Y-108223880D01*
X70960000Y-108333113D01*
X71509151Y-108223880D01*
X71974698Y-107912811D01*
X72230000Y-107530725D01*
X72485302Y-107912811D01*
X72950849Y-108223880D01*
X73500000Y-108333113D01*
X74049151Y-108223880D01*
X74514698Y-107912811D01*
X74825767Y-107447264D01*
X74935000Y-106898113D01*
X74935000Y-106841887D01*
X74825767Y-106292736D01*
X74514698Y-105827189D01*
X74049151Y-105516120D01*
X73500000Y-105406887D01*
X72950849Y-105516120D01*
X72485302Y-105827189D01*
X72230000Y-106209275D01*
X71974698Y-105827189D01*
X71509151Y-105516120D01*
X70960000Y-105406887D01*
X70410849Y-105516120D01*
X69945302Y-105827189D01*
X69690000Y-106209275D01*
X69434698Y-105827189D01*
X68969151Y-105516120D01*
X68420000Y-105406887D01*
X67870849Y-105516120D01*
X67405302Y-105827189D01*
X67094233Y-106292736D01*
X66985000Y-106841887D01*
X47627000Y-106841887D01*
X47627000Y-104472000D01*
X49083305Y-104472000D01*
X49188775Y-105002235D01*
X49489129Y-105451746D01*
X49938640Y-105752100D01*
X50468875Y-105857570D01*
X52051125Y-105857570D01*
X52581360Y-105752100D01*
X53030871Y-105451746D01*
X53331225Y-105002235D01*
X53436695Y-104472000D01*
X54163305Y-104472000D01*
X54268775Y-105002235D01*
X54569129Y-105451746D01*
X55018640Y-105752100D01*
X55548875Y-105857570D01*
X57131125Y-105857570D01*
X57661360Y-105752100D01*
X58110871Y-105451746D01*
X58411225Y-105002235D01*
X58516695Y-104472000D01*
X58428776Y-104030000D01*
X83533305Y-104030000D01*
X83638775Y-104560235D01*
X83939129Y-105009746D01*
X84388640Y-105310100D01*
X84918875Y-105415570D01*
X86501125Y-105415570D01*
X87031360Y-105310100D01*
X87480871Y-105009746D01*
X87781225Y-104560235D01*
X87886695Y-104030000D01*
X88613305Y-104030000D01*
X88718775Y-104560235D01*
X89019129Y-105009746D01*
X89468640Y-105310100D01*
X89998875Y-105415570D01*
X91581125Y-105415570D01*
X92111360Y-105310100D01*
X92560871Y-105009746D01*
X92861225Y-104560235D01*
X92966695Y-104030000D01*
X92861225Y-103499765D01*
X92560871Y-103050254D01*
X92111360Y-102749900D01*
X91581125Y-102644430D01*
X89998875Y-102644430D01*
X89468640Y-102749900D01*
X89019129Y-103050254D01*
X88718775Y-103499765D01*
X88613305Y-104030000D01*
X87886695Y-104030000D01*
X87781225Y-103499765D01*
X87480871Y-103050254D01*
X87031360Y-102749900D01*
X86501125Y-102644430D01*
X84918875Y-102644430D01*
X84388640Y-102749900D01*
X83939129Y-103050254D01*
X83638775Y-103499765D01*
X83533305Y-104030000D01*
X58428776Y-104030000D01*
X58411225Y-103941765D01*
X58110871Y-103492254D01*
X57661360Y-103191900D01*
X57131125Y-103086430D01*
X55548875Y-103086430D01*
X55018640Y-103191900D01*
X54569129Y-103492254D01*
X54268775Y-103941765D01*
X54163305Y-104472000D01*
X53436695Y-104472000D01*
X53331225Y-103941765D01*
X53030871Y-103492254D01*
X52581360Y-103191900D01*
X52051125Y-103086430D01*
X50468875Y-103086430D01*
X49938640Y-103191900D01*
X49489129Y-103492254D01*
X49188775Y-103941765D01*
X49083305Y-104472000D01*
X47627000Y-104472000D01*
X47627000Y-102665363D01*
X48164855Y-102665363D01*
X48291708Y-102972372D01*
X48526393Y-103207466D01*
X48833179Y-103334855D01*
X49165363Y-103335145D01*
X49472372Y-103208292D01*
X49707466Y-102973607D01*
X49834855Y-102666821D01*
X49835145Y-102334637D01*
X49708292Y-102027628D01*
X49473607Y-101792534D01*
X49166821Y-101665145D01*
X48834637Y-101664855D01*
X48527628Y-101791708D01*
X48292534Y-102026393D01*
X48165145Y-102333179D01*
X48164855Y-102665363D01*
X47627000Y-102665363D01*
X47627000Y-101249242D01*
X47833179Y-101334855D01*
X48165363Y-101335145D01*
X48472372Y-101208292D01*
X48707466Y-100973607D01*
X48834855Y-100666821D01*
X48835145Y-100334637D01*
X48708292Y-100027628D01*
X48473607Y-99792534D01*
X48166821Y-99665145D01*
X47834637Y-99664855D01*
X47627000Y-99750648D01*
X47627000Y-99392000D01*
X49083305Y-99392000D01*
X49188775Y-99922235D01*
X49489129Y-100371746D01*
X49938640Y-100672100D01*
X50468875Y-100777570D01*
X52051125Y-100777570D01*
X52581360Y-100672100D01*
X53030871Y-100371746D01*
X53331225Y-99922235D01*
X53436695Y-99392000D01*
X54163305Y-99392000D01*
X54268775Y-99922235D01*
X54569129Y-100371746D01*
X55018640Y-100672100D01*
X55548875Y-100777570D01*
X57131125Y-100777570D01*
X57661360Y-100672100D01*
X58110871Y-100371746D01*
X58411225Y-99922235D01*
X58516695Y-99392000D01*
X58482858Y-99221887D01*
X66985000Y-99221887D01*
X66985000Y-99278113D01*
X67094233Y-99827264D01*
X67405302Y-100292811D01*
X67870849Y-100603880D01*
X68420000Y-100713113D01*
X68969151Y-100603880D01*
X69434698Y-100292811D01*
X69690000Y-99910725D01*
X69945302Y-100292811D01*
X70410849Y-100603880D01*
X70960000Y-100713113D01*
X71509151Y-100603880D01*
X71974698Y-100292811D01*
X72071101Y-100148535D01*
X72096838Y-100285317D01*
X72235910Y-100501441D01*
X72448110Y-100646431D01*
X72700000Y-100697440D01*
X74300000Y-100697440D01*
X74535317Y-100653162D01*
X74751441Y-100514090D01*
X74896431Y-100301890D01*
X74947440Y-100050000D01*
X74947440Y-99077000D01*
X83533305Y-99077000D01*
X83638775Y-99607235D01*
X83939129Y-100056746D01*
X84388640Y-100357100D01*
X84918875Y-100462570D01*
X86501125Y-100462570D01*
X87031360Y-100357100D01*
X87480871Y-100056746D01*
X87781225Y-99607235D01*
X87886695Y-99077000D01*
X88613305Y-99077000D01*
X88718775Y-99607235D01*
X89019129Y-100056746D01*
X89468640Y-100357100D01*
X89998875Y-100462570D01*
X91581125Y-100462570D01*
X92111360Y-100357100D01*
X92560871Y-100056746D01*
X92861225Y-99607235D01*
X92966695Y-99077000D01*
X92861225Y-98546765D01*
X92560871Y-98097254D01*
X92111360Y-97796900D01*
X91581125Y-97691430D01*
X89998875Y-97691430D01*
X89468640Y-97796900D01*
X89019129Y-98097254D01*
X88718775Y-98546765D01*
X88613305Y-99077000D01*
X87886695Y-99077000D01*
X87781225Y-98546765D01*
X87480871Y-98097254D01*
X87031360Y-97796900D01*
X86501125Y-97691430D01*
X84918875Y-97691430D01*
X84388640Y-97796900D01*
X83939129Y-98097254D01*
X83638775Y-98546765D01*
X83533305Y-99077000D01*
X74947440Y-99077000D01*
X74947440Y-98450000D01*
X74903162Y-98214683D01*
X74764090Y-97998559D01*
X74551890Y-97853569D01*
X74300000Y-97802560D01*
X72700000Y-97802560D01*
X72464683Y-97846838D01*
X72248559Y-97985910D01*
X72103569Y-98198110D01*
X72072185Y-98353089D01*
X71974698Y-98207189D01*
X71509151Y-97896120D01*
X70960000Y-97786887D01*
X70410849Y-97896120D01*
X69945302Y-98207189D01*
X69690000Y-98589275D01*
X69434698Y-98207189D01*
X68969151Y-97896120D01*
X68420000Y-97786887D01*
X67870849Y-97896120D01*
X67405302Y-98207189D01*
X67094233Y-98672736D01*
X66985000Y-99221887D01*
X58482858Y-99221887D01*
X58411225Y-98861765D01*
X58110871Y-98412254D01*
X57661360Y-98111900D01*
X57131125Y-98006430D01*
X55548875Y-98006430D01*
X55018640Y-98111900D01*
X54569129Y-98412254D01*
X54268775Y-98861765D01*
X54163305Y-99392000D01*
X53436695Y-99392000D01*
X53331225Y-98861765D01*
X53030871Y-98412254D01*
X52581360Y-98111900D01*
X52051125Y-98006430D01*
X50468875Y-98006430D01*
X49938640Y-98111900D01*
X49489129Y-98412254D01*
X49188775Y-98861765D01*
X49083305Y-99392000D01*
X47627000Y-99392000D01*
X47627000Y-96065363D01*
X73464855Y-96065363D01*
X73591708Y-96372372D01*
X73826393Y-96607466D01*
X74133179Y-96734855D01*
X74465363Y-96735145D01*
X74772372Y-96608292D01*
X75007466Y-96373607D01*
X75134855Y-96066821D01*
X75135145Y-95734637D01*
X75008292Y-95427628D01*
X74773607Y-95192534D01*
X74466821Y-95065145D01*
X74134637Y-95064855D01*
X73827628Y-95191708D01*
X73592534Y-95426393D01*
X73465145Y-95733179D01*
X73464855Y-96065363D01*
X47627000Y-96065363D01*
X47627000Y-94439000D01*
X49083305Y-94439000D01*
X49188775Y-94969235D01*
X49489129Y-95418746D01*
X49938640Y-95719100D01*
X50468875Y-95824570D01*
X52051125Y-95824570D01*
X52581360Y-95719100D01*
X53030871Y-95418746D01*
X53331225Y-94969235D01*
X53436695Y-94439000D01*
X54163305Y-94439000D01*
X54268775Y-94969235D01*
X54569129Y-95418746D01*
X55018640Y-95719100D01*
X55548875Y-95824570D01*
X57131125Y-95824570D01*
X57661360Y-95719100D01*
X58110871Y-95418746D01*
X58411225Y-94969235D01*
X58451777Y-94765363D01*
X66364855Y-94765363D01*
X66491708Y-95072372D01*
X66726393Y-95307466D01*
X67033179Y-95434855D01*
X67365363Y-95435145D01*
X67672372Y-95308292D01*
X67907466Y-95073607D01*
X68034855Y-94766821D01*
X68035145Y-94434637D01*
X67923884Y-94165363D01*
X73464855Y-94165363D01*
X73591708Y-94472372D01*
X73826393Y-94707466D01*
X74133179Y-94834855D01*
X74465363Y-94835145D01*
X74772372Y-94708292D01*
X75007466Y-94473607D01*
X75134855Y-94166821D01*
X75135003Y-93997000D01*
X83533305Y-93997000D01*
X83638775Y-94527235D01*
X83939129Y-94976746D01*
X84388640Y-95277100D01*
X84918875Y-95382570D01*
X86501125Y-95382570D01*
X87031360Y-95277100D01*
X87480871Y-94976746D01*
X87781225Y-94527235D01*
X87886695Y-93997000D01*
X88613305Y-93997000D01*
X88718775Y-94527235D01*
X89019129Y-94976746D01*
X89468640Y-95277100D01*
X89998875Y-95382570D01*
X91581125Y-95382570D01*
X92111360Y-95277100D01*
X92560871Y-94976746D01*
X92861225Y-94527235D01*
X92966695Y-93997000D01*
X92861225Y-93466765D01*
X92560871Y-93017254D01*
X92111360Y-92716900D01*
X91581125Y-92611430D01*
X89998875Y-92611430D01*
X89468640Y-92716900D01*
X89019129Y-93017254D01*
X88718775Y-93466765D01*
X88613305Y-93997000D01*
X87886695Y-93997000D01*
X87781225Y-93466765D01*
X87480871Y-93017254D01*
X87031360Y-92716900D01*
X86501125Y-92611430D01*
X84918875Y-92611430D01*
X84388640Y-92716900D01*
X83939129Y-93017254D01*
X83638775Y-93466765D01*
X83533305Y-93997000D01*
X75135003Y-93997000D01*
X75135145Y-93834637D01*
X75008292Y-93527628D01*
X74773607Y-93292534D01*
X74466821Y-93165145D01*
X74134637Y-93164855D01*
X73827628Y-93291708D01*
X73592534Y-93526393D01*
X73465145Y-93833179D01*
X73464855Y-94165363D01*
X67923884Y-94165363D01*
X67908292Y-94127628D01*
X67673607Y-93892534D01*
X67366821Y-93765145D01*
X67034637Y-93764855D01*
X66727628Y-93891708D01*
X66492534Y-94126393D01*
X66365145Y-94433179D01*
X66364855Y-94765363D01*
X58451777Y-94765363D01*
X58516695Y-94439000D01*
X58411225Y-93908765D01*
X58114953Y-93465363D01*
X65164855Y-93465363D01*
X65291708Y-93772372D01*
X65526393Y-94007466D01*
X65833179Y-94134855D01*
X66165363Y-94135145D01*
X66472372Y-94008292D01*
X66707466Y-93773607D01*
X66834855Y-93466821D01*
X66835145Y-93134637D01*
X66708292Y-92827628D01*
X66473607Y-92592534D01*
X66166821Y-92465145D01*
X65834637Y-92464855D01*
X65527628Y-92591708D01*
X65292534Y-92826393D01*
X65165145Y-93133179D01*
X65164855Y-93465363D01*
X58114953Y-93465363D01*
X58110871Y-93459254D01*
X57661360Y-93158900D01*
X57131125Y-93053430D01*
X55548875Y-93053430D01*
X55018640Y-93158900D01*
X54569129Y-93459254D01*
X54268775Y-93908765D01*
X54163305Y-94439000D01*
X53436695Y-94439000D01*
X53331225Y-93908765D01*
X53030871Y-93459254D01*
X52581360Y-93158900D01*
X52051125Y-93053430D01*
X50468875Y-93053430D01*
X49938640Y-93158900D01*
X49489129Y-93459254D01*
X49188775Y-93908765D01*
X49083305Y-94439000D01*
X47627000Y-94439000D01*
X47627000Y-91265363D01*
X61464855Y-91265363D01*
X61591708Y-91572372D01*
X61826393Y-91807466D01*
X62133179Y-91934855D01*
X62465363Y-91935145D01*
X62772372Y-91808292D01*
X63007466Y-91573607D01*
X63134855Y-91266821D01*
X63135145Y-90934637D01*
X63106522Y-90865363D01*
X68864855Y-90865363D01*
X68991708Y-91172372D01*
X69226393Y-91407466D01*
X69533179Y-91534855D01*
X69865363Y-91535145D01*
X70172372Y-91408292D01*
X70407466Y-91173607D01*
X70534855Y-90866821D01*
X70535145Y-90534637D01*
X70408292Y-90227628D01*
X70173607Y-89992534D01*
X69866821Y-89865145D01*
X69534637Y-89864855D01*
X69227628Y-89991708D01*
X68992534Y-90226393D01*
X68865145Y-90533179D01*
X68864855Y-90865363D01*
X63106522Y-90865363D01*
X63008292Y-90627628D01*
X62773607Y-90392534D01*
X62466821Y-90265145D01*
X62134637Y-90264855D01*
X61827628Y-90391708D01*
X61592534Y-90626393D01*
X61465145Y-90933179D01*
X61464855Y-91265363D01*
X47627000Y-91265363D01*
X47627000Y-89486000D01*
X49083305Y-89486000D01*
X49188775Y-90016235D01*
X49489129Y-90465746D01*
X49938640Y-90766100D01*
X50468875Y-90871570D01*
X52051125Y-90871570D01*
X52581360Y-90766100D01*
X53030871Y-90465746D01*
X53331225Y-90016235D01*
X53436695Y-89486000D01*
X54163305Y-89486000D01*
X54268775Y-90016235D01*
X54569129Y-90465746D01*
X55018640Y-90766100D01*
X55548875Y-90871570D01*
X57131125Y-90871570D01*
X57661360Y-90766100D01*
X58110871Y-90465746D01*
X58411225Y-90016235D01*
X58516695Y-89486000D01*
X58411225Y-88955765D01*
X58110871Y-88506254D01*
X57661360Y-88205900D01*
X57457567Y-88165363D01*
X69664855Y-88165363D01*
X69791708Y-88472372D01*
X70026393Y-88707466D01*
X70333179Y-88834855D01*
X70576294Y-88835067D01*
X70591708Y-88872372D01*
X70826393Y-89107466D01*
X71133179Y-89234855D01*
X71465363Y-89235145D01*
X71772372Y-89108292D01*
X71836776Y-89044000D01*
X83533305Y-89044000D01*
X83638775Y-89574235D01*
X83939129Y-90023746D01*
X84388640Y-90324100D01*
X84918875Y-90429570D01*
X86501125Y-90429570D01*
X87031360Y-90324100D01*
X87480871Y-90023746D01*
X87781225Y-89574235D01*
X87886695Y-89044000D01*
X88613305Y-89044000D01*
X88718775Y-89574235D01*
X89019129Y-90023746D01*
X89468640Y-90324100D01*
X89998875Y-90429570D01*
X91581125Y-90429570D01*
X92111360Y-90324100D01*
X92560871Y-90023746D01*
X92861225Y-89574235D01*
X92966695Y-89044000D01*
X92861225Y-88513765D01*
X92560871Y-88064254D01*
X92111360Y-87763900D01*
X91581125Y-87658430D01*
X89998875Y-87658430D01*
X89468640Y-87763900D01*
X89019129Y-88064254D01*
X88718775Y-88513765D01*
X88613305Y-89044000D01*
X87886695Y-89044000D01*
X87781225Y-88513765D01*
X87480871Y-88064254D01*
X87031360Y-87763900D01*
X86501125Y-87658430D01*
X84918875Y-87658430D01*
X84388640Y-87763900D01*
X83939129Y-88064254D01*
X83638775Y-88513765D01*
X83533305Y-89044000D01*
X71836776Y-89044000D01*
X72007466Y-88873607D01*
X72134855Y-88566821D01*
X72135145Y-88234637D01*
X72008292Y-87927628D01*
X71773607Y-87692534D01*
X71466821Y-87565145D01*
X71411000Y-87565096D01*
X71493936Y-87365363D01*
X75464855Y-87365363D01*
X75591708Y-87672372D01*
X75826393Y-87907466D01*
X76133179Y-88034855D01*
X76465363Y-88035145D01*
X76772372Y-87908292D01*
X77007466Y-87673607D01*
X77134855Y-87366821D01*
X77135145Y-87034637D01*
X77008292Y-86727628D01*
X76773607Y-86492534D01*
X76466821Y-86365145D01*
X76134637Y-86364855D01*
X75827628Y-86491708D01*
X75592534Y-86726393D01*
X75465145Y-87033179D01*
X75464855Y-87365363D01*
X71493936Y-87365363D01*
X71534855Y-87266821D01*
X71535145Y-86934637D01*
X71408292Y-86627628D01*
X71173607Y-86392534D01*
X70866821Y-86265145D01*
X70534637Y-86264855D01*
X70227628Y-86391708D01*
X69992534Y-86626393D01*
X69865145Y-86933179D01*
X69864855Y-87265363D01*
X69920095Y-87399054D01*
X69792534Y-87526393D01*
X69665145Y-87833179D01*
X69664855Y-88165363D01*
X57457567Y-88165363D01*
X57131125Y-88100430D01*
X55548875Y-88100430D01*
X55018640Y-88205900D01*
X54569129Y-88506254D01*
X54268775Y-88955765D01*
X54163305Y-89486000D01*
X53436695Y-89486000D01*
X53331225Y-88955765D01*
X53030871Y-88506254D01*
X52581360Y-88205900D01*
X52051125Y-88100430D01*
X50468875Y-88100430D01*
X49938640Y-88205900D01*
X49489129Y-88506254D01*
X49188775Y-88955765D01*
X49083305Y-89486000D01*
X47627000Y-89486000D01*
X47627000Y-85965363D01*
X64564855Y-85965363D01*
X64691708Y-86272372D01*
X64926393Y-86507466D01*
X65233179Y-86634855D01*
X65565363Y-86635145D01*
X65872372Y-86508292D01*
X66107466Y-86273607D01*
X66234855Y-85966821D01*
X66235145Y-85634637D01*
X66108292Y-85327628D01*
X65873607Y-85092534D01*
X65566821Y-84965145D01*
X65234637Y-84964855D01*
X64927628Y-85091708D01*
X64692534Y-85326393D01*
X64565145Y-85633179D01*
X64564855Y-85965363D01*
X47627000Y-85965363D01*
X47627000Y-84406000D01*
X49083305Y-84406000D01*
X49188775Y-84936235D01*
X49489129Y-85385746D01*
X49938640Y-85686100D01*
X50468875Y-85791570D01*
X52051125Y-85791570D01*
X52581360Y-85686100D01*
X53030871Y-85385746D01*
X53331225Y-84936235D01*
X53436695Y-84406000D01*
X54163305Y-84406000D01*
X54268775Y-84936235D01*
X54569129Y-85385746D01*
X55018640Y-85686100D01*
X55548875Y-85791570D01*
X57131125Y-85791570D01*
X57661360Y-85686100D01*
X58110871Y-85385746D01*
X58411225Y-84936235D01*
X58445213Y-84765363D01*
X76364855Y-84765363D01*
X76491708Y-85072372D01*
X76726393Y-85307466D01*
X77033179Y-85434855D01*
X77365363Y-85435145D01*
X77672372Y-85308292D01*
X77907466Y-85073607D01*
X78034855Y-84766821D01*
X78035067Y-84523706D01*
X78072372Y-84508292D01*
X78307466Y-84273607D01*
X78434855Y-83966821D01*
X78434857Y-83964000D01*
X83533305Y-83964000D01*
X83638775Y-84494235D01*
X83939129Y-84943746D01*
X84388640Y-85244100D01*
X84918875Y-85349570D01*
X86501125Y-85349570D01*
X87031360Y-85244100D01*
X87480871Y-84943746D01*
X87781225Y-84494235D01*
X87886695Y-83964000D01*
X88613305Y-83964000D01*
X88718775Y-84494235D01*
X89019129Y-84943746D01*
X89468640Y-85244100D01*
X89998875Y-85349570D01*
X91581125Y-85349570D01*
X92111360Y-85244100D01*
X92560871Y-84943746D01*
X92861225Y-84494235D01*
X92966695Y-83964000D01*
X92861225Y-83433765D01*
X92560871Y-82984254D01*
X92111360Y-82683900D01*
X91581125Y-82578430D01*
X89998875Y-82578430D01*
X89468640Y-82683900D01*
X89019129Y-82984254D01*
X88718775Y-83433765D01*
X88613305Y-83964000D01*
X87886695Y-83964000D01*
X87781225Y-83433765D01*
X87480871Y-82984254D01*
X87031360Y-82683900D01*
X86501125Y-82578430D01*
X84918875Y-82578430D01*
X84388640Y-82683900D01*
X83939129Y-82984254D01*
X83638775Y-83433765D01*
X83533305Y-83964000D01*
X78434857Y-83964000D01*
X78435145Y-83634637D01*
X78308292Y-83327628D01*
X78073607Y-83092534D01*
X77766821Y-82965145D01*
X77434637Y-82964855D01*
X77127628Y-83091708D01*
X76892534Y-83326393D01*
X76765145Y-83633179D01*
X76764933Y-83876294D01*
X76727628Y-83891708D01*
X76492534Y-84126393D01*
X76365145Y-84433179D01*
X76364855Y-84765363D01*
X58445213Y-84765363D01*
X58516695Y-84406000D01*
X58411225Y-83875765D01*
X58110871Y-83426254D01*
X57720421Y-83165363D01*
X67914855Y-83165363D01*
X68041708Y-83472372D01*
X68276393Y-83707466D01*
X68583179Y-83834855D01*
X68664925Y-83834926D01*
X68664855Y-83915363D01*
X68791708Y-84222372D01*
X69026393Y-84457466D01*
X69333179Y-84584855D01*
X69665363Y-84585145D01*
X69972372Y-84458292D01*
X70207466Y-84223607D01*
X70334855Y-83916821D01*
X70335145Y-83584637D01*
X70208292Y-83277628D01*
X69973607Y-83042534D01*
X69666821Y-82915145D01*
X69585075Y-82915074D01*
X69585145Y-82834637D01*
X69458292Y-82527628D01*
X69223607Y-82292534D01*
X68916821Y-82165145D01*
X68584637Y-82164855D01*
X68277628Y-82291708D01*
X68042534Y-82526393D01*
X67915145Y-82833179D01*
X67914855Y-83165363D01*
X57720421Y-83165363D01*
X57661360Y-83125900D01*
X57131125Y-83020430D01*
X55548875Y-83020430D01*
X55018640Y-83125900D01*
X54569129Y-83426254D01*
X54268775Y-83875765D01*
X54163305Y-84406000D01*
X53436695Y-84406000D01*
X53331225Y-83875765D01*
X53030871Y-83426254D01*
X52581360Y-83125900D01*
X52051125Y-83020430D01*
X50468875Y-83020430D01*
X49938640Y-83125900D01*
X49489129Y-83426254D01*
X49188775Y-83875765D01*
X49083305Y-84406000D01*
X47627000Y-84406000D01*
X47627000Y-81915363D01*
X69664855Y-81915363D01*
X69791708Y-82222372D01*
X70026393Y-82457466D01*
X70333179Y-82584855D01*
X70665363Y-82585145D01*
X70972372Y-82458292D01*
X71207466Y-82223607D01*
X71272094Y-82067966D01*
X71433179Y-82134855D01*
X71765363Y-82135145D01*
X72072372Y-82008292D01*
X72307466Y-81773607D01*
X72434855Y-81466821D01*
X72435145Y-81134637D01*
X72308292Y-80827628D01*
X72073607Y-80592534D01*
X71850591Y-80499930D01*
X72072372Y-80408292D01*
X72307466Y-80173607D01*
X72434855Y-79866821D01*
X72435145Y-79534637D01*
X72308292Y-79227628D01*
X72092041Y-79011000D01*
X83533305Y-79011000D01*
X83638775Y-79541235D01*
X83939129Y-79990746D01*
X84388640Y-80291100D01*
X84918875Y-80396570D01*
X86501125Y-80396570D01*
X87031360Y-80291100D01*
X87480871Y-79990746D01*
X87781225Y-79541235D01*
X87886695Y-79011000D01*
X88613305Y-79011000D01*
X88718775Y-79541235D01*
X89019129Y-79990746D01*
X89468640Y-80291100D01*
X89998875Y-80396570D01*
X91581125Y-80396570D01*
X92111360Y-80291100D01*
X92560871Y-79990746D01*
X92861225Y-79541235D01*
X92966695Y-79011000D01*
X92861225Y-78480765D01*
X92560871Y-78031254D01*
X92111360Y-77730900D01*
X91581125Y-77625430D01*
X89998875Y-77625430D01*
X89468640Y-77730900D01*
X89019129Y-78031254D01*
X88718775Y-78480765D01*
X88613305Y-79011000D01*
X87886695Y-79011000D01*
X87781225Y-78480765D01*
X87480871Y-78031254D01*
X87031360Y-77730900D01*
X86501125Y-77625430D01*
X84918875Y-77625430D01*
X84388640Y-77730900D01*
X83939129Y-78031254D01*
X83638775Y-78480765D01*
X83533305Y-79011000D01*
X72092041Y-79011000D01*
X72073607Y-78992534D01*
X71766821Y-78865145D01*
X71434637Y-78864855D01*
X71127628Y-78991708D01*
X70892534Y-79226393D01*
X70765145Y-79533179D01*
X70764855Y-79865363D01*
X70891708Y-80172372D01*
X71126393Y-80407466D01*
X71349409Y-80500070D01*
X71127628Y-80591708D01*
X70892534Y-80826393D01*
X70827906Y-80982034D01*
X70666821Y-80915145D01*
X70334637Y-80914855D01*
X70027628Y-81041708D01*
X69792534Y-81276393D01*
X69665145Y-81583179D01*
X69664855Y-81915363D01*
X47627000Y-81915363D01*
X47627000Y-79453000D01*
X49083305Y-79453000D01*
X49188775Y-79983235D01*
X49489129Y-80432746D01*
X49938640Y-80733100D01*
X50468875Y-80838570D01*
X52051125Y-80838570D01*
X52581360Y-80733100D01*
X53030871Y-80432746D01*
X53331225Y-79983235D01*
X53436695Y-79453000D01*
X54163305Y-79453000D01*
X54268775Y-79983235D01*
X54569129Y-80432746D01*
X55018640Y-80733100D01*
X55548875Y-80838570D01*
X57131125Y-80838570D01*
X57661360Y-80733100D01*
X58110871Y-80432746D01*
X58411225Y-79983235D01*
X58516695Y-79453000D01*
X58411225Y-78922765D01*
X58110871Y-78473254D01*
X57661360Y-78172900D01*
X57131125Y-78067430D01*
X55548875Y-78067430D01*
X55018640Y-78172900D01*
X54569129Y-78473254D01*
X54268775Y-78922765D01*
X54163305Y-79453000D01*
X53436695Y-79453000D01*
X53331225Y-78922765D01*
X53030871Y-78473254D01*
X52581360Y-78172900D01*
X52051125Y-78067430D01*
X50468875Y-78067430D01*
X49938640Y-78172900D01*
X49489129Y-78473254D01*
X49188775Y-78922765D01*
X49083305Y-79453000D01*
X47627000Y-79453000D01*
X47627000Y-78065363D01*
X65964855Y-78065363D01*
X66091708Y-78372372D01*
X66326393Y-78607466D01*
X66633179Y-78734855D01*
X66965363Y-78735145D01*
X67272372Y-78608292D01*
X67507466Y-78373607D01*
X67634855Y-78066821D01*
X67635145Y-77734637D01*
X67508292Y-77427628D01*
X67496049Y-77415363D01*
X69664855Y-77415363D01*
X69791708Y-77722372D01*
X70026393Y-77957466D01*
X70333179Y-78084855D01*
X70555627Y-78085049D01*
X70591708Y-78172372D01*
X70826393Y-78407466D01*
X71133179Y-78534855D01*
X71465363Y-78535145D01*
X71772372Y-78408292D01*
X72007466Y-78173607D01*
X72010889Y-78165363D01*
X74164855Y-78165363D01*
X74291708Y-78472372D01*
X74526393Y-78707466D01*
X74833179Y-78834855D01*
X75165363Y-78835145D01*
X75472372Y-78708292D01*
X75707466Y-78473607D01*
X75834855Y-78166821D01*
X75835145Y-77834637D01*
X75708292Y-77527628D01*
X75473607Y-77292534D01*
X75166821Y-77165145D01*
X74834637Y-77164855D01*
X74527628Y-77291708D01*
X74292534Y-77526393D01*
X74165145Y-77833179D01*
X74164855Y-78165363D01*
X72010889Y-78165363D01*
X72134855Y-77866821D01*
X72135145Y-77534637D01*
X72008292Y-77227628D01*
X71773607Y-76992534D01*
X71466821Y-76865145D01*
X71244373Y-76864951D01*
X71208292Y-76777628D01*
X70973607Y-76542534D01*
X70666821Y-76415145D01*
X70334637Y-76414855D01*
X70027628Y-76541708D01*
X69792534Y-76776393D01*
X69665145Y-77083179D01*
X69664855Y-77415363D01*
X67496049Y-77415363D01*
X67273607Y-77192534D01*
X66966821Y-77065145D01*
X66634637Y-77064855D01*
X66327628Y-77191708D01*
X66092534Y-77426393D01*
X65965145Y-77733179D01*
X65964855Y-78065363D01*
X47627000Y-78065363D01*
X47627000Y-74373000D01*
X49083305Y-74373000D01*
X49188775Y-74903235D01*
X49489129Y-75352746D01*
X49938640Y-75653100D01*
X50468875Y-75758570D01*
X52051125Y-75758570D01*
X52581360Y-75653100D01*
X53030871Y-75352746D01*
X53331225Y-74903235D01*
X53436695Y-74373000D01*
X54163305Y-74373000D01*
X54268775Y-74903235D01*
X54569129Y-75352746D01*
X55018640Y-75653100D01*
X55548875Y-75758570D01*
X57131125Y-75758570D01*
X57661360Y-75653100D01*
X58110871Y-75352746D01*
X58411225Y-74903235D01*
X58516695Y-74373000D01*
X58454038Y-74058000D01*
X83533305Y-74058000D01*
X83638775Y-74588235D01*
X83939129Y-75037746D01*
X84388640Y-75338100D01*
X84918875Y-75443570D01*
X86501125Y-75443570D01*
X87031360Y-75338100D01*
X87480871Y-75037746D01*
X87781225Y-74588235D01*
X87886695Y-74058000D01*
X88613305Y-74058000D01*
X88718775Y-74588235D01*
X89019129Y-75037746D01*
X89468640Y-75338100D01*
X89998875Y-75443570D01*
X91581125Y-75443570D01*
X92111360Y-75338100D01*
X92560871Y-75037746D01*
X92861225Y-74588235D01*
X92966695Y-74058000D01*
X92861225Y-73527765D01*
X92560871Y-73078254D01*
X92111360Y-72777900D01*
X91581125Y-72672430D01*
X89998875Y-72672430D01*
X89468640Y-72777900D01*
X89019129Y-73078254D01*
X88718775Y-73527765D01*
X88613305Y-74058000D01*
X87886695Y-74058000D01*
X87781225Y-73527765D01*
X87480871Y-73078254D01*
X87031360Y-72777900D01*
X86501125Y-72672430D01*
X84918875Y-72672430D01*
X84388640Y-72777900D01*
X83939129Y-73078254D01*
X83638775Y-73527765D01*
X83533305Y-74058000D01*
X58454038Y-74058000D01*
X58411225Y-73842765D01*
X58110871Y-73393254D01*
X57769809Y-73165363D01*
X64164855Y-73165363D01*
X64291708Y-73472372D01*
X64526393Y-73707466D01*
X64833179Y-73834855D01*
X65165363Y-73835145D01*
X65472372Y-73708292D01*
X65707466Y-73473607D01*
X65834855Y-73166821D01*
X65835145Y-72834637D01*
X65708292Y-72527628D01*
X65546310Y-72365363D01*
X66564855Y-72365363D01*
X66691708Y-72672372D01*
X66926393Y-72907466D01*
X67233179Y-73034855D01*
X67565363Y-73035145D01*
X67872372Y-72908292D01*
X68107466Y-72673607D01*
X68234855Y-72366821D01*
X68235030Y-72165363D01*
X73414855Y-72165363D01*
X73541708Y-72472372D01*
X73776393Y-72707466D01*
X74083179Y-72834855D01*
X74415363Y-72835145D01*
X74722372Y-72708292D01*
X74957466Y-72473607D01*
X75084855Y-72166821D01*
X75085145Y-71834637D01*
X74986000Y-71594687D01*
X75207466Y-71373607D01*
X75334855Y-71066821D01*
X75335145Y-70734637D01*
X75208292Y-70427628D01*
X74973607Y-70192534D01*
X74666821Y-70065145D01*
X74334637Y-70064855D01*
X74027628Y-70191708D01*
X73792534Y-70426393D01*
X73665145Y-70733179D01*
X73664855Y-71065363D01*
X73764000Y-71305313D01*
X73542534Y-71526393D01*
X73415145Y-71833179D01*
X73414855Y-72165363D01*
X68235030Y-72165363D01*
X68235145Y-72034637D01*
X68108292Y-71727628D01*
X67873607Y-71492534D01*
X67566821Y-71365145D01*
X67234637Y-71364855D01*
X66927628Y-71491708D01*
X66692534Y-71726393D01*
X66565145Y-72033179D01*
X66564855Y-72365363D01*
X65546310Y-72365363D01*
X65473607Y-72292534D01*
X65166821Y-72165145D01*
X64834637Y-72164855D01*
X64527628Y-72291708D01*
X64292534Y-72526393D01*
X64165145Y-72833179D01*
X64164855Y-73165363D01*
X57769809Y-73165363D01*
X57661360Y-73092900D01*
X57131125Y-72987430D01*
X55548875Y-72987430D01*
X55018640Y-73092900D01*
X54569129Y-73393254D01*
X54268775Y-73842765D01*
X54163305Y-74373000D01*
X53436695Y-74373000D01*
X53331225Y-73842765D01*
X53030871Y-73393254D01*
X52581360Y-73092900D01*
X52051125Y-72987430D01*
X50468875Y-72987430D01*
X49938640Y-73092900D01*
X49489129Y-73393254D01*
X49188775Y-73842765D01*
X49083305Y-74373000D01*
X47627000Y-74373000D01*
X47627000Y-69420000D01*
X49083305Y-69420000D01*
X49188775Y-69950235D01*
X49489129Y-70399746D01*
X49938640Y-70700100D01*
X50468875Y-70805570D01*
X52051125Y-70805570D01*
X52581360Y-70700100D01*
X53030871Y-70399746D01*
X53331225Y-69950235D01*
X53436695Y-69420000D01*
X54163305Y-69420000D01*
X54268775Y-69950235D01*
X54569129Y-70399746D01*
X55018640Y-70700100D01*
X55548875Y-70805570D01*
X57131125Y-70805570D01*
X57661360Y-70700100D01*
X58110871Y-70399746D01*
X58411225Y-69950235D01*
X58418161Y-69915363D01*
X66664855Y-69915363D01*
X66791708Y-70222372D01*
X67026393Y-70457466D01*
X67333179Y-70584855D01*
X67665363Y-70585145D01*
X67972372Y-70458292D01*
X68207466Y-70223607D01*
X68334855Y-69916821D01*
X68335145Y-69584637D01*
X68208292Y-69277628D01*
X67973607Y-69042534D01*
X67818193Y-68978000D01*
X83533305Y-68978000D01*
X83638775Y-69508235D01*
X83939129Y-69957746D01*
X84388640Y-70258100D01*
X84918875Y-70363570D01*
X86501125Y-70363570D01*
X87031360Y-70258100D01*
X87480871Y-69957746D01*
X87781225Y-69508235D01*
X87886695Y-68978000D01*
X88613305Y-68978000D01*
X88718775Y-69508235D01*
X89019129Y-69957746D01*
X89468640Y-70258100D01*
X89998875Y-70363570D01*
X91581125Y-70363570D01*
X92111360Y-70258100D01*
X92560871Y-69957746D01*
X92861225Y-69508235D01*
X92966695Y-68978000D01*
X92861225Y-68447765D01*
X92560871Y-67998254D01*
X92111360Y-67697900D01*
X91581125Y-67592430D01*
X89998875Y-67592430D01*
X89468640Y-67697900D01*
X89019129Y-67998254D01*
X88718775Y-68447765D01*
X88613305Y-68978000D01*
X87886695Y-68978000D01*
X87781225Y-68447765D01*
X87480871Y-67998254D01*
X87031360Y-67697900D01*
X86501125Y-67592430D01*
X84918875Y-67592430D01*
X84388640Y-67697900D01*
X83939129Y-67998254D01*
X83638775Y-68447765D01*
X83533305Y-68978000D01*
X67818193Y-68978000D01*
X67666821Y-68915145D01*
X67334637Y-68914855D01*
X67027628Y-69041708D01*
X66792534Y-69276393D01*
X66665145Y-69583179D01*
X66664855Y-69915363D01*
X58418161Y-69915363D01*
X58516695Y-69420000D01*
X58411225Y-68889765D01*
X58110871Y-68440254D01*
X57661360Y-68139900D01*
X57131125Y-68034430D01*
X55548875Y-68034430D01*
X55018640Y-68139900D01*
X54569129Y-68440254D01*
X54268775Y-68889765D01*
X54163305Y-69420000D01*
X53436695Y-69420000D01*
X53331225Y-68889765D01*
X53030871Y-68440254D01*
X52581360Y-68139900D01*
X52051125Y-68034430D01*
X50468875Y-68034430D01*
X49938640Y-68139900D01*
X49489129Y-68440254D01*
X49188775Y-68889765D01*
X49083305Y-69420000D01*
X47627000Y-69420000D01*
X47627000Y-61575000D01*
X48677560Y-61575000D01*
X48677560Y-63425000D01*
X48721838Y-63660317D01*
X48860910Y-63876441D01*
X49073110Y-64021431D01*
X49325000Y-64072440D01*
X51175000Y-64072440D01*
X51410317Y-64028162D01*
X51626441Y-63889090D01*
X51750771Y-63707126D01*
X51865177Y-63821732D01*
X52438336Y-64059728D01*
X53058942Y-64060270D01*
X53632514Y-63823275D01*
X54000256Y-63456174D01*
X54365177Y-63821732D01*
X54938336Y-64059728D01*
X55558942Y-64060270D01*
X56132514Y-63823275D01*
X56571732Y-63384823D01*
X56809728Y-62811664D01*
X56810270Y-62191058D01*
X56573275Y-61617486D01*
X56134823Y-61178268D01*
X55561664Y-60940272D01*
X54941058Y-60939730D01*
X54367486Y-61176725D01*
X53999744Y-61543826D01*
X53634823Y-61178268D01*
X53061664Y-60940272D01*
X52441058Y-60939730D01*
X51867486Y-61176725D01*
X51749251Y-61294754D01*
X51639090Y-61123559D01*
X51426890Y-60978569D01*
X51175000Y-60927560D01*
X49325000Y-60927560D01*
X49089683Y-60971838D01*
X48873559Y-61110910D01*
X48728569Y-61323110D01*
X48677560Y-61575000D01*
X47627000Y-61575000D01*
X47627000Y-60877000D01*
X93623000Y-60877000D01*
X93623000Y-117623000D01*
M02*
