G04 #@! TF.FileFunction,Soldermask,Bot*
%FSLAX46Y46*%
G04 Gerber Fmt 4.6, Leading zero omitted, Abs format (unit mm)*
G04 Created by KiCad (PCBNEW 4.0.4-stable) date Wednesday, 26 April 2017 'PMt' 10:40:54 PM*
%MOMM*%
%LPD*%
G01*
G04 APERTURE LIST*
%ADD10C,0.100000*%
%ADD11C,5.000000*%
%ADD12C,2.200000*%
%ADD13R,1.143000X0.508000*%
%ADD14R,1.600000X1.600000*%
%ADD15O,1.600000X1.600000*%
%ADD16R,1.850000X1.850000*%
%ADD17C,1.850000*%
%ADD18R,0.800000X0.750000*%
%ADD19O,2.999740X1.501140*%
%ADD20R,0.900000X0.500000*%
%ADD21C,2.900000*%
G04 APERTURE END LIST*
D10*
D11*
X98750000Y-116750000D03*
X43250000Y-116750000D03*
X43250000Y-62250000D03*
D12*
X45000000Y-104500000D03*
X45000000Y-99500000D03*
X45000000Y-94500000D03*
X45000000Y-89500000D03*
X45000000Y-84500000D03*
X45000000Y-79500000D03*
X45000000Y-74500000D03*
X45000000Y-69500000D03*
X97000000Y-104000000D03*
X97000000Y-99000000D03*
X97000000Y-94000000D03*
X97000000Y-89000000D03*
X97000000Y-84000000D03*
X97000000Y-79000000D03*
X97000000Y-74000000D03*
D13*
X78925000Y-95905000D03*
X78925000Y-94635000D03*
X78925000Y-93365000D03*
X78925000Y-92095000D03*
X72575000Y-92095000D03*
X72575000Y-93365000D03*
X72575000Y-94635000D03*
X72575000Y-95905000D03*
X78925000Y-88405000D03*
X78925000Y-87135000D03*
X78925000Y-85865000D03*
X78925000Y-84595000D03*
X72575000Y-84595000D03*
X72575000Y-85865000D03*
X72575000Y-87135000D03*
X72575000Y-88405000D03*
X79175000Y-80905000D03*
X79175000Y-79635000D03*
X79175000Y-78365000D03*
X79175000Y-77095000D03*
X72825000Y-77095000D03*
X72825000Y-78365000D03*
X72825000Y-79635000D03*
X72825000Y-80905000D03*
X79175000Y-73405000D03*
X79175000Y-72135000D03*
X79175000Y-70865000D03*
X79175000Y-69595000D03*
X72825000Y-69595000D03*
X72825000Y-70865000D03*
X72825000Y-72135000D03*
X72825000Y-73405000D03*
X62825000Y-69595000D03*
X62825000Y-70865000D03*
X62825000Y-72135000D03*
X62825000Y-73405000D03*
X69175000Y-73405000D03*
X69175000Y-72135000D03*
X69175000Y-70865000D03*
X69175000Y-69595000D03*
X62825000Y-77095000D03*
X62825000Y-78365000D03*
X62825000Y-79635000D03*
X62825000Y-80905000D03*
X69175000Y-80905000D03*
X69175000Y-79635000D03*
X69175000Y-78365000D03*
X69175000Y-77095000D03*
X62825000Y-84595000D03*
X62825000Y-85865000D03*
X62825000Y-87135000D03*
X62825000Y-88405000D03*
X69175000Y-88405000D03*
X69175000Y-87135000D03*
X69175000Y-85865000D03*
X69175000Y-84595000D03*
X62825000Y-92095000D03*
X62825000Y-93365000D03*
X62825000Y-94635000D03*
X62825000Y-95905000D03*
X69175000Y-95905000D03*
X69175000Y-94635000D03*
X69175000Y-93365000D03*
X69175000Y-92095000D03*
D14*
X73500000Y-99250000D03*
D15*
X68420000Y-106870000D03*
X70960000Y-99250000D03*
X70960000Y-106870000D03*
X68420000Y-99250000D03*
X73500000Y-106870000D03*
D16*
X50250000Y-110000000D03*
D17*
X52750000Y-110000000D03*
X55250000Y-110000000D03*
D18*
X80750000Y-92250000D03*
X82250000Y-92250000D03*
X80750000Y-84750000D03*
X82250000Y-84750000D03*
X81000000Y-79750000D03*
X82500000Y-79750000D03*
X81000000Y-72250000D03*
X82500000Y-72250000D03*
X60750000Y-70750000D03*
X59250000Y-70750000D03*
X61000000Y-78250000D03*
X59500000Y-78250000D03*
X60750000Y-88500000D03*
X59250000Y-88500000D03*
X60750000Y-96000000D03*
X59250000Y-96000000D03*
D19*
X90790000Y-104030000D03*
X85710000Y-104030000D03*
X90790000Y-99077000D03*
X85710000Y-99077000D03*
X90790000Y-93997000D03*
X85710000Y-93997000D03*
X90790000Y-89044000D03*
X85710000Y-89044000D03*
X90790000Y-83964000D03*
X85710000Y-83964000D03*
X90790000Y-79011000D03*
X85710000Y-79011000D03*
X90790000Y-74058000D03*
X85710000Y-74058000D03*
X90790000Y-68978000D03*
X85710000Y-68978000D03*
D20*
X73750000Y-102250000D03*
X73750000Y-103750000D03*
X71000000Y-102250000D03*
X71000000Y-103750000D03*
X68400000Y-102250000D03*
X68400000Y-103750000D03*
D16*
X50250000Y-115500000D03*
D17*
X52750000Y-115500000D03*
X55250000Y-115500000D03*
D16*
X50250000Y-62500000D03*
D17*
X52750000Y-62500000D03*
X55250000Y-62500000D03*
D21*
X75380000Y-113500000D03*
X80460000Y-113500000D03*
X85540000Y-113500000D03*
X90620000Y-113500000D03*
D19*
X51260000Y-69420000D03*
X56340000Y-69420000D03*
X51260000Y-74373000D03*
X56340000Y-74373000D03*
X51260000Y-79453000D03*
X56340000Y-79453000D03*
X51260000Y-84406000D03*
X56340000Y-84406000D03*
X51260000Y-89486000D03*
X56340000Y-89486000D03*
X51260000Y-94439000D03*
X56340000Y-94439000D03*
X51260000Y-99392000D03*
X56340000Y-99392000D03*
X51260000Y-104472000D03*
X56340000Y-104472000D03*
D12*
X97000000Y-69000000D03*
D11*
X98750000Y-62250000D03*
M02*
