G04 #@! TF.FileFunction,Legend,Bot*
%FSLAX46Y46*%
G04 Gerber Fmt 4.6, Leading zero omitted, Abs format (unit mm)*
G04 Created by KiCad (PCBNEW 4.0.4-stable) date Wednesday, 26 April 2017 'PMt' 10:40:54 PM*
%MOMM*%
%LPD*%
G01*
G04 APERTURE LIST*
%ADD10C,0.100000*%
%ADD11C,0.150000*%
%ADD12C,0.120000*%
G04 APERTURE END LIST*
D10*
D11*
X78036000Y-96540000D02*
X78036000Y-91460000D01*
X78036000Y-91460000D02*
X73464000Y-91460000D01*
X73464000Y-91460000D02*
X73464000Y-96540000D01*
X73464000Y-96540000D02*
X78036000Y-96540000D01*
X76512000Y-96540000D02*
X76512000Y-96032000D01*
X76512000Y-96032000D02*
X75242000Y-96032000D01*
X75242000Y-96032000D02*
X75242000Y-96540000D01*
X78036000Y-89040000D02*
X78036000Y-83960000D01*
X78036000Y-83960000D02*
X73464000Y-83960000D01*
X73464000Y-83960000D02*
X73464000Y-89040000D01*
X73464000Y-89040000D02*
X78036000Y-89040000D01*
X76512000Y-89040000D02*
X76512000Y-88532000D01*
X76512000Y-88532000D02*
X75242000Y-88532000D01*
X75242000Y-88532000D02*
X75242000Y-89040000D01*
X78286000Y-81540000D02*
X78286000Y-76460000D01*
X78286000Y-76460000D02*
X73714000Y-76460000D01*
X73714000Y-76460000D02*
X73714000Y-81540000D01*
X73714000Y-81540000D02*
X78286000Y-81540000D01*
X76762000Y-81540000D02*
X76762000Y-81032000D01*
X76762000Y-81032000D02*
X75492000Y-81032000D01*
X75492000Y-81032000D02*
X75492000Y-81540000D01*
X78286000Y-74040000D02*
X78286000Y-68960000D01*
X78286000Y-68960000D02*
X73714000Y-68960000D01*
X73714000Y-68960000D02*
X73714000Y-74040000D01*
X73714000Y-74040000D02*
X78286000Y-74040000D01*
X76762000Y-74040000D02*
X76762000Y-73532000D01*
X76762000Y-73532000D02*
X75492000Y-73532000D01*
X75492000Y-73532000D02*
X75492000Y-74040000D01*
X63714000Y-68960000D02*
X63714000Y-74040000D01*
X63714000Y-74040000D02*
X68286000Y-74040000D01*
X68286000Y-74040000D02*
X68286000Y-68960000D01*
X68286000Y-68960000D02*
X63714000Y-68960000D01*
X65238000Y-68960000D02*
X65238000Y-69468000D01*
X65238000Y-69468000D02*
X66508000Y-69468000D01*
X66508000Y-69468000D02*
X66508000Y-68960000D01*
X63714000Y-76460000D02*
X63714000Y-81540000D01*
X63714000Y-81540000D02*
X68286000Y-81540000D01*
X68286000Y-81540000D02*
X68286000Y-76460000D01*
X68286000Y-76460000D02*
X63714000Y-76460000D01*
X65238000Y-76460000D02*
X65238000Y-76968000D01*
X65238000Y-76968000D02*
X66508000Y-76968000D01*
X66508000Y-76968000D02*
X66508000Y-76460000D01*
X63714000Y-83960000D02*
X63714000Y-89040000D01*
X63714000Y-89040000D02*
X68286000Y-89040000D01*
X68286000Y-89040000D02*
X68286000Y-83960000D01*
X68286000Y-83960000D02*
X63714000Y-83960000D01*
X65238000Y-83960000D02*
X65238000Y-84468000D01*
X65238000Y-84468000D02*
X66508000Y-84468000D01*
X66508000Y-84468000D02*
X66508000Y-83960000D01*
X63714000Y-91460000D02*
X63714000Y-96540000D01*
X63714000Y-96540000D02*
X68286000Y-96540000D01*
X68286000Y-96540000D02*
X68286000Y-91460000D01*
X68286000Y-91460000D02*
X63714000Y-91460000D01*
X65238000Y-91460000D02*
X65238000Y-91968000D01*
X65238000Y-91968000D02*
X66508000Y-91968000D01*
X66508000Y-91968000D02*
X66508000Y-91460000D01*
D12*
X81150000Y-92850000D02*
X81850000Y-92850000D01*
X81850000Y-91650000D02*
X81150000Y-91650000D01*
X81150000Y-85350000D02*
X81850000Y-85350000D01*
X81850000Y-84150000D02*
X81150000Y-84150000D01*
X81400000Y-80350000D02*
X82100000Y-80350000D01*
X82100000Y-79150000D02*
X81400000Y-79150000D01*
X81400000Y-72850000D02*
X82100000Y-72850000D01*
X82100000Y-71650000D02*
X81400000Y-71650000D01*
X60350000Y-70150000D02*
X59650000Y-70150000D01*
X59650000Y-71350000D02*
X60350000Y-71350000D01*
X60600000Y-77650000D02*
X59900000Y-77650000D01*
X59900000Y-78850000D02*
X60600000Y-78850000D01*
X60350000Y-87900000D02*
X59650000Y-87900000D01*
X59650000Y-89100000D02*
X60350000Y-89100000D01*
X60350000Y-95400000D02*
X59650000Y-95400000D01*
X59650000Y-96600000D02*
X60350000Y-96600000D01*
X74430000Y-103500000D02*
X74430000Y-102500000D01*
X73070000Y-102500000D02*
X73070000Y-103500000D01*
X71680000Y-103500000D02*
X71680000Y-102500000D01*
X70320000Y-102500000D02*
X70320000Y-103500000D01*
X69080000Y-103500000D02*
X69080000Y-102500000D01*
X67720000Y-102500000D02*
X67720000Y-103500000D01*
D11*
X78011905Y-96952381D02*
X78011905Y-97761905D01*
X77964286Y-97857143D01*
X77916667Y-97904762D01*
X77821429Y-97952381D01*
X77630952Y-97952381D01*
X77535714Y-97904762D01*
X77488095Y-97857143D01*
X77440476Y-97761905D01*
X77440476Y-96952381D01*
X77011905Y-97047619D02*
X76964286Y-97000000D01*
X76869048Y-96952381D01*
X76630952Y-96952381D01*
X76535714Y-97000000D01*
X76488095Y-97047619D01*
X76440476Y-97142857D01*
X76440476Y-97238095D01*
X76488095Y-97380952D01*
X77059524Y-97952381D01*
X76440476Y-97952381D01*
X78011905Y-89452381D02*
X78011905Y-90261905D01*
X77964286Y-90357143D01*
X77916667Y-90404762D01*
X77821429Y-90452381D01*
X77630952Y-90452381D01*
X77535714Y-90404762D01*
X77488095Y-90357143D01*
X77440476Y-90261905D01*
X77440476Y-89452381D01*
X77059524Y-89452381D02*
X76440476Y-89452381D01*
X76773810Y-89833333D01*
X76630952Y-89833333D01*
X76535714Y-89880952D01*
X76488095Y-89928571D01*
X76440476Y-90023810D01*
X76440476Y-90261905D01*
X76488095Y-90357143D01*
X76535714Y-90404762D01*
X76630952Y-90452381D01*
X76916667Y-90452381D01*
X77011905Y-90404762D01*
X77059524Y-90357143D01*
X78261905Y-81952381D02*
X78261905Y-82761905D01*
X78214286Y-82857143D01*
X78166667Y-82904762D01*
X78071429Y-82952381D01*
X77880952Y-82952381D01*
X77785714Y-82904762D01*
X77738095Y-82857143D01*
X77690476Y-82761905D01*
X77690476Y-81952381D01*
X76785714Y-82285714D02*
X76785714Y-82952381D01*
X77023810Y-81904762D02*
X77261905Y-82619048D01*
X76642857Y-82619048D01*
X78261905Y-74452381D02*
X78261905Y-75261905D01*
X78214286Y-75357143D01*
X78166667Y-75404762D01*
X78071429Y-75452381D01*
X77880952Y-75452381D01*
X77785714Y-75404762D01*
X77738095Y-75357143D01*
X77690476Y-75261905D01*
X77690476Y-74452381D01*
X76738095Y-74452381D02*
X77214286Y-74452381D01*
X77261905Y-74928571D01*
X77214286Y-74880952D01*
X77119048Y-74833333D01*
X76880952Y-74833333D01*
X76785714Y-74880952D01*
X76738095Y-74928571D01*
X76690476Y-75023810D01*
X76690476Y-75261905D01*
X76738095Y-75357143D01*
X76785714Y-75404762D01*
X76880952Y-75452381D01*
X77119048Y-75452381D01*
X77214286Y-75404762D01*
X77261905Y-75357143D01*
X65261905Y-74452381D02*
X65261905Y-75261905D01*
X65214286Y-75357143D01*
X65166667Y-75404762D01*
X65071429Y-75452381D01*
X64880952Y-75452381D01*
X64785714Y-75404762D01*
X64738095Y-75357143D01*
X64690476Y-75261905D01*
X64690476Y-74452381D01*
X63785714Y-74452381D02*
X63976191Y-74452381D01*
X64071429Y-74500000D01*
X64119048Y-74547619D01*
X64214286Y-74690476D01*
X64261905Y-74880952D01*
X64261905Y-75261905D01*
X64214286Y-75357143D01*
X64166667Y-75404762D01*
X64071429Y-75452381D01*
X63880952Y-75452381D01*
X63785714Y-75404762D01*
X63738095Y-75357143D01*
X63690476Y-75261905D01*
X63690476Y-75023810D01*
X63738095Y-74928571D01*
X63785714Y-74880952D01*
X63880952Y-74833333D01*
X64071429Y-74833333D01*
X64166667Y-74880952D01*
X64214286Y-74928571D01*
X64261905Y-75023810D01*
X65261905Y-81952381D02*
X65261905Y-82761905D01*
X65214286Y-82857143D01*
X65166667Y-82904762D01*
X65071429Y-82952381D01*
X64880952Y-82952381D01*
X64785714Y-82904762D01*
X64738095Y-82857143D01*
X64690476Y-82761905D01*
X64690476Y-81952381D01*
X64309524Y-81952381D02*
X63642857Y-81952381D01*
X64071429Y-82952381D01*
X65261905Y-89452381D02*
X65261905Y-90261905D01*
X65214286Y-90357143D01*
X65166667Y-90404762D01*
X65071429Y-90452381D01*
X64880952Y-90452381D01*
X64785714Y-90404762D01*
X64738095Y-90357143D01*
X64690476Y-90261905D01*
X64690476Y-89452381D01*
X64071429Y-89880952D02*
X64166667Y-89833333D01*
X64214286Y-89785714D01*
X64261905Y-89690476D01*
X64261905Y-89642857D01*
X64214286Y-89547619D01*
X64166667Y-89500000D01*
X64071429Y-89452381D01*
X63880952Y-89452381D01*
X63785714Y-89500000D01*
X63738095Y-89547619D01*
X63690476Y-89642857D01*
X63690476Y-89690476D01*
X63738095Y-89785714D01*
X63785714Y-89833333D01*
X63880952Y-89880952D01*
X64071429Y-89880952D01*
X64166667Y-89928571D01*
X64214286Y-89976190D01*
X64261905Y-90071429D01*
X64261905Y-90261905D01*
X64214286Y-90357143D01*
X64166667Y-90404762D01*
X64071429Y-90452381D01*
X63880952Y-90452381D01*
X63785714Y-90404762D01*
X63738095Y-90357143D01*
X63690476Y-90261905D01*
X63690476Y-90071429D01*
X63738095Y-89976190D01*
X63785714Y-89928571D01*
X63880952Y-89880952D01*
X65261905Y-96952381D02*
X65261905Y-97761905D01*
X65214286Y-97857143D01*
X65166667Y-97904762D01*
X65071429Y-97952381D01*
X64880952Y-97952381D01*
X64785714Y-97904762D01*
X64738095Y-97857143D01*
X64690476Y-97761905D01*
X64690476Y-96952381D01*
X64166667Y-97952381D02*
X63976191Y-97952381D01*
X63880952Y-97904762D01*
X63833333Y-97857143D01*
X63738095Y-97714286D01*
X63690476Y-97523810D01*
X63690476Y-97142857D01*
X63738095Y-97047619D01*
X63785714Y-97000000D01*
X63880952Y-96952381D01*
X64071429Y-96952381D01*
X64166667Y-97000000D01*
X64214286Y-97047619D01*
X64261905Y-97142857D01*
X64261905Y-97380952D01*
X64214286Y-97476190D01*
X64166667Y-97523810D01*
X64071429Y-97571429D01*
X63880952Y-97571429D01*
X63785714Y-97523810D01*
X63738095Y-97476190D01*
X63690476Y-97380952D01*
X81666666Y-94107143D02*
X81714285Y-94154762D01*
X81857142Y-94202381D01*
X81952380Y-94202381D01*
X82095238Y-94154762D01*
X82190476Y-94059524D01*
X82238095Y-93964286D01*
X82285714Y-93773810D01*
X82285714Y-93630952D01*
X82238095Y-93440476D01*
X82190476Y-93345238D01*
X82095238Y-93250000D01*
X81952380Y-93202381D01*
X81857142Y-93202381D01*
X81714285Y-93250000D01*
X81666666Y-93297619D01*
X80714285Y-94202381D02*
X81285714Y-94202381D01*
X81000000Y-94202381D02*
X81000000Y-93202381D01*
X81095238Y-93345238D01*
X81190476Y-93440476D01*
X81285714Y-93488095D01*
X81666666Y-86607143D02*
X81714285Y-86654762D01*
X81857142Y-86702381D01*
X81952380Y-86702381D01*
X82095238Y-86654762D01*
X82190476Y-86559524D01*
X82238095Y-86464286D01*
X82285714Y-86273810D01*
X82285714Y-86130952D01*
X82238095Y-85940476D01*
X82190476Y-85845238D01*
X82095238Y-85750000D01*
X81952380Y-85702381D01*
X81857142Y-85702381D01*
X81714285Y-85750000D01*
X81666666Y-85797619D01*
X81285714Y-85797619D02*
X81238095Y-85750000D01*
X81142857Y-85702381D01*
X80904761Y-85702381D01*
X80809523Y-85750000D01*
X80761904Y-85797619D01*
X80714285Y-85892857D01*
X80714285Y-85988095D01*
X80761904Y-86130952D01*
X81333333Y-86702381D01*
X80714285Y-86702381D01*
X81916666Y-81607143D02*
X81964285Y-81654762D01*
X82107142Y-81702381D01*
X82202380Y-81702381D01*
X82345238Y-81654762D01*
X82440476Y-81559524D01*
X82488095Y-81464286D01*
X82535714Y-81273810D01*
X82535714Y-81130952D01*
X82488095Y-80940476D01*
X82440476Y-80845238D01*
X82345238Y-80750000D01*
X82202380Y-80702381D01*
X82107142Y-80702381D01*
X81964285Y-80750000D01*
X81916666Y-80797619D01*
X81583333Y-80702381D02*
X80964285Y-80702381D01*
X81297619Y-81083333D01*
X81154761Y-81083333D01*
X81059523Y-81130952D01*
X81011904Y-81178571D01*
X80964285Y-81273810D01*
X80964285Y-81511905D01*
X81011904Y-81607143D01*
X81059523Y-81654762D01*
X81154761Y-81702381D01*
X81440476Y-81702381D01*
X81535714Y-81654762D01*
X81583333Y-81607143D01*
X81916666Y-74107143D02*
X81964285Y-74154762D01*
X82107142Y-74202381D01*
X82202380Y-74202381D01*
X82345238Y-74154762D01*
X82440476Y-74059524D01*
X82488095Y-73964286D01*
X82535714Y-73773810D01*
X82535714Y-73630952D01*
X82488095Y-73440476D01*
X82440476Y-73345238D01*
X82345238Y-73250000D01*
X82202380Y-73202381D01*
X82107142Y-73202381D01*
X81964285Y-73250000D01*
X81916666Y-73297619D01*
X81059523Y-73535714D02*
X81059523Y-74202381D01*
X81297619Y-73154762D02*
X81535714Y-73869048D01*
X80916666Y-73869048D01*
X60166666Y-69607143D02*
X60214285Y-69654762D01*
X60357142Y-69702381D01*
X60452380Y-69702381D01*
X60595238Y-69654762D01*
X60690476Y-69559524D01*
X60738095Y-69464286D01*
X60785714Y-69273810D01*
X60785714Y-69130952D01*
X60738095Y-68940476D01*
X60690476Y-68845238D01*
X60595238Y-68750000D01*
X60452380Y-68702381D01*
X60357142Y-68702381D01*
X60214285Y-68750000D01*
X60166666Y-68797619D01*
X59261904Y-68702381D02*
X59738095Y-68702381D01*
X59785714Y-69178571D01*
X59738095Y-69130952D01*
X59642857Y-69083333D01*
X59404761Y-69083333D01*
X59309523Y-69130952D01*
X59261904Y-69178571D01*
X59214285Y-69273810D01*
X59214285Y-69511905D01*
X59261904Y-69607143D01*
X59309523Y-69654762D01*
X59404761Y-69702381D01*
X59642857Y-69702381D01*
X59738095Y-69654762D01*
X59785714Y-69607143D01*
X60416666Y-77107143D02*
X60464285Y-77154762D01*
X60607142Y-77202381D01*
X60702380Y-77202381D01*
X60845238Y-77154762D01*
X60940476Y-77059524D01*
X60988095Y-76964286D01*
X61035714Y-76773810D01*
X61035714Y-76630952D01*
X60988095Y-76440476D01*
X60940476Y-76345238D01*
X60845238Y-76250000D01*
X60702380Y-76202381D01*
X60607142Y-76202381D01*
X60464285Y-76250000D01*
X60416666Y-76297619D01*
X59559523Y-76202381D02*
X59750000Y-76202381D01*
X59845238Y-76250000D01*
X59892857Y-76297619D01*
X59988095Y-76440476D01*
X60035714Y-76630952D01*
X60035714Y-77011905D01*
X59988095Y-77107143D01*
X59940476Y-77154762D01*
X59845238Y-77202381D01*
X59654761Y-77202381D01*
X59559523Y-77154762D01*
X59511904Y-77107143D01*
X59464285Y-77011905D01*
X59464285Y-76773810D01*
X59511904Y-76678571D01*
X59559523Y-76630952D01*
X59654761Y-76583333D01*
X59845238Y-76583333D01*
X59940476Y-76630952D01*
X59988095Y-76678571D01*
X60035714Y-76773810D01*
X60166666Y-87357143D02*
X60214285Y-87404762D01*
X60357142Y-87452381D01*
X60452380Y-87452381D01*
X60595238Y-87404762D01*
X60690476Y-87309524D01*
X60738095Y-87214286D01*
X60785714Y-87023810D01*
X60785714Y-86880952D01*
X60738095Y-86690476D01*
X60690476Y-86595238D01*
X60595238Y-86500000D01*
X60452380Y-86452381D01*
X60357142Y-86452381D01*
X60214285Y-86500000D01*
X60166666Y-86547619D01*
X59833333Y-86452381D02*
X59166666Y-86452381D01*
X59595238Y-87452381D01*
X60166666Y-94857143D02*
X60214285Y-94904762D01*
X60357142Y-94952381D01*
X60452380Y-94952381D01*
X60595238Y-94904762D01*
X60690476Y-94809524D01*
X60738095Y-94714286D01*
X60785714Y-94523810D01*
X60785714Y-94380952D01*
X60738095Y-94190476D01*
X60690476Y-94095238D01*
X60595238Y-94000000D01*
X60452380Y-93952381D01*
X60357142Y-93952381D01*
X60214285Y-94000000D01*
X60166666Y-94047619D01*
X59595238Y-94380952D02*
X59690476Y-94333333D01*
X59738095Y-94285714D01*
X59785714Y-94190476D01*
X59785714Y-94142857D01*
X59738095Y-94047619D01*
X59690476Y-94000000D01*
X59595238Y-93952381D01*
X59404761Y-93952381D01*
X59309523Y-94000000D01*
X59261904Y-94047619D01*
X59214285Y-94142857D01*
X59214285Y-94190476D01*
X59261904Y-94285714D01*
X59309523Y-94333333D01*
X59404761Y-94380952D01*
X59595238Y-94380952D01*
X59690476Y-94428571D01*
X59738095Y-94476190D01*
X59785714Y-94571429D01*
X59785714Y-94761905D01*
X59738095Y-94857143D01*
X59690476Y-94904762D01*
X59595238Y-94952381D01*
X59404761Y-94952381D01*
X59309523Y-94904762D01*
X59261904Y-94857143D01*
X59214285Y-94761905D01*
X59214285Y-94571429D01*
X59261904Y-94476190D01*
X59309523Y-94428571D01*
X59404761Y-94380952D01*
X73052381Y-102833334D02*
X72576190Y-102500000D01*
X73052381Y-102261905D02*
X72052381Y-102261905D01*
X72052381Y-102642858D01*
X72100000Y-102738096D01*
X72147619Y-102785715D01*
X72242857Y-102833334D01*
X72385714Y-102833334D01*
X72480952Y-102785715D01*
X72528571Y-102738096D01*
X72576190Y-102642858D01*
X72576190Y-102261905D01*
X73052381Y-103785715D02*
X73052381Y-103214286D01*
X73052381Y-103500000D02*
X72052381Y-103500000D01*
X72195238Y-103404762D01*
X72290476Y-103309524D01*
X72338095Y-103214286D01*
X70252381Y-102833334D02*
X69776190Y-102500000D01*
X70252381Y-102261905D02*
X69252381Y-102261905D01*
X69252381Y-102642858D01*
X69300000Y-102738096D01*
X69347619Y-102785715D01*
X69442857Y-102833334D01*
X69585714Y-102833334D01*
X69680952Y-102785715D01*
X69728571Y-102738096D01*
X69776190Y-102642858D01*
X69776190Y-102261905D01*
X69347619Y-103214286D02*
X69300000Y-103261905D01*
X69252381Y-103357143D01*
X69252381Y-103595239D01*
X69300000Y-103690477D01*
X69347619Y-103738096D01*
X69442857Y-103785715D01*
X69538095Y-103785715D01*
X69680952Y-103738096D01*
X70252381Y-103166667D01*
X70252381Y-103785715D01*
X67652381Y-102833334D02*
X67176190Y-102500000D01*
X67652381Y-102261905D02*
X66652381Y-102261905D01*
X66652381Y-102642858D01*
X66700000Y-102738096D01*
X66747619Y-102785715D01*
X66842857Y-102833334D01*
X66985714Y-102833334D01*
X67080952Y-102785715D01*
X67128571Y-102738096D01*
X67176190Y-102642858D01*
X67176190Y-102261905D01*
X66652381Y-103166667D02*
X66652381Y-103785715D01*
X67033333Y-103452381D01*
X67033333Y-103595239D01*
X67080952Y-103690477D01*
X67128571Y-103738096D01*
X67223810Y-103785715D01*
X67461905Y-103785715D01*
X67557143Y-103738096D01*
X67604762Y-103690477D01*
X67652381Y-103595239D01*
X67652381Y-103309524D01*
X67604762Y-103214286D01*
X67557143Y-103166667D01*
M02*
