G04 #@! TF.FileFunction,Legend,Top*
%FSLAX46Y46*%
G04 Gerber Fmt 4.6, Leading zero omitted, Abs format (unit mm)*
G04 Created by KiCad (PCBNEW 4.0.4-stable) date Wednesday, 26 April 2017 'PMt' 10:40:54 PM*
%MOMM*%
%LPD*%
G01*
G04 APERTURE LIST*
%ADD10C,0.100000*%
%ADD11C,0.200000*%
%ADD12C,0.300000*%
%ADD13C,0.400000*%
%ADD14C,0.150000*%
%ADD15C,0.120000*%
%ADD16C,0.304800*%
G04 APERTURE END LIST*
D10*
D11*
X66397619Y-64411905D02*
X66130952Y-64030952D01*
X65940476Y-64411905D02*
X65940476Y-63611905D01*
X66245238Y-63611905D01*
X66321429Y-63650000D01*
X66359524Y-63688095D01*
X66397619Y-63764286D01*
X66397619Y-63878571D01*
X66359524Y-63954762D01*
X66321429Y-63992857D01*
X66245238Y-64030952D01*
X65940476Y-64030952D01*
X67045238Y-64373810D02*
X66969048Y-64411905D01*
X66816667Y-64411905D01*
X66740476Y-64373810D01*
X66702381Y-64297619D01*
X66702381Y-63992857D01*
X66740476Y-63916667D01*
X66816667Y-63878571D01*
X66969048Y-63878571D01*
X67045238Y-63916667D01*
X67083333Y-63992857D01*
X67083333Y-64069048D01*
X66702381Y-64145238D01*
X67350000Y-63878571D02*
X67540476Y-64411905D01*
X67730952Y-63878571D01*
X68035714Y-64411905D02*
X68035714Y-63878571D01*
X68035714Y-63611905D02*
X67997619Y-63650000D01*
X68035714Y-63688095D01*
X68073809Y-63650000D01*
X68035714Y-63611905D01*
X68035714Y-63688095D01*
X68378571Y-64373810D02*
X68454761Y-64411905D01*
X68607142Y-64411905D01*
X68683333Y-64373810D01*
X68721428Y-64297619D01*
X68721428Y-64259524D01*
X68683333Y-64183333D01*
X68607142Y-64145238D01*
X68492857Y-64145238D01*
X68416666Y-64107143D01*
X68378571Y-64030952D01*
X68378571Y-63992857D01*
X68416666Y-63916667D01*
X68492857Y-63878571D01*
X68607142Y-63878571D01*
X68683333Y-63916667D01*
X69064285Y-64411905D02*
X69064285Y-63878571D01*
X69064285Y-63611905D02*
X69026190Y-63650000D01*
X69064285Y-63688095D01*
X69102380Y-63650000D01*
X69064285Y-63611905D01*
X69064285Y-63688095D01*
X69559523Y-64411905D02*
X69483332Y-64373810D01*
X69445237Y-64335714D01*
X69407142Y-64259524D01*
X69407142Y-64030952D01*
X69445237Y-63954762D01*
X69483332Y-63916667D01*
X69559523Y-63878571D01*
X69673809Y-63878571D01*
X69749999Y-63916667D01*
X69788094Y-63954762D01*
X69826190Y-64030952D01*
X69826190Y-64259524D01*
X69788094Y-64335714D01*
X69749999Y-64373810D01*
X69673809Y-64411905D01*
X69559523Y-64411905D01*
X70169047Y-63878571D02*
X70169047Y-64411905D01*
X70169047Y-63954762D02*
X70207142Y-63916667D01*
X70283333Y-63878571D01*
X70397619Y-63878571D01*
X70473809Y-63916667D01*
X70511904Y-63992857D01*
X70511904Y-64411905D01*
X70892857Y-64335714D02*
X70930952Y-64373810D01*
X70892857Y-64411905D01*
X70854762Y-64373810D01*
X70892857Y-64335714D01*
X70892857Y-64411905D01*
X70892857Y-63916667D02*
X70930952Y-63954762D01*
X70892857Y-63992857D01*
X70854762Y-63954762D01*
X70892857Y-63916667D01*
X70892857Y-63992857D01*
X72302381Y-64411905D02*
X71845238Y-64411905D01*
X72073809Y-64411905D02*
X72073809Y-63611905D01*
X71997619Y-63726190D01*
X71921428Y-63802381D01*
X71845238Y-63840476D01*
X66321429Y-65811905D02*
X65940476Y-65811905D01*
X65940476Y-65011905D01*
X66588095Y-65811905D02*
X66588095Y-65278571D01*
X66588095Y-65011905D02*
X66550000Y-65050000D01*
X66588095Y-65088095D01*
X66626190Y-65050000D01*
X66588095Y-65011905D01*
X66588095Y-65088095D01*
X67311904Y-65773810D02*
X67235714Y-65811905D01*
X67083333Y-65811905D01*
X67007142Y-65773810D01*
X66969047Y-65735714D01*
X66930952Y-65659524D01*
X66930952Y-65430952D01*
X66969047Y-65354762D01*
X67007142Y-65316667D01*
X67083333Y-65278571D01*
X67235714Y-65278571D01*
X67311904Y-65316667D01*
X67959523Y-65773810D02*
X67883333Y-65811905D01*
X67730952Y-65811905D01*
X67654761Y-65773810D01*
X67616666Y-65697619D01*
X67616666Y-65392857D01*
X67654761Y-65316667D01*
X67730952Y-65278571D01*
X67883333Y-65278571D01*
X67959523Y-65316667D01*
X67997618Y-65392857D01*
X67997618Y-65469048D01*
X67616666Y-65545238D01*
X68340475Y-65278571D02*
X68340475Y-65811905D01*
X68340475Y-65354762D02*
X68378570Y-65316667D01*
X68454761Y-65278571D01*
X68569047Y-65278571D01*
X68645237Y-65316667D01*
X68683332Y-65392857D01*
X68683332Y-65811905D01*
X69026190Y-65773810D02*
X69102380Y-65811905D01*
X69254761Y-65811905D01*
X69330952Y-65773810D01*
X69369047Y-65697619D01*
X69369047Y-65659524D01*
X69330952Y-65583333D01*
X69254761Y-65545238D01*
X69140476Y-65545238D01*
X69064285Y-65507143D01*
X69026190Y-65430952D01*
X69026190Y-65392857D01*
X69064285Y-65316667D01*
X69140476Y-65278571D01*
X69254761Y-65278571D01*
X69330952Y-65316667D01*
X70016666Y-65773810D02*
X69940476Y-65811905D01*
X69788095Y-65811905D01*
X69711904Y-65773810D01*
X69673809Y-65697619D01*
X69673809Y-65392857D01*
X69711904Y-65316667D01*
X69788095Y-65278571D01*
X69940476Y-65278571D01*
X70016666Y-65316667D01*
X70054761Y-65392857D01*
X70054761Y-65469048D01*
X69673809Y-65545238D01*
X70397618Y-65735714D02*
X70435713Y-65773810D01*
X70397618Y-65811905D01*
X70359523Y-65773810D01*
X70397618Y-65735714D01*
X70397618Y-65811905D01*
X70397618Y-65316667D02*
X70435713Y-65354762D01*
X70397618Y-65392857D01*
X70359523Y-65354762D01*
X70397618Y-65316667D01*
X70397618Y-65392857D01*
X71845237Y-65735714D02*
X71807142Y-65773810D01*
X71692856Y-65811905D01*
X71616666Y-65811905D01*
X71502380Y-65773810D01*
X71426189Y-65697619D01*
X71388094Y-65621429D01*
X71349999Y-65469048D01*
X71349999Y-65354762D01*
X71388094Y-65202381D01*
X71426189Y-65126190D01*
X71502380Y-65050000D01*
X71616666Y-65011905D01*
X71692856Y-65011905D01*
X71807142Y-65050000D01*
X71845237Y-65088095D01*
X72645237Y-65735714D02*
X72607142Y-65773810D01*
X72492856Y-65811905D01*
X72416666Y-65811905D01*
X72302380Y-65773810D01*
X72226189Y-65697619D01*
X72188094Y-65621429D01*
X72149999Y-65469048D01*
X72149999Y-65354762D01*
X72188094Y-65202381D01*
X72226189Y-65126190D01*
X72302380Y-65050000D01*
X72416666Y-65011905D01*
X72492856Y-65011905D01*
X72607142Y-65050000D01*
X72645237Y-65088095D01*
X73864285Y-65392857D02*
X73978571Y-65430952D01*
X74016666Y-65469048D01*
X74054761Y-65545238D01*
X74054761Y-65659524D01*
X74016666Y-65735714D01*
X73978571Y-65773810D01*
X73902380Y-65811905D01*
X73597618Y-65811905D01*
X73597618Y-65011905D01*
X73864285Y-65011905D01*
X73940475Y-65050000D01*
X73978571Y-65088095D01*
X74016666Y-65164286D01*
X74016666Y-65240476D01*
X73978571Y-65316667D01*
X73940475Y-65354762D01*
X73864285Y-65392857D01*
X73597618Y-65392857D01*
X74549999Y-65430952D02*
X74549999Y-65811905D01*
X74283332Y-65011905D02*
X74549999Y-65430952D01*
X74816666Y-65011905D01*
X75083332Y-65507143D02*
X75692856Y-65507143D01*
X76035713Y-65773810D02*
X76149999Y-65811905D01*
X76340475Y-65811905D01*
X76416665Y-65773810D01*
X76454761Y-65735714D01*
X76492856Y-65659524D01*
X76492856Y-65583333D01*
X76454761Y-65507143D01*
X76416665Y-65469048D01*
X76340475Y-65430952D01*
X76188094Y-65392857D01*
X76111903Y-65354762D01*
X76073808Y-65316667D01*
X76035713Y-65240476D01*
X76035713Y-65164286D01*
X76073808Y-65088095D01*
X76111903Y-65050000D01*
X76188094Y-65011905D01*
X76378570Y-65011905D01*
X76492856Y-65050000D01*
X76797618Y-65583333D02*
X77178570Y-65583333D01*
X76721427Y-65811905D02*
X76988094Y-65011905D01*
X77254761Y-65811905D01*
X78054761Y-65011905D02*
X78549999Y-65011905D01*
X78283332Y-65316667D01*
X78397618Y-65316667D01*
X78473808Y-65354762D01*
X78511904Y-65392857D01*
X78549999Y-65469048D01*
X78549999Y-65659524D01*
X78511904Y-65735714D01*
X78473808Y-65773810D01*
X78397618Y-65811905D01*
X78169046Y-65811905D01*
X78092856Y-65773810D01*
X78054761Y-65735714D01*
X78892856Y-65735714D02*
X78930951Y-65773810D01*
X78892856Y-65811905D01*
X78854761Y-65773810D01*
X78892856Y-65735714D01*
X78892856Y-65811905D01*
X79426189Y-65011905D02*
X79502380Y-65011905D01*
X79578570Y-65050000D01*
X79616665Y-65088095D01*
X79654761Y-65164286D01*
X79692856Y-65316667D01*
X79692856Y-65507143D01*
X79654761Y-65659524D01*
X79616665Y-65735714D01*
X79578570Y-65773810D01*
X79502380Y-65811905D01*
X79426189Y-65811905D01*
X79349999Y-65773810D01*
X79311903Y-65735714D01*
X79273808Y-65659524D01*
X79235713Y-65507143D01*
X79235713Y-65316667D01*
X79273808Y-65164286D01*
X79311903Y-65088095D01*
X79349999Y-65050000D01*
X79426189Y-65011905D01*
D12*
X41428572Y-99557143D02*
X42571429Y-99557143D01*
X41857144Y-101821429D02*
X41714286Y-101750000D01*
X41642858Y-101678571D01*
X41571429Y-101535714D01*
X41571429Y-101464286D01*
X41642858Y-101321429D01*
X41714286Y-101250000D01*
X41857144Y-101178571D01*
X42142858Y-101178571D01*
X42285715Y-101250000D01*
X42357144Y-101321429D01*
X42428572Y-101464286D01*
X42428572Y-101535714D01*
X42357144Y-101678571D01*
X42285715Y-101750000D01*
X42142858Y-101821429D01*
X41857144Y-101821429D01*
X41714286Y-101892857D01*
X41642858Y-101964286D01*
X41571429Y-102107143D01*
X41571429Y-102392857D01*
X41642858Y-102535714D01*
X41714286Y-102607143D01*
X41857144Y-102678571D01*
X42142858Y-102678571D01*
X42285715Y-102607143D01*
X42357144Y-102535714D01*
X42428572Y-102392857D01*
X42428572Y-102107143D01*
X42357144Y-101964286D01*
X42285715Y-101892857D01*
X42142858Y-101821429D01*
X41428572Y-104657143D02*
X42571429Y-104657143D01*
X42000000Y-105228571D02*
X42000000Y-104085714D01*
X41428572Y-89557143D02*
X42571429Y-89557143D01*
X41500001Y-91178571D02*
X42500001Y-91178571D01*
X41857144Y-92678571D01*
X41428572Y-94657143D02*
X42571429Y-94657143D01*
X42000000Y-95228571D02*
X42000000Y-94085714D01*
X41428572Y-80057143D02*
X42571429Y-80057143D01*
X42285715Y-81678571D02*
X42000001Y-81678571D01*
X41857144Y-81750000D01*
X41785715Y-81821429D01*
X41642858Y-82035714D01*
X41571429Y-82321429D01*
X41571429Y-82892857D01*
X41642858Y-83035714D01*
X41714286Y-83107143D01*
X41857144Y-83178571D01*
X42142858Y-83178571D01*
X42285715Y-83107143D01*
X42357144Y-83035714D01*
X42428572Y-82892857D01*
X42428572Y-82535714D01*
X42357144Y-82392857D01*
X42285715Y-82321429D01*
X42142858Y-82250000D01*
X41857144Y-82250000D01*
X41714286Y-82321429D01*
X41642858Y-82392857D01*
X41571429Y-82535714D01*
X41428572Y-85157143D02*
X42571429Y-85157143D01*
X42000000Y-85728571D02*
X42000000Y-84585714D01*
X41428572Y-69557143D02*
X42571429Y-69557143D01*
X42357144Y-71178571D02*
X41642858Y-71178571D01*
X41571429Y-71892857D01*
X41642858Y-71821429D01*
X41785715Y-71750000D01*
X42142858Y-71750000D01*
X42285715Y-71821429D01*
X42357144Y-71892857D01*
X42428572Y-72035714D01*
X42428572Y-72392857D01*
X42357144Y-72535714D01*
X42285715Y-72607143D01*
X42142858Y-72678571D01*
X41785715Y-72678571D01*
X41642858Y-72607143D01*
X41571429Y-72535714D01*
X41428572Y-74657143D02*
X42571429Y-74657143D01*
X42000000Y-75228571D02*
X42000000Y-74085714D01*
X99428572Y-68557143D02*
X100571429Y-68557143D01*
X100000000Y-69128571D02*
X100000000Y-67985714D01*
X100285715Y-70678571D02*
X100285715Y-71678571D01*
X99928572Y-70107143D02*
X99571429Y-71178571D01*
X100500001Y-71178571D01*
X99428572Y-73657143D02*
X100571429Y-73657143D01*
X99428572Y-78557143D02*
X100571429Y-78557143D01*
X100000000Y-79128571D02*
X100000000Y-77985714D01*
X99500001Y-80178571D02*
X100428572Y-80178571D01*
X99928572Y-80750000D01*
X100142858Y-80750000D01*
X100285715Y-80821429D01*
X100357144Y-80892857D01*
X100428572Y-81035714D01*
X100428572Y-81392857D01*
X100357144Y-81535714D01*
X100285715Y-81607143D01*
X100142858Y-81678571D01*
X99714286Y-81678571D01*
X99571429Y-81607143D01*
X99500001Y-81535714D01*
X99428572Y-83657143D02*
X100571429Y-83657143D01*
X99428572Y-88557143D02*
X100571429Y-88557143D01*
X100000000Y-89128571D02*
X100000000Y-87985714D01*
X99571429Y-90321429D02*
X99642858Y-90250000D01*
X99785715Y-90178571D01*
X100142858Y-90178571D01*
X100285715Y-90250000D01*
X100357144Y-90321429D01*
X100428572Y-90464286D01*
X100428572Y-90607143D01*
X100357144Y-90821429D01*
X99500001Y-91678571D01*
X100428572Y-91678571D01*
X99428572Y-93657143D02*
X100571429Y-93657143D01*
X99428572Y-98557143D02*
X100571429Y-98557143D01*
X100000000Y-99128571D02*
X100000000Y-97985714D01*
X100428572Y-101678571D02*
X99571429Y-101678571D01*
X100000001Y-101678571D02*
X100000001Y-100178571D01*
X99857144Y-100392857D01*
X99714286Y-100535714D01*
X99571429Y-100607143D01*
X99428572Y-103657143D02*
X100571429Y-103657143D01*
D13*
X66083333Y-62059524D02*
X66273810Y-62154762D01*
X66654762Y-62154762D01*
X66845238Y-62059524D01*
X66940476Y-61869048D01*
X66940476Y-61773810D01*
X66845238Y-61583333D01*
X66654762Y-61488095D01*
X66369048Y-61488095D01*
X66178571Y-61392857D01*
X66083333Y-61202381D01*
X66083333Y-61107143D01*
X66178571Y-60916667D01*
X66369048Y-60821429D01*
X66654762Y-60821429D01*
X66845238Y-60916667D01*
X67607143Y-60821429D02*
X67988096Y-62154762D01*
X68369048Y-61202381D01*
X68750000Y-62154762D01*
X69130953Y-60821429D01*
X69892857Y-62154762D02*
X69892857Y-60821429D01*
X69892857Y-60154762D02*
X69797619Y-60250000D01*
X69892857Y-60345238D01*
X69988096Y-60250000D01*
X69892857Y-60154762D01*
X69892857Y-60345238D01*
X70559524Y-60821429D02*
X71321429Y-60821429D01*
X70845238Y-60154762D02*
X70845238Y-61869048D01*
X70940477Y-62059524D01*
X71130953Y-62154762D01*
X71321429Y-62154762D01*
X72845238Y-62059524D02*
X72654762Y-62154762D01*
X72273810Y-62154762D01*
X72083334Y-62059524D01*
X71988095Y-61964286D01*
X71892857Y-61773810D01*
X71892857Y-61202381D01*
X71988095Y-61011905D01*
X72083334Y-60916667D01*
X72273810Y-60821429D01*
X72654762Y-60821429D01*
X72845238Y-60916667D01*
X73702381Y-62154762D02*
X73702381Y-60154762D01*
X74559524Y-62154762D02*
X74559524Y-61107143D01*
X74464286Y-60916667D01*
X74273810Y-60821429D01*
X73988096Y-60821429D01*
X73797620Y-60916667D01*
X73702381Y-61011905D01*
X76273810Y-62059524D02*
X76083334Y-62154762D01*
X75702382Y-62154762D01*
X75511905Y-62059524D01*
X75416667Y-61869048D01*
X75416667Y-61107143D01*
X75511905Y-60916667D01*
X75702382Y-60821429D01*
X76083334Y-60821429D01*
X76273810Y-60916667D01*
X76369048Y-61107143D01*
X76369048Y-61297619D01*
X75416667Y-61488095D01*
X77226191Y-62154762D02*
X77226191Y-60821429D01*
X77226191Y-61202381D02*
X77321430Y-61011905D01*
X77416668Y-60916667D01*
X77607144Y-60821429D01*
X77797620Y-60821429D01*
X78750001Y-62154762D02*
X78559525Y-62059524D01*
X78464286Y-61964286D01*
X78369048Y-61773810D01*
X78369048Y-61202381D01*
X78464286Y-61011905D01*
X78559525Y-60916667D01*
X78750001Y-60821429D01*
X79035715Y-60821429D01*
X79226191Y-60916667D01*
X79321429Y-61011905D01*
X79416667Y-61202381D01*
X79416667Y-61773810D01*
X79321429Y-61964286D01*
X79226191Y-62059524D01*
X79035715Y-62154762D01*
X78750001Y-62154762D01*
D14*
X67875000Y-78675000D02*
X67875000Y-79250000D01*
X73625000Y-78675000D02*
X73625000Y-79325000D01*
X73625000Y-89325000D02*
X73625000Y-88675000D01*
X67875000Y-89325000D02*
X67875000Y-88675000D01*
X67875000Y-78675000D02*
X73625000Y-78675000D01*
X67875000Y-89325000D02*
X73625000Y-89325000D01*
X67875000Y-79250000D02*
X66275000Y-79250000D01*
D15*
X75980000Y-98050000D02*
X75980000Y-108070000D01*
X75980000Y-108070000D02*
X65940000Y-108070000D01*
X65940000Y-108070000D02*
X65940000Y-98050000D01*
X65940000Y-98050000D02*
X72230000Y-98050000D01*
X74135000Y-101030000D02*
X72865000Y-101030000D01*
X72865000Y-101030000D02*
X72865000Y-105090000D01*
X72865000Y-105090000D02*
X74135000Y-105090000D01*
X74135000Y-105090000D02*
X74135000Y-101030000D01*
X74135000Y-103060000D02*
X72865000Y-103060000D01*
X71595000Y-101030000D02*
X70325000Y-101030000D01*
X70325000Y-101030000D02*
X70325000Y-105090000D01*
X70325000Y-105090000D02*
X71595000Y-105090000D01*
X71595000Y-105090000D02*
X71595000Y-101030000D01*
X71595000Y-103060000D02*
X70325000Y-103060000D01*
X69055000Y-101030000D02*
X67785000Y-101030000D01*
X67785000Y-101030000D02*
X67785000Y-105090000D01*
X67785000Y-105090000D02*
X69055000Y-105090000D01*
X69055000Y-105090000D02*
X69055000Y-101030000D01*
X69055000Y-103060000D02*
X67785000Y-103060000D01*
X47600000Y-108250000D02*
X47600000Y-112350000D01*
X47600000Y-112350000D02*
X57900000Y-112350000D01*
X57900000Y-112350000D02*
X57900000Y-108250000D01*
X57900000Y-108250000D02*
X47600000Y-108250000D01*
X47600000Y-110000000D02*
X48100000Y-110000000D01*
X48100000Y-110000000D02*
X48100000Y-108750000D01*
X48100000Y-108750000D02*
X57400000Y-108750000D01*
X57400000Y-108750000D02*
X57400000Y-110000000D01*
X57400000Y-110000000D02*
X57900000Y-110000000D01*
X47600000Y-110850000D02*
X48600000Y-110850000D01*
X48600000Y-110850000D02*
X48600000Y-112350000D01*
X57900000Y-110850000D02*
X56900000Y-110850000D01*
X56900000Y-110850000D02*
X56900000Y-112350000D01*
X47300000Y-110150000D02*
X47300000Y-112650000D01*
X47300000Y-112650000D02*
X49800000Y-112650000D01*
D14*
X92822000Y-70121000D02*
X93330000Y-70121000D01*
X93330000Y-70121000D02*
X93330000Y-67581000D01*
X93330000Y-67581000D02*
X92314000Y-67581000D01*
X83551000Y-69613000D02*
X83551000Y-68470000D01*
X83551000Y-68470000D02*
X81138000Y-68470000D01*
X81138000Y-68470000D02*
X81138000Y-69613000D01*
X81138000Y-69613000D02*
X83551000Y-69613000D01*
X87234000Y-70375000D02*
X87742000Y-70375000D01*
X87742000Y-70375000D02*
X87742000Y-67200000D01*
X87742000Y-67200000D02*
X86726000Y-67200000D01*
X86726000Y-67200000D02*
X86726000Y-67708000D01*
X85710000Y-67454000D02*
X85710000Y-65930000D01*
X85710000Y-71010000D02*
X85710000Y-70375000D01*
X93838000Y-71010000D02*
X93838000Y-65930000D01*
X88758000Y-71010000D02*
X88758000Y-65930000D01*
X94854000Y-71010000D02*
X94854000Y-65930000D01*
X94854000Y-65930000D02*
X80630000Y-65930000D01*
X80630000Y-65930000D02*
X80630000Y-71010000D01*
X83551000Y-74693000D02*
X83551000Y-73550000D01*
X83551000Y-73550000D02*
X81138000Y-73550000D01*
X81138000Y-73550000D02*
X81138000Y-74693000D01*
X81138000Y-74693000D02*
X83551000Y-74693000D01*
X87234000Y-75455000D02*
X87742000Y-75455000D01*
X87742000Y-75455000D02*
X87742000Y-72280000D01*
X87742000Y-72280000D02*
X86726000Y-72280000D01*
X86726000Y-72280000D02*
X86726000Y-72788000D01*
X92822000Y-75201000D02*
X93330000Y-75201000D01*
X93330000Y-75201000D02*
X93330000Y-72788000D01*
X93330000Y-72788000D02*
X92314000Y-72788000D01*
X93838000Y-76090000D02*
X93838000Y-71010000D01*
X85710000Y-72661000D02*
X85710000Y-71010000D01*
X85710000Y-76090000D02*
X85710000Y-75455000D01*
X88758000Y-76090000D02*
X88758000Y-71010000D01*
X94854000Y-76090000D02*
X94854000Y-71010000D01*
X94854000Y-71010000D02*
X80630000Y-71010000D01*
X80630000Y-71010000D02*
X80630000Y-76090000D01*
X83551000Y-79519000D02*
X83551000Y-78503000D01*
X83551000Y-78503000D02*
X81138000Y-78503000D01*
X81138000Y-78503000D02*
X81138000Y-79646000D01*
X81138000Y-79646000D02*
X83551000Y-79646000D01*
X87234000Y-80535000D02*
X87742000Y-80535000D01*
X87742000Y-80535000D02*
X87742000Y-77106000D01*
X87742000Y-77106000D02*
X86726000Y-77106000D01*
X86726000Y-77106000D02*
X86726000Y-77741000D01*
X92822000Y-79900000D02*
X93330000Y-79900000D01*
X93330000Y-79900000D02*
X93330000Y-77741000D01*
X93330000Y-77741000D02*
X92314000Y-77741000D01*
X92822000Y-84726000D02*
X93330000Y-84726000D01*
X93330000Y-84726000D02*
X93330000Y-83075000D01*
X93330000Y-83075000D02*
X93330000Y-82948000D01*
X93330000Y-82948000D02*
X93330000Y-82694000D01*
X93330000Y-82694000D02*
X92314000Y-82694000D01*
X93838000Y-81043000D02*
X93838000Y-76090000D01*
X88758000Y-81043000D02*
X88758000Y-76090000D01*
X85710000Y-77741000D02*
X85710000Y-76090000D01*
X85710000Y-81043000D02*
X85710000Y-80408000D01*
X94854000Y-81043000D02*
X94854000Y-76090000D01*
X94854000Y-76090000D02*
X80630000Y-76090000D01*
X80630000Y-76090000D02*
X80630000Y-81043000D01*
X87234000Y-85234000D02*
X87742000Y-85234000D01*
X87742000Y-85234000D02*
X87742000Y-82186000D01*
X87742000Y-82186000D02*
X86726000Y-82186000D01*
X86726000Y-82186000D02*
X86726000Y-82694000D01*
X81138000Y-84599000D02*
X81138000Y-83456000D01*
X81138000Y-83456000D02*
X83678000Y-83456000D01*
X83678000Y-83456000D02*
X83678000Y-84599000D01*
X83678000Y-84599000D02*
X81138000Y-84599000D01*
X85710000Y-82567000D02*
X85710000Y-81043000D01*
X85710000Y-85869000D02*
X85710000Y-85361000D01*
X93838000Y-85742000D02*
X93838000Y-81043000D01*
X88758000Y-85742000D02*
X88758000Y-81043000D01*
X94854000Y-85742000D02*
X94854000Y-81043000D01*
X94854000Y-81043000D02*
X80630000Y-81043000D01*
X80630000Y-81043000D02*
X80630000Y-85742000D01*
X87234000Y-90314000D02*
X87742000Y-90314000D01*
X87742000Y-90314000D02*
X87742000Y-86758000D01*
X87742000Y-86758000D02*
X86726000Y-86758000D01*
X86726000Y-86758000D02*
X86726000Y-87774000D01*
X92822000Y-89806000D02*
X93330000Y-89806000D01*
X93330000Y-89806000D02*
X93330000Y-87774000D01*
X93330000Y-87774000D02*
X92314000Y-87774000D01*
X83678000Y-89298000D02*
X83678000Y-88282000D01*
X83678000Y-88282000D02*
X81138000Y-88282000D01*
X81138000Y-88282000D02*
X81138000Y-89298000D01*
X81138000Y-89298000D02*
X83678000Y-89298000D01*
X85710000Y-87774000D02*
X85710000Y-85742000D01*
X85710000Y-90822000D02*
X85710000Y-90314000D01*
X93838000Y-90822000D02*
X93838000Y-85742000D01*
X88758000Y-90822000D02*
X88758000Y-85742000D01*
X94854000Y-90822000D02*
X94854000Y-85742000D01*
X94854000Y-85742000D02*
X80630000Y-85742000D01*
X80630000Y-85742000D02*
X80630000Y-90822000D01*
X83678000Y-94378000D02*
X83678000Y-93362000D01*
X83678000Y-93362000D02*
X81138000Y-93362000D01*
X81138000Y-93362000D02*
X81138000Y-94378000D01*
X81138000Y-94378000D02*
X83678000Y-94378000D01*
X85710000Y-92346000D02*
X85710000Y-90822000D01*
X85710000Y-95902000D02*
X85710000Y-95394000D01*
X86726000Y-95394000D02*
X87742000Y-95394000D01*
X87742000Y-95394000D02*
X87742000Y-91838000D01*
X87742000Y-91838000D02*
X86726000Y-91838000D01*
X86726000Y-91838000D02*
X86726000Y-92346000D01*
X92822000Y-94886000D02*
X93330000Y-94886000D01*
X93330000Y-94886000D02*
X93330000Y-92854000D01*
X93330000Y-92854000D02*
X92314000Y-92854000D01*
X88758000Y-95902000D02*
X88758000Y-90822000D01*
X93838000Y-95902000D02*
X93838000Y-90822000D01*
X94854000Y-95902000D02*
X94854000Y-90822000D01*
X94854000Y-90822000D02*
X80630000Y-90822000D01*
X80630000Y-90822000D02*
X80630000Y-95902000D01*
X83678000Y-99458000D02*
X83678000Y-98442000D01*
X83678000Y-98442000D02*
X81138000Y-98442000D01*
X81138000Y-98442000D02*
X81138000Y-99458000D01*
X81138000Y-99458000D02*
X83678000Y-99458000D01*
X85710000Y-97426000D02*
X85710000Y-95902000D01*
X85710000Y-100982000D02*
X85710000Y-100474000D01*
X86726000Y-100474000D02*
X87742000Y-100474000D01*
X87742000Y-100474000D02*
X87742000Y-96918000D01*
X87742000Y-96918000D02*
X86726000Y-96918000D01*
X86726000Y-96918000D02*
X86726000Y-97426000D01*
X92822000Y-99966000D02*
X93330000Y-99966000D01*
X93330000Y-99966000D02*
X93330000Y-97934000D01*
X93330000Y-97934000D02*
X92314000Y-97934000D01*
X93838000Y-100982000D02*
X93838000Y-95902000D01*
X88758000Y-100982000D02*
X88758000Y-95902000D01*
X94854000Y-100982000D02*
X94854000Y-95902000D01*
X94854000Y-95902000D02*
X80630000Y-95902000D01*
X80630000Y-95902000D02*
X80630000Y-100982000D01*
X80630000Y-106062000D02*
X80630000Y-104030000D01*
X94854000Y-106062000D02*
X80630000Y-106062000D01*
X94854000Y-100982000D02*
X94854000Y-106062000D01*
X80630000Y-100982000D02*
X94854000Y-100982000D01*
X80630000Y-104030000D02*
X80630000Y-100982000D01*
X80630000Y-107586000D02*
X80630000Y-106062000D01*
X94854000Y-107586000D02*
X80630000Y-107586000D01*
X94854000Y-106062000D02*
X94854000Y-107586000D01*
X85710000Y-107586000D02*
X85710000Y-105554000D01*
X85710000Y-102506000D02*
X85710000Y-100982000D01*
X83678000Y-104538000D02*
X81138000Y-104538000D01*
X83678000Y-103522000D02*
X83678000Y-104538000D01*
X81138000Y-103522000D02*
X83678000Y-103522000D01*
X81138000Y-104538000D02*
X81138000Y-103522000D01*
X88758000Y-107586000D02*
X88758000Y-100982000D01*
X93838000Y-107586000D02*
X93838000Y-100982000D01*
X86726000Y-101998000D02*
X86726000Y-102506000D01*
X87742000Y-101998000D02*
X86726000Y-101998000D01*
X87742000Y-105554000D02*
X87742000Y-101998000D01*
X86726000Y-105554000D02*
X87742000Y-105554000D01*
X93330000Y-103014000D02*
X92314000Y-103014000D01*
X93330000Y-105046000D02*
X93330000Y-103014000D01*
X92822000Y-105046000D02*
X93330000Y-105046000D01*
X92822000Y-105046000D02*
X93330000Y-105046000D01*
X93330000Y-105046000D02*
X93330000Y-103014000D01*
X93330000Y-103014000D02*
X92314000Y-103014000D01*
X86726000Y-105554000D02*
X87742000Y-105554000D01*
X87742000Y-105554000D02*
X87742000Y-101998000D01*
X87742000Y-101998000D02*
X86726000Y-101998000D01*
X86726000Y-101998000D02*
X86726000Y-102506000D01*
X93838000Y-107586000D02*
X93838000Y-100982000D01*
X88758000Y-107586000D02*
X88758000Y-100982000D01*
X81138000Y-104538000D02*
X81138000Y-103522000D01*
X81138000Y-103522000D02*
X83678000Y-103522000D01*
X83678000Y-103522000D02*
X83678000Y-104538000D01*
X83678000Y-104538000D02*
X81138000Y-104538000D01*
X85710000Y-102506000D02*
X85710000Y-100982000D01*
X85710000Y-107586000D02*
X85710000Y-105554000D01*
X94854000Y-106062000D02*
X94854000Y-107586000D01*
X94854000Y-107586000D02*
X80630000Y-107586000D01*
X80630000Y-107586000D02*
X80630000Y-106062000D01*
X80630000Y-104030000D02*
X80630000Y-100982000D01*
X80630000Y-100982000D02*
X94854000Y-100982000D01*
X94854000Y-100982000D02*
X94854000Y-106062000D01*
X94854000Y-106062000D02*
X80630000Y-106062000D01*
X80630000Y-106062000D02*
X80630000Y-104030000D01*
X80630000Y-106062000D02*
X80630000Y-104030000D01*
X94854000Y-106062000D02*
X80630000Y-106062000D01*
X94854000Y-100982000D02*
X94854000Y-106062000D01*
X80630000Y-100982000D02*
X94854000Y-100982000D01*
X80630000Y-104030000D02*
X80630000Y-100982000D01*
X80630000Y-107586000D02*
X80630000Y-106062000D01*
X94854000Y-107586000D02*
X80630000Y-107586000D01*
X94854000Y-106062000D02*
X94854000Y-107586000D01*
X85710000Y-107586000D02*
X85710000Y-105554000D01*
X85710000Y-102506000D02*
X85710000Y-100982000D01*
X83678000Y-104538000D02*
X81138000Y-104538000D01*
X83678000Y-103522000D02*
X83678000Y-104538000D01*
X81138000Y-103522000D02*
X83678000Y-103522000D01*
X81138000Y-104538000D02*
X81138000Y-103522000D01*
X88758000Y-107586000D02*
X88758000Y-100982000D01*
X93838000Y-107586000D02*
X93838000Y-100982000D01*
X86726000Y-101998000D02*
X86726000Y-102506000D01*
X87742000Y-101998000D02*
X86726000Y-101998000D01*
X87742000Y-105554000D02*
X87742000Y-101998000D01*
X86726000Y-105554000D02*
X87742000Y-105554000D01*
X93330000Y-103014000D02*
X92314000Y-103014000D01*
X93330000Y-105046000D02*
X93330000Y-103014000D01*
X92822000Y-105046000D02*
X93330000Y-105046000D01*
X92822000Y-105046000D02*
X93330000Y-105046000D01*
X93330000Y-105046000D02*
X93330000Y-103014000D01*
X93330000Y-103014000D02*
X92314000Y-103014000D01*
X86726000Y-105554000D02*
X87742000Y-105554000D01*
X87742000Y-105554000D02*
X87742000Y-101998000D01*
X87742000Y-101998000D02*
X86726000Y-101998000D01*
X86726000Y-101998000D02*
X86726000Y-102506000D01*
X93838000Y-107586000D02*
X93838000Y-100982000D01*
X88758000Y-107586000D02*
X88758000Y-100982000D01*
X81138000Y-104538000D02*
X81138000Y-103522000D01*
X81138000Y-103522000D02*
X83678000Y-103522000D01*
X83678000Y-103522000D02*
X83678000Y-104538000D01*
X83678000Y-104538000D02*
X81138000Y-104538000D01*
X85710000Y-102506000D02*
X85710000Y-100982000D01*
X85710000Y-107586000D02*
X85710000Y-105554000D01*
X94854000Y-106062000D02*
X94854000Y-107586000D01*
X94854000Y-107586000D02*
X80630000Y-107586000D01*
X80630000Y-107586000D02*
X80630000Y-106062000D01*
X80630000Y-104030000D02*
X80630000Y-100982000D01*
X80630000Y-100982000D02*
X94854000Y-100982000D01*
X94854000Y-100982000D02*
X94854000Y-106062000D01*
X94854000Y-106062000D02*
X80630000Y-106062000D01*
X80630000Y-106062000D02*
X80630000Y-104030000D01*
D15*
X47600000Y-113750000D02*
X47600000Y-117850000D01*
X47600000Y-117850000D02*
X57900000Y-117850000D01*
X57900000Y-117850000D02*
X57900000Y-113750000D01*
X57900000Y-113750000D02*
X47600000Y-113750000D01*
X47600000Y-115500000D02*
X48100000Y-115500000D01*
X48100000Y-115500000D02*
X48100000Y-114250000D01*
X48100000Y-114250000D02*
X57400000Y-114250000D01*
X57400000Y-114250000D02*
X57400000Y-115500000D01*
X57400000Y-115500000D02*
X57900000Y-115500000D01*
X47600000Y-116350000D02*
X48600000Y-116350000D01*
X48600000Y-116350000D02*
X48600000Y-117850000D01*
X57900000Y-116350000D02*
X56900000Y-116350000D01*
X56900000Y-116350000D02*
X56900000Y-117850000D01*
X47300000Y-115650000D02*
X47300000Y-118150000D01*
X47300000Y-118150000D02*
X49800000Y-118150000D01*
X47600000Y-60750000D02*
X47600000Y-64850000D01*
X47600000Y-64850000D02*
X57900000Y-64850000D01*
X57900000Y-64850000D02*
X57900000Y-60750000D01*
X57900000Y-60750000D02*
X47600000Y-60750000D01*
X47600000Y-62500000D02*
X48100000Y-62500000D01*
X48100000Y-62500000D02*
X48100000Y-61250000D01*
X48100000Y-61250000D02*
X57400000Y-61250000D01*
X57400000Y-61250000D02*
X57400000Y-62500000D01*
X57400000Y-62500000D02*
X57900000Y-62500000D01*
X47600000Y-63350000D02*
X48600000Y-63350000D01*
X48600000Y-63350000D02*
X48600000Y-64850000D01*
X57900000Y-63350000D02*
X56900000Y-63350000D01*
X56900000Y-63350000D02*
X56900000Y-64850000D01*
X47300000Y-62650000D02*
X47300000Y-65150000D01*
X47300000Y-65150000D02*
X49800000Y-65150000D01*
D12*
X92000000Y-116700000D02*
X93700000Y-115000000D01*
X74000000Y-116700000D02*
X72300000Y-115000000D01*
X74000000Y-116700000D02*
X92000000Y-116700000D01*
X72300000Y-110300000D02*
X93700000Y-110300000D01*
X92500000Y-117700000D02*
X94700000Y-115500000D01*
X73500000Y-117700000D02*
X71300000Y-115500000D01*
X73500000Y-117700000D02*
X92500000Y-117700000D01*
X93700000Y-110300000D02*
X93700000Y-115000000D01*
X72300000Y-110300000D02*
X72300000Y-115000000D01*
X71300000Y-109300000D02*
X94700000Y-109300000D01*
X71300000Y-109300000D02*
X71300000Y-115500000D01*
X94700000Y-109300000D02*
X94700000Y-115500000D01*
D14*
X49228000Y-103329000D02*
X48720000Y-103329000D01*
X48720000Y-103329000D02*
X48720000Y-105869000D01*
X48720000Y-105869000D02*
X49736000Y-105869000D01*
X58499000Y-103837000D02*
X58499000Y-104980000D01*
X58499000Y-104980000D02*
X60912000Y-104980000D01*
X60912000Y-104980000D02*
X60912000Y-103837000D01*
X60912000Y-103837000D02*
X58499000Y-103837000D01*
X54816000Y-103075000D02*
X54308000Y-103075000D01*
X54308000Y-103075000D02*
X54308000Y-106250000D01*
X54308000Y-106250000D02*
X55324000Y-106250000D01*
X55324000Y-106250000D02*
X55324000Y-105742000D01*
X56340000Y-105996000D02*
X56340000Y-107520000D01*
X56340000Y-102440000D02*
X56340000Y-103075000D01*
X48212000Y-102440000D02*
X48212000Y-107520000D01*
X53292000Y-102440000D02*
X53292000Y-107520000D01*
X47196000Y-102440000D02*
X47196000Y-107520000D01*
X47196000Y-107520000D02*
X61420000Y-107520000D01*
X61420000Y-107520000D02*
X61420000Y-102440000D01*
X58499000Y-98757000D02*
X58499000Y-99900000D01*
X58499000Y-99900000D02*
X60912000Y-99900000D01*
X60912000Y-99900000D02*
X60912000Y-98757000D01*
X60912000Y-98757000D02*
X58499000Y-98757000D01*
X54816000Y-97995000D02*
X54308000Y-97995000D01*
X54308000Y-97995000D02*
X54308000Y-101170000D01*
X54308000Y-101170000D02*
X55324000Y-101170000D01*
X55324000Y-101170000D02*
X55324000Y-100662000D01*
X49228000Y-98249000D02*
X48720000Y-98249000D01*
X48720000Y-98249000D02*
X48720000Y-100662000D01*
X48720000Y-100662000D02*
X49736000Y-100662000D01*
X48212000Y-97360000D02*
X48212000Y-102440000D01*
X56340000Y-100789000D02*
X56340000Y-102440000D01*
X56340000Y-97360000D02*
X56340000Y-97995000D01*
X53292000Y-97360000D02*
X53292000Y-102440000D01*
X47196000Y-97360000D02*
X47196000Y-102440000D01*
X47196000Y-102440000D02*
X61420000Y-102440000D01*
X61420000Y-102440000D02*
X61420000Y-97360000D01*
X58499000Y-93931000D02*
X58499000Y-94947000D01*
X58499000Y-94947000D02*
X60912000Y-94947000D01*
X60912000Y-94947000D02*
X60912000Y-93804000D01*
X60912000Y-93804000D02*
X58499000Y-93804000D01*
X54816000Y-92915000D02*
X54308000Y-92915000D01*
X54308000Y-92915000D02*
X54308000Y-96344000D01*
X54308000Y-96344000D02*
X55324000Y-96344000D01*
X55324000Y-96344000D02*
X55324000Y-95709000D01*
X49228000Y-93550000D02*
X48720000Y-93550000D01*
X48720000Y-93550000D02*
X48720000Y-95709000D01*
X48720000Y-95709000D02*
X49736000Y-95709000D01*
X49228000Y-88724000D02*
X48720000Y-88724000D01*
X48720000Y-88724000D02*
X48720000Y-90375000D01*
X48720000Y-90375000D02*
X48720000Y-90502000D01*
X48720000Y-90502000D02*
X48720000Y-90756000D01*
X48720000Y-90756000D02*
X49736000Y-90756000D01*
X48212000Y-92407000D02*
X48212000Y-97360000D01*
X53292000Y-92407000D02*
X53292000Y-97360000D01*
X56340000Y-95709000D02*
X56340000Y-97360000D01*
X56340000Y-92407000D02*
X56340000Y-93042000D01*
X47196000Y-92407000D02*
X47196000Y-97360000D01*
X47196000Y-97360000D02*
X61420000Y-97360000D01*
X61420000Y-97360000D02*
X61420000Y-92407000D01*
X54816000Y-88216000D02*
X54308000Y-88216000D01*
X54308000Y-88216000D02*
X54308000Y-91264000D01*
X54308000Y-91264000D02*
X55324000Y-91264000D01*
X55324000Y-91264000D02*
X55324000Y-90756000D01*
X60912000Y-88851000D02*
X60912000Y-89994000D01*
X60912000Y-89994000D02*
X58372000Y-89994000D01*
X58372000Y-89994000D02*
X58372000Y-88851000D01*
X58372000Y-88851000D02*
X60912000Y-88851000D01*
X56340000Y-90883000D02*
X56340000Y-92407000D01*
X56340000Y-87581000D02*
X56340000Y-88089000D01*
X48212000Y-87708000D02*
X48212000Y-92407000D01*
X53292000Y-87708000D02*
X53292000Y-92407000D01*
X47196000Y-87708000D02*
X47196000Y-92407000D01*
X47196000Y-92407000D02*
X61420000Y-92407000D01*
X61420000Y-92407000D02*
X61420000Y-87708000D01*
X54816000Y-83136000D02*
X54308000Y-83136000D01*
X54308000Y-83136000D02*
X54308000Y-86692000D01*
X54308000Y-86692000D02*
X55324000Y-86692000D01*
X55324000Y-86692000D02*
X55324000Y-85676000D01*
X49228000Y-83644000D02*
X48720000Y-83644000D01*
X48720000Y-83644000D02*
X48720000Y-85676000D01*
X48720000Y-85676000D02*
X49736000Y-85676000D01*
X58372000Y-84152000D02*
X58372000Y-85168000D01*
X58372000Y-85168000D02*
X60912000Y-85168000D01*
X60912000Y-85168000D02*
X60912000Y-84152000D01*
X60912000Y-84152000D02*
X58372000Y-84152000D01*
X56340000Y-85676000D02*
X56340000Y-87708000D01*
X56340000Y-82628000D02*
X56340000Y-83136000D01*
X48212000Y-82628000D02*
X48212000Y-87708000D01*
X53292000Y-82628000D02*
X53292000Y-87708000D01*
X47196000Y-82628000D02*
X47196000Y-87708000D01*
X47196000Y-87708000D02*
X61420000Y-87708000D01*
X61420000Y-87708000D02*
X61420000Y-82628000D01*
X58372000Y-79072000D02*
X58372000Y-80088000D01*
X58372000Y-80088000D02*
X60912000Y-80088000D01*
X60912000Y-80088000D02*
X60912000Y-79072000D01*
X60912000Y-79072000D02*
X58372000Y-79072000D01*
X56340000Y-81104000D02*
X56340000Y-82628000D01*
X56340000Y-77548000D02*
X56340000Y-78056000D01*
X55324000Y-78056000D02*
X54308000Y-78056000D01*
X54308000Y-78056000D02*
X54308000Y-81612000D01*
X54308000Y-81612000D02*
X55324000Y-81612000D01*
X55324000Y-81612000D02*
X55324000Y-81104000D01*
X49228000Y-78564000D02*
X48720000Y-78564000D01*
X48720000Y-78564000D02*
X48720000Y-80596000D01*
X48720000Y-80596000D02*
X49736000Y-80596000D01*
X53292000Y-77548000D02*
X53292000Y-82628000D01*
X48212000Y-77548000D02*
X48212000Y-82628000D01*
X47196000Y-77548000D02*
X47196000Y-82628000D01*
X47196000Y-82628000D02*
X61420000Y-82628000D01*
X61420000Y-82628000D02*
X61420000Y-77548000D01*
X58372000Y-73992000D02*
X58372000Y-75008000D01*
X58372000Y-75008000D02*
X60912000Y-75008000D01*
X60912000Y-75008000D02*
X60912000Y-73992000D01*
X60912000Y-73992000D02*
X58372000Y-73992000D01*
X56340000Y-76024000D02*
X56340000Y-77548000D01*
X56340000Y-72468000D02*
X56340000Y-72976000D01*
X55324000Y-72976000D02*
X54308000Y-72976000D01*
X54308000Y-72976000D02*
X54308000Y-76532000D01*
X54308000Y-76532000D02*
X55324000Y-76532000D01*
X55324000Y-76532000D02*
X55324000Y-76024000D01*
X49228000Y-73484000D02*
X48720000Y-73484000D01*
X48720000Y-73484000D02*
X48720000Y-75516000D01*
X48720000Y-75516000D02*
X49736000Y-75516000D01*
X48212000Y-72468000D02*
X48212000Y-77548000D01*
X53292000Y-72468000D02*
X53292000Y-77548000D01*
X47196000Y-72468000D02*
X47196000Y-77548000D01*
X47196000Y-77548000D02*
X61420000Y-77548000D01*
X61420000Y-77548000D02*
X61420000Y-72468000D01*
X61420000Y-67388000D02*
X61420000Y-69420000D01*
X47196000Y-67388000D02*
X61420000Y-67388000D01*
X47196000Y-72468000D02*
X47196000Y-67388000D01*
X61420000Y-72468000D02*
X47196000Y-72468000D01*
X61420000Y-69420000D02*
X61420000Y-72468000D01*
X61420000Y-65864000D02*
X61420000Y-67388000D01*
X47196000Y-65864000D02*
X61420000Y-65864000D01*
X47196000Y-67388000D02*
X47196000Y-65864000D01*
X56340000Y-65864000D02*
X56340000Y-67896000D01*
X56340000Y-70944000D02*
X56340000Y-72468000D01*
X58372000Y-68912000D02*
X60912000Y-68912000D01*
X58372000Y-69928000D02*
X58372000Y-68912000D01*
X60912000Y-69928000D02*
X58372000Y-69928000D01*
X60912000Y-68912000D02*
X60912000Y-69928000D01*
X53292000Y-65864000D02*
X53292000Y-72468000D01*
X48212000Y-65864000D02*
X48212000Y-72468000D01*
X55324000Y-71452000D02*
X55324000Y-70944000D01*
X54308000Y-71452000D02*
X55324000Y-71452000D01*
X54308000Y-67896000D02*
X54308000Y-71452000D01*
X55324000Y-67896000D02*
X54308000Y-67896000D01*
X48720000Y-70436000D02*
X49736000Y-70436000D01*
X48720000Y-68404000D02*
X48720000Y-70436000D01*
X49228000Y-68404000D02*
X48720000Y-68404000D01*
X49228000Y-68404000D02*
X48720000Y-68404000D01*
X48720000Y-68404000D02*
X48720000Y-70436000D01*
X48720000Y-70436000D02*
X49736000Y-70436000D01*
X55324000Y-67896000D02*
X54308000Y-67896000D01*
X54308000Y-67896000D02*
X54308000Y-71452000D01*
X54308000Y-71452000D02*
X55324000Y-71452000D01*
X55324000Y-71452000D02*
X55324000Y-70944000D01*
X48212000Y-65864000D02*
X48212000Y-72468000D01*
X53292000Y-65864000D02*
X53292000Y-72468000D01*
X60912000Y-68912000D02*
X60912000Y-69928000D01*
X60912000Y-69928000D02*
X58372000Y-69928000D01*
X58372000Y-69928000D02*
X58372000Y-68912000D01*
X58372000Y-68912000D02*
X60912000Y-68912000D01*
X56340000Y-70944000D02*
X56340000Y-72468000D01*
X56340000Y-65864000D02*
X56340000Y-67896000D01*
X47196000Y-67388000D02*
X47196000Y-65864000D01*
X47196000Y-65864000D02*
X61420000Y-65864000D01*
X61420000Y-65864000D02*
X61420000Y-67388000D01*
X61420000Y-69420000D02*
X61420000Y-72468000D01*
X61420000Y-72468000D02*
X47196000Y-72468000D01*
X47196000Y-72468000D02*
X47196000Y-67388000D01*
X47196000Y-67388000D02*
X61420000Y-67388000D01*
X61420000Y-67388000D02*
X61420000Y-69420000D01*
X61420000Y-67388000D02*
X61420000Y-69420000D01*
X47196000Y-67388000D02*
X61420000Y-67388000D01*
X47196000Y-72468000D02*
X47196000Y-67388000D01*
X61420000Y-72468000D02*
X47196000Y-72468000D01*
X61420000Y-69420000D02*
X61420000Y-72468000D01*
X61420000Y-65864000D02*
X61420000Y-67388000D01*
X47196000Y-65864000D02*
X61420000Y-65864000D01*
X47196000Y-67388000D02*
X47196000Y-65864000D01*
X56340000Y-65864000D02*
X56340000Y-67896000D01*
X56340000Y-70944000D02*
X56340000Y-72468000D01*
X58372000Y-68912000D02*
X60912000Y-68912000D01*
X58372000Y-69928000D02*
X58372000Y-68912000D01*
X60912000Y-69928000D02*
X58372000Y-69928000D01*
X60912000Y-68912000D02*
X60912000Y-69928000D01*
X53292000Y-65864000D02*
X53292000Y-72468000D01*
X48212000Y-65864000D02*
X48212000Y-72468000D01*
X55324000Y-71452000D02*
X55324000Y-70944000D01*
X54308000Y-71452000D02*
X55324000Y-71452000D01*
X54308000Y-67896000D02*
X54308000Y-71452000D01*
X55324000Y-67896000D02*
X54308000Y-67896000D01*
X48720000Y-70436000D02*
X49736000Y-70436000D01*
X48720000Y-68404000D02*
X48720000Y-70436000D01*
X49228000Y-68404000D02*
X48720000Y-68404000D01*
X49228000Y-68404000D02*
X48720000Y-68404000D01*
X48720000Y-68404000D02*
X48720000Y-70436000D01*
X48720000Y-70436000D02*
X49736000Y-70436000D01*
X55324000Y-67896000D02*
X54308000Y-67896000D01*
X54308000Y-67896000D02*
X54308000Y-71452000D01*
X54308000Y-71452000D02*
X55324000Y-71452000D01*
X55324000Y-71452000D02*
X55324000Y-70944000D01*
X48212000Y-65864000D02*
X48212000Y-72468000D01*
X53292000Y-65864000D02*
X53292000Y-72468000D01*
X60912000Y-68912000D02*
X60912000Y-69928000D01*
X60912000Y-69928000D02*
X58372000Y-69928000D01*
X58372000Y-69928000D02*
X58372000Y-68912000D01*
X58372000Y-68912000D02*
X60912000Y-68912000D01*
X56340000Y-70944000D02*
X56340000Y-72468000D01*
X56340000Y-65864000D02*
X56340000Y-67896000D01*
X47196000Y-67388000D02*
X47196000Y-65864000D01*
X47196000Y-65864000D02*
X61420000Y-65864000D01*
X61420000Y-65864000D02*
X61420000Y-67388000D01*
X61420000Y-69420000D02*
X61420000Y-72468000D01*
X61420000Y-72468000D02*
X47196000Y-72468000D01*
X47196000Y-72468000D02*
X47196000Y-67388000D01*
X47196000Y-67388000D02*
X61420000Y-67388000D01*
X61420000Y-67388000D02*
X61420000Y-69420000D01*
X71988095Y-89702381D02*
X71988095Y-90511905D01*
X72035714Y-90607143D01*
X72083333Y-90654762D01*
X72178571Y-90702381D01*
X72369048Y-90702381D01*
X72464286Y-90654762D01*
X72511905Y-90607143D01*
X72559524Y-90511905D01*
X72559524Y-89702381D01*
X73559524Y-90702381D02*
X72988095Y-90702381D01*
X73273809Y-90702381D02*
X73273809Y-89702381D01*
X73178571Y-89845238D01*
X73083333Y-89940476D01*
X72988095Y-89988095D01*
X69261905Y-97416667D02*
X69738096Y-97416667D01*
X69166667Y-97702381D02*
X69500000Y-96702381D01*
X69833334Y-97702381D01*
X70166667Y-97702381D02*
X70166667Y-96702381D01*
X70404762Y-96702381D01*
X70547620Y-96750000D01*
X70642858Y-96845238D01*
X70690477Y-96940476D01*
X70738096Y-97130952D01*
X70738096Y-97273810D01*
X70690477Y-97464286D01*
X70642858Y-97559524D01*
X70547620Y-97654762D01*
X70404762Y-97702381D01*
X70166667Y-97702381D01*
X71166667Y-97702381D02*
X71166667Y-96702381D01*
X71404762Y-96702381D01*
X71547620Y-96750000D01*
X71642858Y-96845238D01*
X71690477Y-96940476D01*
X71738096Y-97130952D01*
X71738096Y-97273810D01*
X71690477Y-97464286D01*
X71642858Y-97559524D01*
X71547620Y-97654762D01*
X71404762Y-97702381D01*
X71166667Y-97702381D01*
X72738096Y-97702381D02*
X72404762Y-97226190D01*
X72166667Y-97702381D02*
X72166667Y-96702381D01*
X72547620Y-96702381D01*
X72642858Y-96750000D01*
X72690477Y-96797619D01*
X72738096Y-96892857D01*
X72738096Y-97035714D01*
X72690477Y-97130952D01*
X72642858Y-97178571D01*
X72547620Y-97226190D01*
X72166667Y-97226190D01*
X59095238Y-110952381D02*
X59095238Y-109952381D01*
X59571428Y-110952381D02*
X59571428Y-109952381D01*
X60142857Y-110952381D01*
X60142857Y-109952381D01*
X60476190Y-109952381D02*
X61047619Y-109952381D01*
X60761904Y-110952381D02*
X60761904Y-109952381D01*
X58880953Y-116202381D02*
X58880953Y-115202381D01*
X59309524Y-115297619D02*
X59357143Y-115250000D01*
X59452381Y-115202381D01*
X59690477Y-115202381D01*
X59785715Y-115250000D01*
X59833334Y-115297619D01*
X59880953Y-115392857D01*
X59880953Y-115488095D01*
X59833334Y-115630952D01*
X59261905Y-116202381D01*
X59880953Y-116202381D01*
X60880953Y-116107143D02*
X60833334Y-116154762D01*
X60690477Y-116202381D01*
X60595239Y-116202381D01*
X60452381Y-116154762D01*
X60357143Y-116059524D01*
X60309524Y-115964286D01*
X60261905Y-115773810D01*
X60261905Y-115630952D01*
X60309524Y-115440476D01*
X60357143Y-115345238D01*
X60452381Y-115250000D01*
X60595239Y-115202381D01*
X60690477Y-115202381D01*
X60833334Y-115250000D01*
X60880953Y-115297619D01*
X61071429Y-116297619D02*
X61833334Y-116297619D01*
X62071429Y-116202381D02*
X62071429Y-115202381D01*
X62547619Y-116202381D02*
X62547619Y-115202381D01*
X63119048Y-116202381D01*
X63119048Y-115202381D01*
X58714286Y-63202381D02*
X58714286Y-62202381D01*
X59142857Y-62297619D02*
X59190476Y-62250000D01*
X59285714Y-62202381D01*
X59523810Y-62202381D01*
X59619048Y-62250000D01*
X59666667Y-62297619D01*
X59714286Y-62392857D01*
X59714286Y-62488095D01*
X59666667Y-62630952D01*
X59095238Y-63202381D01*
X59714286Y-63202381D01*
X60714286Y-63107143D02*
X60666667Y-63154762D01*
X60523810Y-63202381D01*
X60428572Y-63202381D01*
X60285714Y-63154762D01*
X60190476Y-63059524D01*
X60142857Y-62964286D01*
X60095238Y-62773810D01*
X60095238Y-62630952D01*
X60142857Y-62440476D01*
X60190476Y-62345238D01*
X60285714Y-62250000D01*
X60428572Y-62202381D01*
X60523810Y-62202381D01*
X60666667Y-62250000D01*
X60714286Y-62297619D01*
X60904762Y-63297619D02*
X61666667Y-63297619D01*
X62095238Y-62202381D02*
X62285715Y-62202381D01*
X62380953Y-62250000D01*
X62476191Y-62345238D01*
X62523810Y-62535714D01*
X62523810Y-62869048D01*
X62476191Y-63059524D01*
X62380953Y-63154762D01*
X62285715Y-63202381D01*
X62095238Y-63202381D01*
X62000000Y-63154762D01*
X61904762Y-63059524D01*
X61857143Y-62869048D01*
X61857143Y-62535714D01*
X61904762Y-62345238D01*
X62000000Y-62250000D01*
X62095238Y-62202381D01*
X62952381Y-62202381D02*
X62952381Y-63011905D01*
X63000000Y-63107143D01*
X63047619Y-63154762D01*
X63142857Y-63202381D01*
X63333334Y-63202381D01*
X63428572Y-63154762D01*
X63476191Y-63107143D01*
X63523810Y-63011905D01*
X63523810Y-62202381D01*
X63857143Y-62202381D02*
X64428572Y-62202381D01*
X64142857Y-63202381D02*
X64142857Y-62202381D01*
D16*
X70439429Y-114282000D02*
X68915429Y-114282000D01*
X68915429Y-113701428D01*
X68988000Y-113556286D01*
X69060571Y-113483714D01*
X69205714Y-113411143D01*
X69423429Y-113411143D01*
X69568571Y-113483714D01*
X69641143Y-113556286D01*
X69713714Y-113701428D01*
X69713714Y-114282000D01*
X68915429Y-112903143D02*
X70439429Y-112540286D01*
X69350857Y-112250000D01*
X70439429Y-111959714D01*
X68915429Y-111596857D01*
X70439429Y-110145429D02*
X69713714Y-110653429D01*
X70439429Y-111016286D02*
X68915429Y-111016286D01*
X68915429Y-110435714D01*
X68988000Y-110290572D01*
X69060571Y-110218000D01*
X69205714Y-110145429D01*
X69423429Y-110145429D01*
X69568571Y-110218000D01*
X69641143Y-110290572D01*
X69713714Y-110435714D01*
X69713714Y-111016286D01*
M02*
